<?xml version="1.0" encoding="utf-8"?>
<!-- Generator: Adobe Illustrator 24.3.0, SVG Export Plug-In . SVG Version: 6.00 Build 0)  -->
<svg version="1.1" id="Layer_1" xmlns="http://www.w3.org/2000/svg" xmlns:xlink="http://www.w3.org/1999/xlink" x="0px" y="0px"
	 viewBox="0 0 86.2 75.9" style="enable-background:new 0 0 86.2 75.9;" xml:space="preserve">
<style type="text/css">
	.st0{fill:#575757;}
	.st1{fill:#489FC0;}
	.st2{fill:#F0F0F0;}
	.st3{fill:#B2B2B2;}
	.st4{fill:#B81F40;}
	.st5{fill:#FFFFFF;}
	.st6{fill:#E7795D;}
	.st7{fill:#D1D2DF;}
</style>
<polygon class="st0" points="51,71.8 35.2,71.8 36.5,52.7 49.7,52.7 "/>
<path class="st0" d="M53.1,68.7c-0.2-0.3-0.5-0.5-0.9-0.5h-8.7h-0.7H34c-0.3,0-0.7,0.2-0.9,0.5l-2.4,3.6c-0.5,0.7,0,1.6,0.9,1.6
	h11.1h0.7h11.1c0.8,0,1.3-0.9,0.9-1.6L53.1,68.7z"/>
<path class="st0" d="M81.8,57.8H4.4c-2.5,0-4.4-2-4.4-4.4V4.4C0,2,2,0,4.4,0h77.3c2.5,0,4.4,2,4.4,4.4v48.9
	C86.2,55.8,84.2,57.8,81.8,57.8z"/>
<rect x="4" y="3.8" class="st1" width="78.3" height="49.5"/>
<rect x="49.6" y="37.3" class="st2" width="4.3" height="16"/>
<rect x="49.6" y="37.3" class="st3" width="4.3" height="5"/>
<path class="st4" d="M65.5,12.6h-0.1h-0.1H40.2v25.8h24.1h1.2h10.2V22.6C75.6,17.1,71.1,12.6,65.5,12.6z"/>
<path class="st4" d="M50.4,38.3H30V22.6c0-5.6,4.5-10.1,10.1-10.1h0.2c5.6,0,10.1,4.5,10.1,10.1C50.4,22.6,50.4,38.3,50.4,38.3z"/>
<path class="st0" d="M48.6,36.1H31.7v-13c0-4.6,3.7-8.4,8.4-8.4h0.2c4.6,0,8.4,3.7,8.4,8.4V36.1z"/>
<rect x="23.3" y="36.3" class="st4" width="19.3" height="2"/>
<g>
	<path class="st5" d="M64.9,28.8c0.6,0,1.2-1,1.2-2.4c0-2.8-1.8-5-4.9-5c-2.8,0-5,2.3-5,5c0,2.7,2.1,4.8,4.8,4.8
		c0.8,0,1.9-0.3,2.8-0.9l0.7,1.2c-0.9,0.7-2.3,1.1-3.5,1.1c-3.6,0-6.3-2.6-6.3-6.1c0-3.6,2.9-6.4,6.5-6.4c3.6,0,6.3,2.7,6.3,6.3
		c0,2.2-1.2,3.6-2.8,3.6c-0.9,0-1.5-0.3-1.7-1.1l0-0.2c-0.6,0.8-1.4,1.2-2.2,1.2c-1.7,0-3.2-1.4-3.2-3.4c0-1.9,1.2-3.5,3-3.5
		c1.2,0,1.9,0.8,2,0.9v-0.8h1.8v4.9C64.3,28.6,64.5,28.8,64.9,28.8z M59.5,26.4c0,1,0.5,1.8,1.4,1.8c0.9,0,1.5-0.8,1.5-1.8
		c0-1-0.6-1.7-1.5-1.7C60.1,24.6,59.5,25.4,59.5,26.4z"/>
</g>
<path class="st2" d="M44.3,41.7c0.1-4,2.9-7.4,4.3-8.9v-0.9H35.4c-2.7,0-4.3,1.4-5.8,3.7c-1.1,1.7-2,3.8-2.1,6.1
	c-0.2,5.4,1,8.1-2.6,11.7c-3.5,3.6-5.1,5.7-4.1,11.5h16.8c-1.1-5.9,0.5-7.9,4.1-11.5C45.3,49.8,44.1,47.1,44.3,41.7z"/>
<g>
	<path class="st0" d="M46.2,33.2H33.8c-0.1,0.2-0.3,0.3-0.5,0.5h12.4C45.9,33.5,46.1,33.3,46.2,33.2z"/>
	<path class="st0" d="M44.3,35.8H31.9c-0.1,0.2-0.2,0.4-0.3,0.5H44C44.1,36.1,44.2,35.9,44.3,35.8z"/>
	<path class="st0" d="M43,38.4H30.6c-0.1,0.2-0.1,0.4-0.2,0.5h12.4C42.9,38.7,42.9,38.5,43,38.4z"/>
	<path class="st0" d="M42.4,40.9H30c0,0.2,0,0.4,0,0.5h12.4C42.3,41.3,42.3,41.1,42.4,40.9z"/>
	<path class="st0" d="M42.3,43.5H29.9c0,0.2,0,0.4,0,0.5h12.4C42.3,43.9,42.3,43.7,42.3,43.5z"/>
	<path class="st0" d="M42.3,46.1H29.9c0,0.2,0,0.4,0,0.5h12.4C42.3,46.5,42.3,46.3,42.3,46.1z"/>
	<path class="st0" d="M42.2,48.7H29.8c0,0.2-0.1,0.4-0.1,0.5h12.4C42.1,49.1,42.2,48.9,42.2,48.7z"/>
	<path class="st0" d="M41.3,51.3H28.9c-0.1,0.2-0.2,0.4-0.3,0.5H41C41.1,51.7,41.2,51.5,41.3,51.3z"/>
	<path class="st0" d="M39.2,53.9H26.8c-0.2,0.2-0.4,0.4-0.5,0.5h12.4C38.9,54.3,39.1,54.1,39.2,53.9z"/>
	<path class="st0" d="M37,56.5H24.6c-0.1,0.2-0.2,0.4-0.4,0.5h12.4C36.7,56.9,36.9,56.7,37,56.5z"/>
	<path class="st0" d="M35.7,59.1H23.3c-0.1,0.2-0.1,0.4-0.1,0.5h12.4C35.6,59.5,35.6,59.3,35.7,59.1z"/>
	<path class="st0" d="M35.3,61.7H22.9c0,0.2,0,0.4,0,0.5h12.4C35.3,62,35.3,61.9,35.3,61.7z"/>
</g>
<g>
	<path class="st6" d="M29,37.8c-0.1-0.2-0.8,0.4-0.9,0.5c-0.1,0.2-0.4,0.4-0.5,0.7c-0.1,0.2-0.2,0.5-0.3,0.7
		c-0.1,0.1-0.1,0.3-0.1,0.4c0,0.1-0.3,0.4-0.4,0.6c0,0,0,0.1-0.1,0.1c0.3,0.2,0.3,0.4,0.4,0.8c0,0,0.2-0.2,0.3-0.3
		c0.1-0.1,0.8-0.3,0.9-0.4c0.4-0.2,0.6-0.3,0.7-0.4c0.1-0.1,0.4-0.2,0.3-0.3c-0.1-0.2-0.5-0.1-0.6-0.1c-0.2,0-0.4,0.2-0.8,0.2
		c-0.1,0-0.3-0.2-0.2-0.5c0.1-0.2,0.2-0.4,0.4-0.6c0.1-0.1,0.6-0.5,0.7-0.6c0.4-0.3,0.2-0.6-0.1-0.3c-0.1,0-0.6,0.5-0.7,0.5
		c0.1-0.1,0.1-0.1,0.1-0.2C28.6,38.4,29.1,38,29,37.8z"/>
</g>
<path class="st6" d="M14.3,31.7c0,0,0.1,0.1,0.1,0.1c0.3,0.4,0.6,0.9,0.9,1.2c0.2,0.2,0.6,0.4,0.8,0.6c0.1,0.1,0.1,0.2,0.2,0.3
	c-0.3,0.7-1,2.5-1.1,3.2c0,0-2.2-0.7-2.9-1.8C12.3,35.4,13.8,33.1,14.3,31.7z"/>
<path class="st6" d="M14.6,35.7c0-0.7-0.2-1.4-0.6-1.9c-0.1-0.2-0.3-0.4-0.5-0.5c0.3-0.6,0.6-1.1,0.7-1.6c0,0,0.1,0.1,0.1,0.1
	c0.3,0.4,0.6,0.9,0.9,1.2c0.2,0.2,0.6,0.4,0.8,0.6c0.1,0.1,0.1,0.2,0.2,0.3c-0.3,0.7-1,2.5-1.1,3.2c0,0-0.4-0.1-0.9-0.3
	C14.5,36.5,14.6,36.2,14.6,35.7z"/>
<path class="st0" d="M6,72.9c0,0-0.3,2.3,0,2.6c0.4,0.3,5.1,0.7,5.5,0.2c0.4-0.4,0.2-1.1-0.8-1.4c-1.1-0.3-1.6-0.1-2.2-0.4
	C7.8,73.6,8,72.6,8,72.6L6,72.9z"/>
<path class="st0" d="M13.9,72.9c0,0-0.3,2.3,0,2.6s5.1,0.7,5.5,0.2s0.2-1.1-0.8-1.4c-1.1-0.3-1.6-0.1-2.2-0.4
	c-0.7-0.3-0.4-1.3-0.4-1.3L13.9,72.9z"/>
<path class="st4" d="M5.2,60.1c-1.1-6.3-1.1-10.8-1.1-12.9c0.8-0.1,1.5-0.2,2.3,0.1c1.5,0.4,3,0.8,4.5,1.2c-0.8,2.5-2,10.6-2,12.3
	c0,2.1-0.5,12.9-0.5,12.9l-2.7,0.1C5.4,72,5.3,60.7,5.2,60.1z"/>
<path class="st4" d="M8.5,47.9c0.8,0.2,1.6,0.4,2.4,0.5c-0.7,2.5-1.9,10.5-2,12.2c-0.5-1-2.6-4.6-3.7-7.3c-0.8-1.8-1.1-3.8-1.2-5.7
	c0,0,0,0,0,0C5.5,47.5,6.9,47.4,8.5,47.9z"/>
<path class="st4" d="M6.7,47.2c1,0.3,2.8,0.7,4.2,1.1c1.1,2.4,4,8.7,4.5,11.2c0.8,3.5,0.8,13.9,0.8,13.9l-2.6,0
	c0,0-1.8-11.8-2.1-12.6c-1.3-3.3-3.6-5.6-4.5-7.2c-2.2-3.8-2.4-5.6-2.7-7C5,46.9,5.9,47,6.7,47.2z"/>
<path class="st7" d="M13.1,38.3c0.6-1.1,0.1-1.9,1.3-1.5c2,0.6,3.9,4.9,5,5.2c1.6,0.4,7.4-1.6,7.4-1.6l0.6,1.5c0,0-7.7,3.4-9,3.1
	c-1.3-0.3-4.6-3.9-5.4-5.1C12.8,39.3,12.9,38.8,13.1,38.3z"/>
<path class="st2" d="M13.1,38.3c0.6-1.1,0.1-1.9,1.3-1.5c2,0.6,3.9,4.9,5,5.2c1.6,0.4,7.4-1.6,7.4-1.6l0.6,1.5c0,0-7.7,3.4-9,3.1
	c-1.3-0.3-4.6-3.9-5.4-5.1C12.8,39.3,12.9,38.8,13.1,38.3z"/>
<path class="st2" d="M12,50.1c0,0-2.4-0.1-4.7-0.9c-1.7-0.6-3.2-1.5-3.4-2.3c0,0,2.7-7,4.6-9.4c1.9-2.4,4.1-2.5,4.1-2.5
	s1.4,1.3,2.8,1.6c0,0-1.2,5.2-1.8,7.3C12.9,46,12,50.1,12,50.1z"/>
<path class="st2" d="M11.4,42.1c0-0.9-0.2-2.4,0.2-3.5c0.1,0.1,0.2,0.2,0.3,0.3c0.6,0.6,1.2,1.2,2,1.6c0.1,0,0.2,0.1,0.3,0.1
	c-0.3,1.3-0.6,2.6-0.9,3.4C12.9,46,12,50.1,12,50.1s-0.7,0-1.6-0.2C11.4,47.6,11.5,44.7,11.4,42.1z"/>
<path class="st6" d="M14.4,28.5c0,0,1.9-1.3,3-0.6c1.1,0.7,1.7,1.3,1.6,1.9c-0.1,0.5-0.5,1.9-0.5,2.5c0,0.6,0.3,1.6,0.2,1.8
	c-0.1,0.2-0.8-0.1-0.9,0c-0.1,0.1-1.3,1.4-1.6,1.4c-0.3,0-2.1-2.1-2-2.9C14.3,31.6,13.7,29.6,14.4,28.5z"/>
<path class="st0" d="M16.7,30c0.2,0.4,0.7,1.1,2.3,1.2c1.5,0.1,2.6-3-0.1-4.2c-2.7-1.2-3.1-0.3-3.7-0.3c-0.6-0.1-1.1,0-1.6,0.4
	c-0.9,0.7-1.5,1.7-0.9,3.5c0.6,1.8,1.5,2,1.5,2c0.2-0.3,0.5-0.8,0.3-1.2c-0.1-0.1-0.2-0.2-0.3-0.5c-0.2-0.4,0.4-1,0.9-0.6
	c0.3,0.2,0.1,0.8,0.2,1.1c0.1,0.3,0.2,0.3,0.3,0.3c0.2,0,0.7-0.5,0.6-1.3C16.3,29.9,16.6,29.6,16.7,30z"/>
<path class="st6" d="M24,50.3c0.1,0,0.2,0.1,0.3,0.1c0.2,0.1,0.5,0.2,0.6,0.2c0.3,0,0.8,0,1.1,0.1c0.2,0.1,1.1,0.7,0.7,1.1
	c-0.1,0-0.2,0.1-0.2,0.1c-0.1-0.1-0.3-0.3-0.3-0.3s0.2,0.2,0.2,0.2c0,0,0.1,0.1,0.1,0.2c0,0.1-0.1,0.3-0.2,0.3
	c-0.1,0-0.1-0.1-0.2-0.2c0,0,0,0,0,0c0,0.1,0.2,0.2,0,0.4c-0.2,0.2-0.2,0-0.3,0c0,0-0.1-0.1-0.1-0.1c0,0,0.1,0.2,0.2,0.2
	c0.1,0.1-0.3,0.3-0.4,0.2c-0.1-0.1-0.3-0.3-0.4-0.3c-0.1,0-0.2,0-0.2-0.1c-0.2-0.1-0.5-0.2-0.6-0.4c-0.1-0.1-0.2-0.2-0.3-0.3
	c-0.2-0.2-0.2-0.3-0.3-0.4C23.8,50.8,23.9,50.6,24,50.3z"/>
<path class="st2" d="M23.6,51.7l1.2-1.6c0,0-4.4-4.2-6.1-6.3s-3.2-6.1-4.6-6.5s-2.9,0.2-2.3,2.3s4.5,5.1,5.2,6.1
	C17.8,46.6,22.8,51.1,23.6,51.7z"/>
</svg>
