<?xml version="1.0" encoding="utf-8"?><!-- Generator: Adobe Illustrator 24.3.0, SVG Export Plug-In . SVG Version: 6.00 Build 0)  -->
<svg id="Layer_1" style="enable-background:new 0 0 99.8 81.3;" version="1.1" viewBox="0 0 99.8 81.3" x="0px"
     xml:space="preserve" xmlns="http://www.w3.org/2000/svg" y="0px">
<style type="text/css">
	.st0 {
        fill: #489FC0;
    }

    .st1 {
        fill: #B2B2B2;
    }

    .st2 {
        fill: #575757;
    }

    .st3 {
        fill: #F0F0F0;
    }

    .st4 {
        fill: #B81F40;
    }

    .st5 {
        fill: #E7795D;
    }
</style>
    <path class="st0" d="M36.2,43.7L35.9,78c0,1.8-0.5,2.8-3.1,3.1c-3.2,0.4-4.1-0.1-4.6-1c-0.9-1.6-9.5-34.4-10.9-36.6
	S36.2,43.7,36.2,43.7z"/>
    <path class="st0" d="M36.2,51.1l0.1-7.4c0,0-20.3-2.4-18.9-0.2c0.3,0.5,1.7,4.7,2.7,8L36.2,51.1z"/>
    <path class="st1" d="M4.2,31.9c-1.8,0-3.4,1.2-3.8,3c-0.2,1-0.4,2.3-0.4,4c0,2,0.1,3.2,0.6,4.3c0.6,1.3,1.9,2.1,3.3,2.1
	c7,0.3,32,1.2,37.2,2.5c6.1,1.4,26.4,10.5,26.4,10.5l-3.9-45.8c0,0-18.7,15.2-30.6,17.5C23.9,31.8,10,32,4.2,31.9z"/>
    <path class="st2" d="M17,45.9c2.6,0.1,5.3,0.3,7.9,0.4c-1.7-5.4-1-11.5-0.2-15.2c-2.6,0.2-5.4,0.4-8,0.5
	C15.5,36.9,15.8,41.8,17,45.9z"/>
    <ellipse class="st3" cx="69.6" cy="34" rx="17.8" ry="30"
             transform="matrix(1 -7.899753e-03 7.899753e-03 1 -0.2662 0.551)"/>
    <ellipse class="st2" cx="71" cy="34" rx="15.2" ry="25.5"
             transform="matrix(1 -7.899753e-03 7.899753e-03 1 -0.2661 0.5616)"/>
    <path class="st4" d="M67.7,36.4c0.4-5-2.9-9.3-7.3-9.7c-1.5-0.1-2.9,0.3-4.2,1c-0.3,2-0.4,4.1-0.4,6.3c0,3.7,0.5,7.2,1.4,10.4
	c0.6,0.2,1.2,0.4,1.9,0.4C63.5,45.3,67.4,41.5,67.7,36.4z"/>
    <path class="st5" d="M41.2,18.1c-0.1-0.5-0.1-1,0.2-1.5c-0.3,0-0.6,0.1-0.6-0.1c0-0.2,0.1-0.5-0.1-0.5c-0.1,0-0.3,0.1-0.4,0.2
	c-0.3,0.2-0.6,0.2-0.9,0.2c-0.1,0.4-0.4,0.9-0.2,1.3c0.1,0.2,0.6,0.1,0.9,0.2C40.5,18.1,40.9,18.1,41.2,18.1z"/>
    <path class="st4" d="M33.9,1.9c0,0-2.2-0.1-5.2,1.3l1.4,6.1c0,0,1.4-0.9,3.4-0.7L33.9,1.9z"/>
    <path class="st4" d="M32.5,5.1c0-1,0.1-2,0.1-3c0.8-0.1,1.4-0.2,1.4-0.2l-0.4,6.6c-0.6-0.9-0.8-0.7-1-0.8C32.6,6.9,32.4,6,32.5,5.1z
	"/>
    <path class="st4" d="M46,2.3c0,0-7.9-3.1-13.1-2l-0.3,7.5c0,0,4.6-1,10.9,1.8L46,2.3z"/>
    <rect class="st2" height="0.7" transform="matrix(0.3283 -0.9446 0.9446 0.3283 18.1934 47.976)" width="18.9" x="33.4"
          y="10.9"/>
    <path class="st0" d="M39.9,18.2V16c0,0-6.4,0-9.1-0.7s-6.3-3.9-7.7-3.4s-2.3,2-0.6,3.4s6,2.6,7.8,2.9C31.6,18.3,38.9,18.2,39.9,18.2
	z"/>
    <path class="st0" d="M29.2,16.8c-2.3-0.9-4.4-3-6.2-4.9c-1.4,0.5-2.2,2-0.4,3.3c1.8,1.4,6,2.6,7.8,2.9c0.6,0.1,2.7,0.1,4.7,0.1
	C33.1,18,31.1,17.6,29.2,16.8z"/>
    <path class="st2" d="M29.1,42.9c0,0-1.2,2-1.1,2.5s4.5,3,5.1,2.8s0.7-0.9-0.1-1.6c-0.7-0.6-1.4-0.8-1.8-1.4c-0.4-0.5,0-1.9,0-1.9
	L29.1,42.9z"/>
    <path class="st4" d="M21.9,25.9c0,0,0.9,0.7,1.8,0.6c0.9-0.1,9.8,0.8,10.7,1.6c0.9,0.8-2.8,15.8-2.8,15.8l-3.1-0.5
	c0,0,1.1-11,0.9-11.1s-4.9-0.1-12.9-0.1c-1.9,0-4.1-4.1-1.7-7L21.9,25.9z"/>
    <path class="st5" d="M23.2,9c-0.3-0.1-0.6-0.3-0.8-0.5c-0.1,0.9-0.5,2.6-1.4,3.5c0,0,1.9,0.8,3.5,0.4c0,0-0.2-2.2,0.1-3.2
	C24.2,9.3,23.7,9.2,23.2,9z"/>
    <path class="st5" d="M22.3,11.7c0.3-0.9,1.3-1.5,2.2-1.6c0-0.3,0.1-0.6,0.2-0.9c-0.5,0-1,0-1.4-0.2c-0.3-0.1-0.6-0.3-0.8-0.5
	c-0.1,0.9-0.5,2.6-1.4,3.5c0,0,0.5,0.2,1.1,0.4C22.2,12.1,22.2,11.9,22.3,11.7z"/>
    <path class="st5" d="M22.7,3.8c0,0,2.3-0.7,3-0.3C26.4,4,27,5.4,26.9,6.2c-0.1,0.8,0.8,1.8,0.9,2.1c0,0.2-0.7,0.4-0.7,0.5
	c0,0.1-0.1,1.6-1.1,1.9c-1.4,0.4-3.3-0.8-3.9-1.6C21.3,8.2,20.5,4.3,22.7,3.8z"/>
    <path class="st2" d="M27,3.9c-0.1-0.1-0.4-0.3-0.5-0.5c-0.1-0.1-0.1-0.3-0.2-0.4c-0.3-0.4-0.3-0.6-1.4-1c-0.9-0.3-2.1,0-2.8,0.6
	c-0.3,0.2-0.5,0.5-0.7,0.8c0,0.1-0.2,0.3-0.2,0.4c0,0.1,0.4,0.2,0.5,0.3c0.2,0.1,0.3,0.3,0.5,0.4c1,0.8,2.7,1.8,3.8,0.6
	c0.2-0.2,0.3-0.3,0.4-0.5c0.2,0.5,0.4,1,0.3,1.5c0,0,0.4-0.3,0.5-0.7C27.5,4.7,27.2,4.2,27,3.9z"/>
    <path class="st2" d="M22.1,3.8c-0.3-0.1-0.8-0.1-1.1,0c-0.6,0.1-0.9,0.6-1,1.2c-0.1,0.4-0.1,0.7-0.1,1.1c0,0.6,0,1,0.3,1.6
	c0.2,0.6,0.5,1.1,1,1.5c0.4,0.4,1.2,0.8,1.6,0.6c0.2-0.1,0.4-1.2,0.3-1.5c0-0.3-0.2-0.3-0.4-0.4c-0.4-0.2-0.8-0.6-0.5-1.1
	c0.4-0.6,1.1-0.3,1.3,0.5c0,0,0.3,0.5,0.4,0.4S24.8,5.3,22.1,3.8z"/>
    <path class="st5"
          d="M22.4,7c0,0,0.4-0.2,0.7,0.2C23.4,7.5,23.2,8,23,7.8c-0.3-0.2-0.2-0.4-0.2-0.5C22.7,7.1,22.5,7,22.4,7z"/>
    <path class="st0" d="M13.8,25c0,0,3.2,2.5,9.9,1.4c0,0,0-1.9,0.5-3.8c0.6-1.9,1.4-5.5,1.4-7.5c0-2.2-1.2-3.2-1.2-3.2
	s-1.3,1.2-3.1-0.4c0,0-3.6,0.8-5.2,4.9S13.8,25,13.8,25z"/>
    <path class="st0" d="M21.8,14.7c-1.7,1.9-0.1,6.5,2.1,9c0.1-0.4,0.2-0.8,0.3-1.2c0.3-1,0.7-2.5,1-3.9c-0.6-0.4-1.1-0.9-1.4-1.7
	C23.1,15.4,22.7,14.3,21.8,14.7z"/>
    <path class="st5" d="M35.8,27.6c0.3,0.2,0.5,0.4,0.8,0.4c0.1,0,0.3,0,0.4,0.1c0.1,0.1,0.3,0.1,0.5,0.2c0.1,0,0.3,0.1,0.4,0.2
	c0.1,0.2-0.1,0.2-0.3,0.2c-0.2,0-0.7-0.3-0.8-0.2c-0.1,0.1,0.5,0.5,0.6,0.6c0.3,0.2,0.5,0,0.8,0c0.2,0,0.3,0.1,0.1,0.2
	c-0.1,0.1-0.3,0.1-0.4,0.1c-0.3,0-0.6,0-0.9-0.1c0.2,0.1,0.6,0.2,0.8,0.2c0.2,0,0.9-0.1,0.9,0.2c0,0.5-1.5,0.2-1.8,0
	c0.2,0.2,0.5,0.2,0.8,0.3c0.2,0,0.6,0.1,0.3,0.3c-0.3,0.3-1.1-0.2-1.5-0.4c0.2,0.2,0.4,0.3,0.7,0.4c0.3,0.2,0.1,0.3-0.3,0.2
	c-0.1,0-0.4-0.2-0.5-0.2c-0.6-0.4-0.9-0.7-1.2-1.3c-0.1-0.2-0.6-0.5-0.5-0.7C35,28,35.6,27.8,35.8,27.6z"/>
    <path class="st0" d="M36.3,27.3L35,29c0,0-8.3-3.6-9-4.5c-0.7-1-3.2-4.4-3.6-5.4c-0.9-2.1-2-4.7,0-5.2c1.1-0.2,1.8,0,2.5,1.6
	c0.9,2.2,2.9,5.6,3.6,6.6C28.8,22.7,36.3,27.3,36.3,27.3z"/>
    <path class="st5" d="M42.2,16.6c0.1,0.2-0.2,1-0.5,1.3c-0.2,0.3-0.5,0.2-0.8,0.1c-0.3-0.2-0.6-0.2-0.6-0.4c-0.1-0.6,0.5-0.1,0.7-0.1
	c0,0-0.7-0.3-0.7-0.6c0-0.5,0.8,0.1,1.1,0.2c-0.2-0.1-0.6-0.3-0.6-0.4c-0.2-0.1-0.1-0.3,0-0.3c0.2-0.2,0.9,0.3,0.9,0.3
	c-0.1-0.1-0.6-0.3-0.4-0.5c0.1-0.2,0.3,0,0.5,0C41.9,16.3,42.1,16.5,42.2,16.6z"/>
    <path class="st5" d="M40.6,16.6c0.1,0,0.2,0,0.2-0.1c0,0,0,0,0,0c0-0.2,0.8-0.3,1-0.3c0.5-0.3,0.3-0.6,0.1-0.5
	c-0.2,0.1-0.5,0.2-0.7,0.2c-0.1,0.1-0.4,0-0.5,0.1c-0.1,0-0.5,0.4-0.7,0.5C39.7,16.6,40.3,16.7,40.6,16.6z"/>
    <ellipse class="st1" cx="94.9" cy="24.1" rx="4" ry="0.9"
             transform="matrix(0.9386 -0.3449 0.3449 0.9386 -2.4908 34.1956)"/>
    <ellipse class="st1" cx="91.2" cy="14.9" rx="4" ry="0.9"
             transform="matrix(0.9176 -0.3975 0.3975 0.9176 1.5735 37.4652)"/>
    <ellipse class="st1" cx="93.8" cy="46.6" rx="0.9" ry="4"
             transform="matrix(0.2961 -0.9552 0.9552 0.2961 21.5671 122.3769)"/>
    <ellipse class="st1" cx="90.1" cy="56.4" rx="0.9" ry="4"
             transform="matrix(0.3734 -0.9277 0.9277 0.3734 4.1287 118.8874)"/>
    <ellipse class="st1" cx="95.8" cy="35.1" rx="0.9" ry="4"
             transform="matrix(5.189753e-02 -0.9987 0.9987 5.189753e-02 55.7142 128.9608)"/>
</svg>
