<?xml version="1.0" encoding="utf-8"?>
<!-- Generator: Adobe Illustrator 16.0.3, SVG Export Plug-In . SVG Version: 6.00 Build 0)  -->
<!DOCTYPE svg PUBLIC "-//W3C//DTD SVG 1.1//EN" "http://www.w3.org/Graphics/SVG/1.1/DTD/svg11.dtd">
<svg version="1.1" id="Layer_1" xmlns="http://www.w3.org/2000/svg" xmlns:xlink="http://www.w3.org/1999/xlink" x="0px" y="0px"
	 width="92.609px" height="81.361px" viewBox="0 0 92.609 81.361" enable-background="new 0 0 92.609 81.361" xml:space="preserve">
<g>
	<g>
		<g>
			<rect x="13.735" y="58.106" fill="#170F38" width="65.14" height="9.564"/>
			<path fill="#170F38" d="M81.061,64.647H11.549c-2.206,0-3.994-1.788-3.994-3.994V16.69c0-2.207,1.788-3.995,3.994-3.995h69.512
				c2.206,0,3.995,1.789,3.995,3.995v43.962C85.056,62.859,83.267,64.647,81.061,64.647z"/>
			<rect x="11.123" y="16.137" fill="#FFFFFF" width="70.364" height="44.53"/>
			<g>
				<g>
					<path fill="#170F38" d="M0,78.518v1.42c0,0.785,0.855,1.423,1.911,1.423h88.788c1.055,0,1.91-0.638,1.91-1.423v-1.42H0z"/>
					<path fill="#170F38" d="M46.305,67.561H8.294c-0.129,0.137-6.104,5.485-7.93,9.459c-0.78,1.699-0.271,2.593,1.183,2.593h44.758
						h44.758c1.453,0,1.963-0.894,1.183-2.593c-1.825-3.974-7.801-9.322-7.93-9.459H46.305z"/>
					<polygon fill="#9C9EB9" points="87.8,77.581 6.808,77.581 12.42,69.272 82.188,69.272 					"/>
					<g>
						<g>
							<g>
								<g>
									<path fill="#D1D2DF" d="M86.814,76.122l-0.176-0.26h-5.404l-1.007-2.016h5.05l-0.176-0.26h-5.003l-1.007-2.016h4.648
										l-0.175-0.26h-4.604l-1.019-2.039h-0.467l1.002,2.039h-5.785l-0.812-2.039h-0.467l0.795,2.039h-5.786l-0.604-2.039h-0.468
										l0.589,2.039h-5.786l-0.397-2.039h-0.467l0.381,2.039h-5.786l-0.189-2.039h-0.467l0.174,2.039h-5.492v-2.039h-0.515v2.039
										h-5.692l0.174-2.039h-0.467l-0.189,2.039h-5.786l0.381-2.039H35.35l-0.397,2.039h-5.786l0.588-2.039h-0.467l-0.604,2.039
										h-5.786l0.795-2.039h-0.467l-0.812,2.039h-5.785l1.002-2.039h-0.467l-1.019,2.039h-5.104l-0.176,0.26h5.149l-1.007,2.016
										H9.505l-0.176,0.26h5.55l-1.006,2.016H7.968l-0.176,0.26h5.951l-0.729,1.459h0.532l0.717-1.459h6.237l-0.58,1.459h0.532
										l0.568-1.459h6.237l-0.432,1.459h0.532l0.42-1.459h6.237l-0.284,1.459h0.532l0.272-1.459h6.237l-0.136,1.459h0.532
										l0.124-1.459h6.102v1.459h0.515v-1.459h5.901l0.124,1.459h0.532l-0.136-1.459h6.237l0.272,1.459h0.532l-0.284-1.459h6.237
										l0.42,1.459h0.532l-0.432-1.459h6.237l0.568,1.459h0.532l-0.58-1.459h6.237l0.717,1.459h0.532l-0.729-1.459H86.814z
										 M22.796,71.571h5.811l-0.597,2.016h-6L22.796,71.571z M16.501,71.571h5.81l-0.801,2.016h-6L16.501,71.571z M20.604,75.862
										h-6.213l0.99-2.016h6.024L20.604,75.862z M27.336,75.862h-6.213l0.786-2.016h6.023L27.336,75.862z M34.067,75.862h-6.213
										l0.581-2.016h6.023L34.067,75.862z M34.51,73.586h-5.999l0.581-2.016h5.811L34.51,73.586z M40.799,75.862h-6.213
										l0.376-2.016h6.023L40.799,75.862z M41.01,73.586h-5.999l0.376-2.016h5.811L41.01,73.586z M47.396,75.862h-6.079
										l0.171-2.016h5.908V75.862z M47.396,73.586h-5.886l0.172-2.016h5.714V73.586z M47.911,71.571h5.514l0.172,2.016h-5.686
										V71.571z M47.911,75.862v-2.016h5.708l0.171,2.016H47.911z M78.606,71.571l0.991,2.016h-6l-0.802-2.016H78.606z
										 M72.312,71.571l0.785,2.016h-5.999l-0.597-2.016H72.312z M53.91,71.571h5.811l0.376,2.016h-5.999L53.91,71.571z
										 M54.31,75.862l-0.188-2.016h6.023l0.376,2.016H54.31z M60.205,71.571h5.811l0.581,2.016h-5.999L60.205,71.571z
										 M61.04,75.862l-0.392-2.016h6.023l0.581,2.016H61.04z M67.771,75.862l-0.597-2.016h6.023l0.786,2.016H67.771z
										 M74.503,75.862l-0.802-2.016h6.023l0.991,2.016H74.503z"/>
								</g>
							</g>
						</g>
					</g>
				</g>
				<path fill="#170F38" d="M46.305,79.613h-3.934c0.002,0.01-0.01,0.347,0.196,0.544c0.077,0.074,0.187,0.111,0.298,0.111h3.439
					h3.439c0.112,0,0.221-0.037,0.298-0.111c0.206-0.197,0.194-0.534,0.196-0.544H46.305z"/>
			</g>
		</g>
		<rect x="11.123" y="16.141" fill="#FFFFFF" width="70.358" height="44.526"/>
		<polygon fill="#2BC2DD" points="47.608,38.855 41.26,41.678 33.229,33.648 11.123,50.495 11.123,60.667 81.481,60.667 
			81.481,8.345 52.085,43.919 		"/>
		<g>
			<rect x="24.997" y="47.077" fill="#FFFFFF" width="2.246" height="1.702"/>
			<rect x="28.164" y="47.077" fill="#FFFFFF" width="2.245" height="1.702"/>
			<rect x="31.33" y="47.077" fill="#EF4661" width="2.246" height="1.702"/>
			<rect x="34.497" y="47.077" fill="#FFFFFF" width="2.245" height="1.702"/>
			<rect x="37.663" y="47.077" fill="#FFFFFF" width="2.246" height="1.702"/>
			<rect x="40.83" y="47.077" fill="#EF4661" width="2.246" height="1.702"/>
			<rect x="24.997" y="49.983" fill="#FFFFFF" width="2.246" height="1.703"/>
			<rect x="28.164" y="49.983" fill="#FFFFFF" width="2.245" height="1.703"/>
			<rect x="31.33" y="49.983" fill="#FFFFFF" width="2.246" height="1.703"/>
			<rect x="34.497" y="49.983" fill="#FFFFFF" width="2.245" height="1.703"/>
			<rect x="37.663" y="49.983" fill="#EF4661" width="2.246" height="1.703"/>
			<rect x="40.83" y="49.983" fill="#FFFFFF" width="2.246" height="1.703"/>
			<rect x="24.997" y="52.89" fill="#FFFFFF" width="2.246" height="1.702"/>
			<rect x="28.164" y="52.89" fill="#EF4661" width="2.245" height="1.702"/>
			<rect x="31.33" y="52.89" fill="#FFFFFF" width="2.246" height="1.702"/>
			<rect x="34.497" y="52.89" fill="#FFFFFF" width="2.245" height="1.702"/>
			<rect x="37.663" y="52.89" fill="#FFFFFF" width="2.246" height="1.702"/>
			<rect x="40.83" y="52.89" fill="#FFFFFF" width="2.246" height="1.702"/>
			<rect x="24.997" y="55.797" fill="#FFFFFF" width="2.246" height="1.702"/>
			<rect x="28.164" y="55.797" fill="#FFFFFF" width="2.245" height="1.702"/>
			<rect x="31.33" y="55.797" fill="#EF4661" width="2.246" height="1.702"/>
			<rect x="34.497" y="55.797" fill="#FFFFFF" width="2.245" height="1.702"/>
		</g>
		<g>
			<g>
				<polygon fill="#FFFFFF" points="48.368,42.26 48.144,42.037 47.857,42.157 47.678,41.716 48.237,41.48 48.683,41.92 				"/>
			</g>
			<g>
				<path fill="#FFFFFF" d="M43.252,44.094l-0.181-0.443l0.771-0.323l0.181,0.442L43.252,44.094z M44.791,43.446l-0.18-0.441
					l0.768-0.322l0.181,0.441L44.791,43.446z M46.326,42.8l-0.181-0.441l0.767-0.322l0.181,0.441L46.326,42.8z"/>
			</g>
			<g>
				<polygon fill="#FFFFFF" points="41.924,44.653 41.458,44.246 41.755,43.883 42.003,44.1 42.301,43.975 42.481,44.418 				"/>
			</g>
			<g>
				<path fill="#FFFFFF" d="M40.777,43.651l-0.681-0.594l0.297-0.362l0.681,0.595L40.777,43.651z M39.415,42.461l-0.681-0.594
					l0.298-0.361l0.681,0.594L39.415,42.461z M38.052,41.272l-0.681-0.595l0.299-0.361l0.681,0.594L38.052,41.272z M36.689,40.083
					l-0.681-0.595l0.299-0.361l0.682,0.595L36.689,40.083z M35.327,38.894l-0.682-0.595l0.3-0.36l0.682,0.595L35.327,38.894z"/>
			</g>
			<g>
				<polygon fill="#FFFFFF" points="33.964,37.703 33.745,37.511 33.508,37.677 33.24,37.282 33.771,36.911 34.265,37.343 				"/>
			</g>
			<g>
				<path fill="#FFFFFF" d="M12.708,52.288l-0.273-0.404l0.817-0.574l0.274,0.404L12.708,52.288z M14.343,51.139l-0.273-0.402
					l0.815-0.572l0.272,0.402L14.343,51.139z M15.972,49.995l-0.273-0.402l0.813-0.57l0.272,0.402L15.972,49.995z M17.595,48.855
					l-0.272-0.401l0.81-0.568l0.272,0.401L17.595,48.855z M19.212,47.719l-0.272-0.4l0.808-0.566l0.271,0.4L19.212,47.719z
					 M20.823,46.586l-0.271-0.399l0.804-0.563l0.271,0.399L20.823,46.586z M22.429,45.459l-0.271-0.399l0.801-0.562l0.271,0.398
					L22.429,45.459z M24.029,44.335l-0.271-0.398l0.798-0.56l0.271,0.398L24.029,44.335z M25.623,43.215l-0.271-0.396l0.795-0.559
					l0.271,0.396L25.623,43.215z M27.212,42.1l-0.271-0.396l0.792-0.556l0.271,0.396L27.212,42.1z M28.795,40.988l-0.271-0.396
					l0.789-0.554l0.271,0.396L28.795,40.988z M30.371,39.88l-0.269-0.395l0.787-0.552l0.269,0.395L30.371,39.88z M31.943,38.776
					l-0.27-0.395l0.783-0.55l0.271,0.394L31.943,38.776z"/>
			</g>
			<g>
				<path fill="#FFFFFF" d="M53.831,45.362l-0.345-0.32l0.604-0.703l0.345,0.321L53.831,45.362z M55.037,43.958l-0.346-0.32
					l0.602-0.699l0.345,0.32L55.037,43.958z M56.237,42.559l-0.344-0.32l0.6-0.698l0.343,0.32L56.237,42.559z M57.435,41.165
					l-0.344-0.32l0.597-0.695l0.344,0.319L57.435,41.165z M58.627,39.775l-0.343-0.319l0.595-0.693l0.343,0.319L58.627,39.775z
					 M59.815,38.39l-0.343-0.318l0.594-0.69l0.342,0.318L59.815,38.39z M61,37.011l-0.342-0.318l0.591-0.688l0.341,0.318L61,37.011z
					 M62.18,35.636l-0.341-0.317l0.589-0.686l0.341,0.316L62.18,35.636z M63.355,34.265l-0.341-0.316l0.587-0.683l0.341,0.316
					L63.355,34.265z M64.527,32.9l-0.34-0.315l0.585-0.681l0.34,0.315L64.527,32.9z M65.695,31.54l-0.339-0.315l0.582-0.678
					l0.339,0.314L65.695,31.54z M66.859,30.183l-0.339-0.314l0.581-0.676l0.338,0.314L66.859,30.183z M68.019,28.832l-0.338-0.314
					l0.579-0.674l0.338,0.313L68.019,28.832z M69.175,27.485l-0.338-0.313l0.577-0.672l0.337,0.313L69.175,27.485z M70.327,26.144
					L69.99,25.83l0.575-0.668l0.336,0.313L70.327,26.144z M71.475,24.807l-0.336-0.313l0.573-0.666l0.336,0.313L71.475,24.807z
					 M72.619,23.474l-0.336-0.313l0.571-0.664l0.335,0.313L72.619,23.474z M73.759,22.146l-0.335-0.312l0.568-0.662l0.335,0.312
					L73.759,22.146z M74.895,20.822l-0.334-0.312l0.566-0.66l0.335,0.312L74.895,20.822z M76.027,19.503l-0.334-0.311l0.564-0.658
					l0.334,0.311L76.027,19.503z M77.155,18.188l-0.333-0.311l0.563-0.655l0.333,0.31L77.155,18.188z M78.28,16.878l-0.333-0.31
					l0.561-0.653l0.333,0.31L78.28,16.878z M79.327,15.637l-0.333-0.31l0.562-0.653l0.332,0.31L79.327,15.637z M80.374,14.396
					l-0.332-0.31l0.561-0.653l0.333,0.31L80.374,14.396z"/>
			</g>
			<g>
				<polygon fill="#FFFFFF" points="52.77,46.598 52.26,46.096 52.572,45.754 52.735,45.915 52.881,45.745 53.227,46.066 				"/>
			</g>
			<g>
				<path fill="#FFFFFF" d="M51.481,45.329l-0.778-0.768l0.313-0.34l0.777,0.766L51.481,45.329z M49.925,43.794l-0.778-0.767
					l0.314-0.341l0.777,0.767L49.925,43.794z"/>
			</g>
		</g>
		<g>
			<g>
				<path fill="#EF4661" d="M79.612,3.148L52.185,37.915l-4.438-5.356l-6.496,3.082l-8.252-8.805L11.123,44.622v2.137L32.918,29.04
					l8.13,8.674l6.458-3.063l4.696,5.669L80.665,4.238C80.294,3.892,79.931,3.535,79.612,3.148z"/>
			</g>
			<polygon fill="#EF4661" points="83.861,0 77.39,2.191 81.67,6.472 			"/>
		</g>
		<g>
			<path fill="#EF4661" d="M19.589,21.81c1.463,0.11,2.797,0.734,2.806,2.196l-2.438,0.014c-0.016-0.552-0.583-0.667-0.938-0.666
				c-0.225,0.001-0.948,0.006-0.946,0.453c0.006,1.001,4.491-0.065,4.509,2.766c0.01,1.699-1.316,2.339-2.949,2.467l0.116,1.805
				l-1.488,0.009l0.081-1.819c-1.516-0.149-2.93-0.852-2.938-2.38l2.437-0.014l0.001,0.052c0.017,0.672,0.769,0.799,1.15,0.797
				c0.369-0.002,1.094-0.032,1.09-0.52c-0.006-1.041-4.491-0.065-4.508-2.805c-0.009-1.581,1.212-2.194,2.727-2.334l-0.104-1.817
				l1.488-0.009L19.589,21.81z"/>
		</g>
	</g>
	<g>
		<path fill="#170F38" d="M56.761,70.801c0,0,0.102,1.98-0.187,2.275s-4.211,0.723-4.578,0.389s-0.216-0.957,0.609-1.258
			c0.886-0.322,1.349-0.111,1.896-0.393c0.549-0.28,0.328-1.162,0.328-1.162L56.761,70.801z"/>
		<path fill="#170F38" d="M69.622,70.801c0,0-0.102,1.98,0.187,2.275s4.211,0.723,4.578,0.389c0.366-0.334,0.216-0.957-0.61-1.258
			c-0.885-0.322-1.348-0.111-1.896-0.393c-0.548-0.28-0.327-1.162-0.327-1.162L69.622,70.801z"/>
		<path fill="#EF4661" d="M69.837,59.343c-0.429-2.157-2.727-8.048-3.578-10.091c-0.343-0.115-0.718-0.229-1.098-0.34
			c0.1-0.46,0.166-0.855,0.24-1.201c-0.667,0.176-1.376,0.262-2.093,0.488c-0.098,0.031-0.206,0.064-0.319,0.098
			c-0.114-0.033-0.223-0.066-0.319-0.098c-0.718-0.227-1.426-0.313-2.093-0.488c0.073,0.346,0.141,0.741,0.24,1.201
			c-0.38,0.11-0.755,0.225-1.098,0.34c-0.852,2.043-3.15,7.934-3.578,10.091c-0.593,2.985-1.583,11.837-1.583,11.837l2.524,0.332
			c0,0,2.535-11.891,2.897-12.55c0.649-1.182,1.331-2.228,1.938-3.153c0.507-0.771,1.634-0.771,2.141,0
			c0.607,0.926,1.289,1.972,1.938,3.153c0.362,0.659,2.897,12.55,2.897,12.55l2.523-0.332C71.419,71.18,70.429,62.329,69.837,59.343
			z"/>
		<path fill="#F58668" d="M70.532,22.545c-0.149-1.025-0.302-1.183-0.646-1.384c-0.161-0.095-0.321-0.177-0.433-0.326
			c-0.114-0.153-0.303-0.288-0.461-0.419c-0.148-0.123-0.344-0.252-0.411-0.458c-0.079-0.246,0.243-0.178,0.451-0.103
			c0.227,0.083,0.651,0.706,0.893,0.62c0.24-0.086-0.325-0.813-0.439-0.956c-0.271-0.337-0.591-0.292-0.951-0.448
			c-0.21-0.091-0.278-0.196-0.051-0.332c0.169-0.101,0.385-0.018,0.556,0.04c0.348,0.117,0.718,0.324,0.97,0.603
			c-0.171-0.24-0.582-0.521-0.846-0.655c-0.182-0.093-1.026-0.352-0.905-0.65c0.242-0.6,1.884,0.531,2.063,0.848
			c-0.211-0.299-0.512-0.502-0.809-0.714c-0.174-0.124-0.598-0.399-0.242-0.542c0.524-0.211,1.159,0.763,1.521,1.147
			c-0.149-0.328-0.366-0.526-0.61-0.824c-0.29-0.352,0.069-0.442,0.428-0.133c0.151,0.13,0.407,0.438,0.462,0.507
			c0.572,0.722,0.594,1.206,0.695,2.086c0.036,0.316,0.045,0.832,0.148,1.753C71.973,22.733,70.975,22.46,70.532,22.545z"/>
		<path fill="#F58668" d="M45.97,36.866c-0.97-0.364-1.09-0.753-1.212-1.133c-0.058-0.178-0.104-0.352-0.226-0.492
			c-0.125-0.145-0.217-0.357-0.312-0.54c-0.089-0.171-0.173-0.39-0.359-0.5c-0.224-0.13-0.227,0.199-0.197,0.419
			c0.032,0.239,0.551,0.787,0.415,1.004c-0.136,0.216-0.725-0.491-0.84-0.633c-0.272-0.336-0.159-0.64-0.234-1.024
			c-0.044-0.225-0.132-0.314-0.313-0.122c-0.135,0.144-0.099,0.372-0.08,0.551c0.04,0.365,0.164,0.771,0.382,1.076
			c-0.198-0.217-0.384-0.68-0.459-0.966c-0.052-0.197-0.125-1.078-0.442-1.023c-0.638,0.108,0.116,1.954,0.388,2.196
			c-0.247-0.27-0.382-0.608-0.524-0.943c-0.084-0.196-0.263-0.669-0.479-0.352c-0.318,0.467,0.497,1.295,0.796,1.73
			c-0.288-0.216-0.437-0.471-0.675-0.773c-0.281-0.358-0.446-0.026-0.222,0.39c0.095,0.175,0.342,0.492,0.396,0.559
			c0.583,0.713,1.052,0.838,1.89,1.125c0.302,0.103,0.62,0.128,1.614,0.61C45.756,38.259,45.791,37.281,45.97,36.866z"/>
		<path fill="#F58668" d="M64.233,34.947c-0.55,0.108-1.127,0.125-1.653,0.08c-0.192-0.016-0.39-0.059-0.579-0.124
			c0.024,0.688,0.024,2.284-0.46,2.938c0,0,0.172,0.77,1.577,0.79c1.407,0.021,1.579-0.79,1.579-0.79S64.182,36.693,64.233,34.947z"
			/>
		<path fill="#E5E6EC" d="M69.641,38.835c-0.383-0.489-2.2-1.565-3.432-1.76c-1.995-0.316-4.04-0.316-6.036,0
			c-1.23,0.195-2.454,0.506-2.837,0.996c-0.48,0.612,0.955,4.049,1.194,7.202c0.198,2.613,0.555,4.634,0.555,4.634
			c0.788,1.448,6.953,1.487,7.741,0.04c0,0,0.148-2.234,0.576-4.674C67.959,42.095,70.126,39.455,69.641,38.835z"/>
		<path fill="#ACAEC5" d="M59.738,44.545c0.039-0.849,0.32-2.368,0.007-3.146c-0.446-1.112-1.456-1.528-2.39-2.036
			c0.279,1.422,1.01,3.723,1.175,5.909c0.198,2.613,0.555,4.634,0.555,4.634c0.146,0.267,0.487,0.481,0.934,0.651
			C59.142,48.879,59.66,46.199,59.738,44.545z"/>
		<path fill="#F58668" d="M66.126,31.119c0,0-2.912-1.714-3.354-1.292c-0.441,0.421-1.132,1.854-1.467,2.073
			c-0.336,0.218-0.858,0.426-0.812,0.684c0.046,0.257,0.216,0.275,0.202,0.535s-0.604,1.501-0.281,1.869s2.438,1.175,3.71,0.329
			C65.396,34.471,67.561,31.886,66.126,31.119z"/>
		<path fill="#170F38" d="M66.769,31.749l-2.453,0.039c0,0-0.463,1.213-1.509,1.993c0,0,0.059,0.361,0.32,0.288
			c0.263-0.074,0.425-0.104,0.601-0.38c0.176-0.275,0.705-0.99,1.065-0.362c0.359,0.628-0.41,0.843-0.733,0.837
			c0,0-1.116,1.354-0.248,1.608c0,0,0.97-0.144,2.445-1.71S67.43,31.626,66.769,31.749z"/>
		<path fill="#170F38" d="M62.128,28.881c0,0-1.192,0.724,0.188,2.175c1.38,1.451,4.631,0.687,4.631,0.687s0.346-0.946-0.829-1.938
			c-0.878-0.741-1.841-1.119-2.614-0.764C62.188,29.645,62.128,28.881,62.128,28.881z"/>
		<path fill="#E5E6EC" d="M45.649,36.401l-1.043,1.661c0,0,2.685,2.576,5.769,4.622c1.796,1.19,7.946-0.714,8.896-1
			c1.357-0.407,2.378-3.28,0.113-4.348c-1.327-0.625-6.649,3.419-7.953,2.734C49.798,39.212,45.649,36.401,45.649,36.401z"/>
		<path fill="#E5E6EC" d="M70.081,22.115l2.07-0.346c0,0,1.367,5.979,1.285,8.132c-0.081,2.153-3.505,9.978-4.285,10.59
			c-0.939,0.735-3.542-1.389-1.655-3.679c1.888-2.29,3.109-7.007,3.159-7.2C70.706,29.42,70.081,22.115,70.081,22.115z"/>
	</g>
	<rect x="27.27" y="18.704" fill="#D1D2DF" width="16.7" height="1.502"/>
	<rect x="27.27" y="21.078" fill="#D1D2DF" width="16.7" height="1.502"/>
	<rect x="27.27" y="23.451" fill="#D1D2DF" width="12.64" height="1.502"/>
</g>
</svg>
