<?xml version="1.0" encoding="utf-8"?>
<!-- Generator: Adobe Illustrator 16.0.3, SVG Export Plug-In . SVG Version: 6.00 Build 0)  -->
<!DOCTYPE svg PUBLIC "-//W3C//DTD SVG 1.1//EN" "http://www.w3.org/Graphics/SVG/1.1/DTD/svg11.dtd">
<svg version="1.1" id="Layer_1" xmlns="http://www.w3.org/2000/svg" xmlns:xlink="http://www.w3.org/1999/xlink" x="0px" y="0px"
	 width="99.784px" height="81.271px" viewBox="0 0 99.784 81.271" enable-background="new 0 0 99.784 81.271" xml:space="preserve">
<g>
	<g>
		<path fill="#2BC2DD" d="M36.248,43.739l-0.331,34.256c-0.017,1.778-0.521,2.812-3.063,3.139c-3.163,0.408-4.12-0.148-4.589-1.019
			c-0.881-1.634-9.51-34.371-10.935-36.598S36.248,43.739,36.248,43.739z"/>
		<path fill="#00A7CC" d="M36.176,51.118l0.071-7.379c0,0-20.342-2.448-18.917-0.222c0.336,0.525,1.664,4.747,2.657,8.013
			L36.176,51.118z"/>
		<path fill="#D1D2DF" d="M4.214,31.945c-1.8-0.007-3.38,1.215-3.781,2.969c-0.236,1.032-0.417,2.35-0.432,3.984
			c-0.017,1.952,0.128,3.221,0.607,4.288c0.582,1.297,1.903,2.098,3.323,2.149c6.955,0.253,31.998,1.233,37.22,2.462
			c6.079,1.428,26.44,10.466,26.44,10.466L63.71,12.468c0,0-18.704,15.16-30.579,17.517C23.895,31.818,9.952,31.969,4.214,31.945z"
			/>
		<path fill="#170F38" d="M16.954,45.883c2.589,0.124,5.286,0.261,7.933,0.415c-1.662-5.366-1.005-11.5-0.156-15.159
			c-2.649,0.25-5.354,0.422-7.953,0.544C15.545,36.9,15.762,41.798,16.954,45.883z"/>
		<ellipse transform="matrix(1 -0.0079 0.0079 1 -0.2651 0.5486)" fill="#E5E6EC" cx="69.614" cy="33.979" rx="17.848" ry="29.98"/>
		
			<ellipse transform="matrix(1 -0.0079 0.0079 1 -0.2649 0.5589)" fill="#170F38" cx="70.949" cy="33.968" rx="15.183" ry="25.502"/>
		<path fill="#EF4661" d="M67.735,36.44c0.36-5.017-2.924-9.341-7.336-9.657c-1.508-0.108-2.938,0.295-4.201,1.035
			c-0.287,2.011-0.449,4.104-0.432,6.27c0.029,3.723,0.543,7.246,1.422,10.427c0.608,0.221,1.239,0.389,1.908,0.436
			C63.507,45.268,67.375,41.456,67.735,36.44z"/>
	</g>
	<g>
		<path fill="#F58668" d="M41.241,18.119c-0.058-0.529-0.099-1.023,0.193-1.532c-0.259,0.043-0.642,0.083-0.62-0.069
			c0.03-0.205,0.073-0.498-0.075-0.47c-0.145,0.026-0.26,0.111-0.386,0.194c-0.266,0.176-0.571,0.198-0.89,0.217
			c-0.105,0.351-0.403,0.891-0.212,1.268c0.099,0.195,0.621,0.104,0.854,0.192C40.486,18.063,40.919,18.098,41.241,18.119z"/>
		<g>
			<path fill="#EF4661" d="M33.912,1.948c0,0-2.206-0.124-5.191,1.288l1.391,6.057c0,0,1.428-0.864,3.391-0.745L33.912,1.948z"/>
			<path fill="#E32545" d="M32.454,5.13c0.013-1.01,0.076-2.02,0.099-3.029c0.846-0.148,1.358-0.153,1.358-0.153l-0.409,6.6
				c-0.568-0.866-0.838-0.674-0.951-0.78C32.556,6.896,32.442,5.996,32.454,5.13z"/>
			<path fill="#EF4661" d="M45.961,2.265c0,0-7.895-3.104-13.069-2.044l-0.341,7.547c0,0,4.589-1.015,10.942,1.767L45.961,2.265z"/>
			
				<rect x="42.49" y="1.732" transform="matrix(-0.9446 -0.3283 0.3283 -0.9446 79.6104 35.8342)" fill="#170F38" width="0.68" height="18.931"/>
		</g>
		<path fill="#2BC2DD" d="M39.863,18.161v-2.137c0,0-6.377,0.049-9.051-0.717s-6.257-3.912-7.683-3.403s-2.336,1.962-0.565,3.353
			s5.975,2.592,7.797,2.871C31.625,18.321,38.858,18.16,39.863,18.161z"/>
		<path fill="#00A7CC" d="M29.196,16.828c-2.252-0.937-4.379-2.974-6.192-4.873c-1.352,0.548-2.158,1.954-0.44,3.302
			c1.771,1.391,5.975,2.592,7.797,2.871c0.621,0.095,2.686,0.104,4.743,0.089C33.066,18.015,31.06,17.603,29.196,16.828z"/>
		<path fill="#170F38" d="M29.139,42.919c0,0-1.247,2.012-1.063,2.489S32.59,48.4,33.173,48.2s0.696-0.889-0.08-1.581
			c-0.697-0.622-1.377-0.799-1.845-1.405c-0.41-0.532-0.001-1.891-0.001-1.891L29.139,42.919z"/>
		<path fill="#EF4661" d="M21.86,25.855c0,0,0.868,0.71,1.782,0.591c0.915-0.119,9.836,0.808,10.75,1.563
			c0.915,0.755-2.829,15.848-2.829,15.848l-3.102-0.517c0,0,1.112-11.034,0.926-11.114s-4.87-0.062-12.857-0.062
			c-1.949,0-4.123-4.096-1.657-6.96L21.86,25.855z"/>
		<path fill="#F58668" d="M23.25,9.044c-0.31-0.131-0.579-0.319-0.835-0.526c-0.123,0.917-0.467,2.609-1.402,3.493
			c0,0,1.936,0.799,3.522,0.448c0,0-0.187-2.153,0.142-3.208C24.191,9.281,23.704,9.235,23.25,9.044z"/>
		<path fill="#E35A40" d="M22.302,11.664c0.303-0.95,1.26-1.541,2.223-1.551c0.029-0.318,0.077-0.619,0.152-0.861
			c-0.485,0.03-0.973-0.016-1.427-0.207c-0.31-0.131-0.579-0.319-0.835-0.526c-0.123,0.917-0.467,2.609-1.402,3.493
			c0,0,0.475,0.195,1.146,0.351C22.173,12.132,22.225,11.904,22.302,11.664z"/>
		<path fill="#F58668" d="M22.696,3.815c0,0,2.287-0.718,3.01-0.268c0.723,0.451,1.286,1.87,1.161,2.701
			c-0.125,0.83,0.828,1.794,0.853,2.094c0.02,0.241-0.724,0.415-0.748,0.506c-0.023,0.092-0.067,1.605-1.069,1.861
			c-1.41,0.359-3.295-0.774-3.943-1.627C21.311,8.229,20.547,4.328,22.696,3.815z"/>
		<path fill="#170F38" d="M26.956,3.912c-0.121-0.121-0.431-0.316-0.506-0.472c-0.063-0.13-0.093-0.278-0.173-0.396
			c-0.254-0.372-0.315-0.643-1.36-0.971c-0.909-0.284-2.067,0.043-2.789,0.621c-0.266,0.212-0.498,0.471-0.665,0.769
			c-0.05,0.089-0.207,0.335-0.169,0.429c0.048,0.118,0.386,0.199,0.492,0.26c0.188,0.109,0.345,0.279,0.515,0.417
			c1.043,0.848,2.675,1.755,3.824,0.579c0.151-0.155,0.301-0.321,0.431-0.495c0.21,0.465,0.366,1.003,0.316,1.519
			c0,0,0.374-0.281,0.466-0.735C27.493,4.67,27.244,4.201,26.956,3.912z"/>
		<path fill="#170F38" d="M22.12,3.841c-0.277-0.149-0.796-0.101-1.084-0.038c-0.6,0.13-0.925,0.569-1.03,1.153
			c-0.064,0.353-0.114,0.714-0.108,1.072c0.01,0.635,0.04,1.033,0.268,1.625c0.215,0.559,0.506,1.11,0.955,1.517
			c0.405,0.367,1.2,0.79,1.596,0.63c0.154-0.062,0.376-1.166,0.334-1.453c-0.04-0.276-0.175-0.279-0.392-0.402
			c-0.365-0.207-0.772-0.615-0.506-1.056c0.38-0.629,1.087-0.341,1.341,0.53c0,0,0.277,0.489,0.434,0.411S24.788,5.281,22.12,3.841z
			"/>
		<path fill="#E35A40" d="M22.409,6.979c0,0,0.386-0.163,0.678,0.178c0.272,0.318,0.144,0.832-0.125,0.639
			c-0.27-0.193-0.162-0.36-0.209-0.518C22.707,7.121,22.515,6.994,22.409,6.979z"/>
		<path fill="#2BC2DD" d="M13.772,25.018c0,0,3.23,2.505,9.928,1.39c0,0-0.018-1.923,0.544-3.804
			c0.563-1.881,1.405-5.546,1.429-7.481c0.027-2.186-1.171-3.169-1.171-3.169s-1.257,1.179-3.132-0.357c0,0-3.552,0.842-5.215,4.881
			S13.772,25.018,13.772,25.018z"/>
		<path fill="#00A7CC" d="M21.838,14.746c-1.729,1.868-0.056,6.465,2.13,9.031c0.072-0.382,0.158-0.775,0.277-1.173
			c0.296-0.991,0.668-2.476,0.959-3.943c-0.585-0.361-1.084-0.904-1.399-1.666C23.133,15.368,22.697,14.266,21.838,14.746z"/>
		<path fill="#F58668" d="M35.85,27.597c0.255,0.194,0.501,0.377,0.814,0.419c0.146,0.02,0.288,0.031,0.415,0.106
			c0.13,0.077,0.309,0.118,0.463,0.166c0.146,0.044,0.328,0.08,0.439,0.209c0.133,0.155-0.123,0.204-0.298,0.211
			c-0.19,0.009-0.689-0.317-0.839-0.181c-0.149,0.136,0.483,0.495,0.61,0.564c0.3,0.165,0.521,0.034,0.83,0.038
			c0.181,0.002,0.263,0.059,0.138,0.227c-0.092,0.125-0.275,0.129-0.417,0.14c-0.29,0.021-0.622-0.019-0.891-0.145
			c0.197,0.124,0.583,0.203,0.816,0.221c0.161,0.012,0.855-0.055,0.858,0.2c0.005,0.511-1.535,0.185-1.762,0.008
			c0.245,0.154,0.526,0.211,0.807,0.275c0.165,0.038,0.558,0.11,0.341,0.322c-0.318,0.313-1.077-0.205-1.458-0.375
			c0.208,0.193,0.427,0.273,0.696,0.416c0.317,0.169,0.083,0.344-0.272,0.227c-0.149-0.049-0.43-0.196-0.491-0.229
			c-0.637-0.353-0.875-0.68-1.216-1.291c-0.123-0.22-0.578-0.493-0.532-0.706C34.99,28.007,35.552,27.794,35.85,27.597z"/>
		<path fill="#2BC2DD" d="M36.323,27.284l-1.296,1.758c0,0-8.303-3.595-9.049-4.544c-0.747-0.951-3.187-4.428-3.569-5.354
			c-0.885-2.149-1.983-4.711,0-5.161c1.082-0.245,1.78,0.028,2.452,1.621c0.915,2.167,2.858,5.599,3.649,6.642
			C28.817,22.651,36.323,27.284,36.323,27.284z"/>
		<path fill="#F58668" d="M42.167,16.621c0.118,0.187-0.205,0.988-0.514,1.324c-0.242,0.264-0.528,0.187-0.769,0.055
			c-0.259-0.156-0.568-0.213-0.607-0.364c-0.055-0.597,0.498-0.148,0.743-0.061c0,0-0.667-0.332-0.658-0.619
			c0.026-0.538,0.847,0.083,1.078,0.187c-0.233-0.064-0.604-0.323-0.635-0.423c-0.159-0.119-0.06-0.282-0.025-0.314
			c0.178-0.167,0.877,0.336,0.877,0.336c-0.125-0.09-0.637-0.274-0.431-0.51c0.137-0.156,0.342-0.026,0.465,0.011
			C41.932,16.316,42.128,16.49,42.167,16.621z"/>
		<path fill="#F58668" d="M40.592,16.598c0.078-0.032,0.152-0.047,0.228-0.071c0-0.004-0.007-0.005-0.006-0.01
			c0.03-0.205,0.807-0.257,0.979-0.346c0.521-0.272,0.312-0.601,0.074-0.526c-0.161,0.051-0.527,0.159-0.667,0.221
			c-0.149,0.066-0.391,0.035-0.54,0.062c-0.144,0.026-0.544,0.382-0.67,0.464C39.723,16.569,40.309,16.713,40.592,16.598z"/>
	</g>
	
		<ellipse transform="matrix(0.9386 -0.3449 0.3449 0.9386 -2.4907 34.1963)" fill="#D1D2DF" cx="94.859" cy="24.098" rx="4.017" ry="0.902"/>
	
		<ellipse transform="matrix(0.9176 -0.3975 0.3975 0.9176 1.5754 37.4679)" fill="#D1D2DF" cx="91.155" cy="14.934" rx="4.017" ry="0.902"/>
	
		<ellipse transform="matrix(0.9552 0.2961 -0.2961 0.9552 17.9913 -25.689)" fill="#D1D2DF" cx="93.808" cy="46.554" rx="4.017" ry="0.902"/>
	
		<ellipse transform="matrix(0.9277 0.3734 -0.3734 0.9277 27.569 -29.5524)" fill="#D1D2DF" cx="90.066" cy="56.386" rx="4.017" ry="0.903"/>
	
		<ellipse transform="matrix(0.9987 0.0519 -0.0519 0.9987 1.9525 -4.9228)" fill="#D1D2DF" cx="95.771" cy="35.136" rx="4.018" ry="0.902"/>
</g>
</svg>
