<?xml version="1.0" encoding="utf-8"?><!-- Generator: Adobe Illustrator 24.3.0, SVG Export Plug-In . SVG Version: 6.00 Build 0)  -->
<svg id="Layer_1" style="enable-background:new 0 0 93.9 80.6;" version="1.1" viewBox="0 0 93.9 80.6" x="0px"
     xml:space="preserve" xmlns="http://www.w3.org/2000/svg" y="0px">
<style type="text/css">
	.st0 {
        fill: #575757;
    }

    .st1 {
        fill: #FFFFFF;
    }

    .st2 {
        fill: #F0F0F0;
    }

    .st3 {
        fill: #489FC0;
    }

    .st4 {
        fill: #B81F40;
    }

    .st5 {
        fill: #B2B2B2;
    }

    .st6 {
        fill: #E7795D;
    }
</style>
    <g>
	<polygon class="st0" points="57.6,78.6 43.1,78.6 44.3,61.1 56.4,61.1 	"/>
        <path class="st0" d="M59.5,75.8c-0.2-0.3-0.5-0.4-0.8-0.4h-8.1H50h-8.1c-0.3,0-0.6,0.2-0.8,0.4L39,79.1c-0.4,0.6,0,1.5,0.8,1.5H50
		h0.7h10.2c0.8,0,1.2-0.8,0.8-1.5L59.5,75.8z"/>
        <path class="st0" d="M85.9,65.7H14.7c-2.3,0-4.1-1.8-4.1-4.1v-45c0-2.3,1.8-4.1,4.1-4.1h71.2c2.3,0,4.1,1.8,4.1,4.1v45
		C90,63.9,88.2,65.7,85.9,65.7z"/>
        <rect class="st1" height="45.6" width="72.1" x="14.3" y="16.1"/>
        <rect class="st2" height="40.6" width="68.5" x="16.1" y="21"/>
        <rect class="st3" height="3.4" width="68.5" x="16.1" y="21"/>
        <rect class="st1" height="2.8" width="21.3" x="60" y="35.4"/>
        <rect class="st1" height="2.8" width="21.3" x="60" y="40.3"/>
        <rect class="st1" height="2.8" width="21.3" x="60" y="45.3"/>
        <rect class="st1" height="2.8" width="21.3" x="22.4" y="27.8"/>
        <rect class="st1" height="2.8" width="21.3" x="22.4" y="32.7"/>
</g>
    <g>
	<path class="st4" d="M42.7,33.6H2.5c-1.4,0-2.5,1.1-2.5,2.5v12.9c0,1.4,1.1,2.5,2.5,2.5h25.1l9.6,8.1l-4.5-8.1h10
		c1.4,0,2.5-1.1,2.5-2.5V36.1C45.2,34.7,44.1,33.6,42.7,33.6z"/>
        <rect class="st1" height="1.6" width="27.1" x="15.1" y="37.1"/>
        <rect class="st1" height="1.6" width="27.1" x="15.1" y="40.3"/>
        <rect class="st1" height="1.6" width="27.1" x="15.1" y="43.4"/>
        <rect class="st1" height="1.6" width="18" x="15.1" y="46.6"/>
        <circle class="st0" cx="7.8" cy="42.3" r="5.2"/>
        <ellipse class="st1" cx="7.8" cy="40.8" rx="1.5" ry="1.5"/>
        <path class="st1" d="M7.8,42.5L7.8,42.5c-1.5,0-2.7,1.2-2.7,2.6v1.7c0.8,0.5,1.7,0.7,2.6,0.7c1,0,1.9-0.3,2.6-0.7v-1.7
		C10.4,43.7,9.2,42.5,7.8,42.5z"/>
</g>
    <g>
	<path class="st5" d="M91.4,0H51.2c-1.4,0-2.5,1.1-2.5,2.5v12.9c0,1.4,1.1,2.5,2.5,2.5h11.6l-3.1,8.1l8.1-8.1h23.5
		c1.4,0,2.5-1.1,2.5-2.5V2.5C93.9,1.1,92.8,0,91.4,0z"/>
        <rect class="st1" height="1.6" width="27.1" x="63.8" y="3.5"/>
        <rect class="st1" height="1.6" width="27.1" x="63.8" y="6.7"/>
        <rect class="st1" height="1.6" width="27.1" x="63.8" y="9.8"/>
        <rect class="st1" height="1.6" width="18" x="63.8" y="13"/>
        <circle class="st0" cx="56.5" cy="8.7" r="5.2"/>
        <ellipse class="st1" cx="56.5" cy="7.2" rx="1.5" ry="1.5"/>
        <path class="st1" d="M56.5,8.9L56.5,8.9c-1.5,0-2.7,1.2-2.7,2.6v1.7c0.8,0.5,1.7,0.7,2.6,0.7c1,0,1.9-0.3,2.6-0.7v-1.7
		C59.1,10.1,57.9,8.9,56.5,8.9z"/>
</g>
    <g>
	<path class="st4" d="M80.1,59.2H64.2c-1.3,0-2.3-1-2.3-2.3V55c0-1.3,1-2.3,2.3-2.3h15.9c1.3,0,2.3,1,2.3,2.3v1.9
		C82.5,58.1,81.4,59.2,80.1,59.2z"/>
</g>
    <path class="st6" d="M52.8,31.9c-1.1,0.2-2.2,0.2-3.2,0.1c-0.4,0-0.8-0.1-1.1-0.2c0.1,1.3,0.1,4.5-0.9,5.8c0,0,0.3,1.5,3.1,1.6
	c2.8,0,3.1-2.1,3.1-2.1S52.8,33.9,52.8,31.9z"/>
    <path class="st6" d="M47.5,37.6c0,0,0,0.1,0,0.1c0,0,0,0,0,0c0,0,0,0.1,0.1,0.2c0,0,0,0,0,0c0,0.1,0.1,0.1,0.1,0.2c0,0,0,0,0,0
	c0.1,0.1,0.3,0.3,0.5,0.4c0,0,0,0,0,0c0.1,0.1,0.2,0.1,0.4,0.2c0,0,0,0,0.1,0c0.1,0.1,0.3,0.1,0.5,0.2c0.1-0.7,0.4-1.4,0.8-2
	c0.8-1,1.9-1.6,3.1-1.8c-0.2-1-0.5-2.3-0.5-3.3c-1.1,0.2-2.2,0.2-3.2,0.1c-0.4,0-0.8-0.1-1.1-0.2C48.5,33.1,48.5,36.3,47.5,37.6
	C47.5,37.6,47.5,37.6,47.5,37.6C47.5,37.6,47.5,37.6,47.5,37.6z"/>
    <path class="st6" d="M48.9,24.4c0,0,4.6-1.4,5.3-0.2c0.7,1.1,0.6,2.9,0.9,3.7s1.4,1.6,1.6,1.9c0.1,0.3-0.8,0.9-0.9,1.2
	c-0.1,0.2-0.6,2.8-1.4,3.4s-5.1-0.9-6.1-3S47.7,25,48.9,24.4z"/>
    <path class="st0" d="M51,25.2c0,0,0.1,1.1-0.5,2.4c-0.3,0.5,1.1,2,0.7,2.7c-0.3,0.4-0.6,0.3-1-0.5c-0.1-0.3-0.4-0.5-0.7-0.6
	c-1.1-0.5-1.4,1.2-0.4,1.7c0.7,0.4,0.3,2.1,0.3,2.1c-0.8,0.6-3.2-0.1-3-1.9c0.2-1.2,0.3-1.6-0.2-1.9c-0.7-0.5-1.7-1.9-0.5-3.1
	c1.7-1.7,0.1-2.2,2.1-2.7C49.8,22.8,51.4,24,51,25.2z"/>
    <path class="st0" d="M47.6,24.2c0.1-0.4,0.9-1,1.2-1.2c0.6-0.4,1.3-0.7,2-0.9c0.7-0.2,1.5-0.2,2.2-0.1c0.6,0.1,1.1,0.4,1.8,0.5
	c0.6,0.1,1.2,0,1.6-0.3c0.1,0.4,0.1,1.2,0.1,1.4c-0.1,0.6-0.5,1.1-0.8,1.6c-0.9,1.4-3.5,2.1-5.2,1.4c-0.9-0.4-1.6-0.7-2.1-1.4
	C48.1,24.8,47.9,24.6,47.6,24.2z"/>
    <path class="st0" d="M72,27.2l4.4,9.8c0,0-1.3,1.5-1.7,1.1c-0.4-0.3-7.1-8.3-7.7-8.7C66.3,29,72,27.2,72,27.2z"/>
    <path class="st4" d="M61,28.4c0,0,0,2.8,1.7,3.5c0,0,8.8-3.7,10.6-4c1.8-0.4,8.2-0.4,8.2-0.4l-6.5-11.6c0,0-3.1,6.3-6,8.3
	C66.3,26.1,61,28.4,61,28.4z"/>
    <path class="st0" d="M66.7,30.2c0.7-0.3,1.4-0.6,2.1-0.8c-1.1-1.2-1.6-2.9-1.9-4c-0.7,0.4-1.4,0.8-2,1.1
	C65.3,28,65.9,29.3,66.7,30.2z"/>
    <ellipse class="st3" cx="79.2" cy="20.8" rx="5.2" ry="8.7"
             transform="matrix(0.9238 -0.3829 0.3829 0.9238 -1.9168 31.9255)"/>
    <ellipse class="st0" cx="79.6" cy="20.6" rx="4.4" ry="7.4"
             transform="matrix(0.9237 -0.3831 0.3831 0.9237 -1.8274 32.0678)"/>
    <path class="st6" d="M71.4,34.2c-0.2-0.1-0.2-0.9-0.1-1.1c0.1-0.3,0.3-0.7,0.1-1c-0.4-0.5-0.9,0.9-1,1.1c-0.1,0.4-0.2,0.7-0.1,1
	c0.1,0.2,0.5,1,0.8,1.3c0,0.1-0.1,0.3-0.1,0.5c0.4,0.2,0.7,0.3,1.1,0.5c0.4,0.2,0.4,0.6,0.8,0.8l0.4-0.9
	C73,36.1,71.7,34.4,71.4,34.2z"/>
    <path class="st6" d="M74.2,31c-0.4-0.4-1-0.3-1.4,0.1c-0.3,0.2-1.3,1-1,1.6c0.2,0.5,1.5-0.6,1.5-0.6c-0.5,0.4-1.3,0.7-1.1,1.1
	c0.2,0.4,1.3-0.2,1.6-0.4c-0.2,0.1-1.5,0.8-1,1.2c0.3,0.3,1.2-0.3,1.5-0.5c-0.4,0.1-0.8,0.4-0.8,0.9c0.2,0.3,0.7,0.1,1,0
	c0.5-0.2,0.9-0.3,0.9-0.8c0-0.1,0-0.2,0-0.3c0-0.4-0.2-0.9-0.4-1.2C74.8,31.7,74.5,31.3,74.2,31z"/>
    <path class="st6" d="M27.7,34.3c-0.2-0.3-0.4-0.7-0.5-1.1c-0.1-0.3-0.2-0.7-0.3-1c-0.1-0.3-0.2-0.6-0.2-1c0-0.2,0.1-0.4,0.1-0.6
	c0.1-0.2,0.2-0.5,0.2-0.7c0-0.2,0-0.4,0.1-0.7c0.1-0.4,0.2-0.9,0.4-1.2c0.2-0.3,0.3-0.5,0.6-0.8c0.1-0.1,0.2-0.2,0.3-0.4
	c0.1-0.1,0.3-0.2,0.3-0.4c0.1-0.2,0-0.4-0.3-0.5c-0.4-0.1-1,0.1-1.3,0.4c-0.3,0.5-0.5,1-0.9,1.5c-1.1,1.4-2.2-0.2-3.5-0.8
	c-0.4-0.2-0.9-0.6-1.3-0.8c-0.2-0.2-1.3-1.1-1.7-0.9c-0.4,0.2,0.3,1,0.7,1.2c0.1,0.1,1.3,1,1.4,1c-0.3-0.1-1.2-0.6-1.9-1.2
	c-0.5-0.4-1-0.8-1.3-0.6c-0.8,0.7,2.5,2.3,2.7,2.4c-0.3,0-2.9-1.8-3.1-1.1c-0.1,0.4,0.4,0.7,0.8,1c0.6,0.3,1.5,0.5,1.7,0.7
	c-0.4,0.1-2.1-1-2.1-0.3c0,0.5,1.1,0.8,1.5,0.9c0.4,0.1,1.6,0.9,2,1.1c1.3,0.6,1.8,0.5,2.3,1.3c0.3,0.5,0.9,3.1,1.4,4L27.7,34.3z"/>
    <path class="st3" d="M70.7,35.6c-1.1,3.3-3.6,9.2-4.4,8.8c-1.5-0.8-4.8-3.4-7.2-5.1c-1.9-1.3-2.8-1.6-2.8-1.6l1.7,8
	c0,0,8,6.1,9.7,5.2c1.3-0.7,4.6-10,5.7-13.8C73.4,37,70.7,35.6,70.7,35.6z"/>
    <path class="st3" d="M62.7,47c-0.9-1.2-4.3-4.5-5.3-5.3l0.3,3.8c0,0,8.1,6.1,9.9,5.3C66.1,49.8,63.8,48.4,62.7,47z"/>
    <path class="st3" d="M42.7,38.1c0,0-9.9,4-10.9,3.7c-1.1-0.3-4.6-10.4-4.6-10.4l-3,1.2c0,0,3.2,14.6,5.2,15.3
	c2.1,0.7,14.3-2.8,14.3-2.8S43.9,41.5,42.7,38.1z"/>
    <path class="st3"
          d="M34.3,47c-0.9,0.3-1.8,0.6-2.6,0.9c4.2-0.6,12-2.8,12-2.8s0.1-1.6-0.2-3.7C41,43.9,37.6,45.8,34.3,47z"/>
    <path class="st5" d="M79,21.6c-0.4-1.4-1.8-2.2-3-1.8c-0.4,0.1-0.8,0.4-1,0.7c0.1,0.6,0.3,1.2,0.6,1.7c0.4,1,0.9,1.9,1.5,2.6
	c0.2,0,0.4,0,0.6-0.1C78.8,24.5,79.5,23,79,21.6z"/>
    <g>
	<path class="st3" d="M42.7,50.1c-0.3,3.4-0.6,10.6-0.8,11.6h16.2c0.3-5.4,0.2-13.1-0.1-16c-0.5-5-1.7-8-1.7-8s-1.2-0.4-2.6-0.9
		c0,0-3,1.8-5.7,0c0,0-5,1.2-5.6,1.5C41.8,38.5,43.1,46.4,42.7,50.1z"/>
        <path class="st3" d="M47,54.7c0-1.6-0.3-3.2-0.9-4.7c-0.1-0.3-0.2-0.7-0.3-1c-0.1-1.1-0.4-1.8-0.7-2.4c-0.4-0.5-0.7-1.1-1.1-1.6
		c-0.2-0.3-0.4-0.6-0.6-0.9c-0.3-0.4-0.8-1.2-1-1.7c0.2,2.5,0.5,5.9,0.3,7.7c-0.3,3.4-0.6,10.6-0.8,11.6h7.5c-1-1.2-1.5-2.8-2.1-4.6
		C47.1,56.3,47,55.5,47,54.7z"/>
</g>
</svg>
