<?xml version="1.0" encoding="utf-8"?>
<!-- Generator: Adobe Illustrator 16.0.3, SVG Export Plug-In . SVG Version: 6.00 Build 0)  -->
<!DOCTYPE svg PUBLIC "-//W3C//DTD SVG 1.1//EN" "http://www.w3.org/Graphics/SVG/1.1/DTD/svg11.dtd">
<svg version="1.1" id="Layer_1" xmlns="http://www.w3.org/2000/svg" xmlns:xlink="http://www.w3.org/1999/xlink" x="0px" y="0px"
	 width="106.485px" height="81.997px" viewBox="0 0 106.485 81.997" enable-background="new 0 0 106.485 81.997"
	 xml:space="preserve">
<g>
	<g>
		<path fill="#2BC2DD" d="M42.919,62.659c-3.887-4.387-15.367-10.351-12.351-17.19c2.565-5.818,14.879-5.101,13.396-12.116
			c-0.876-4.149-2.014-7.69,0.665-12.408c2.918-5.139,11.639-2.341,14.662-7.113c2.598-4.099-0.779-10.433,4.586-13.171
			c4.764-2.431,10.519,2.318,11.377,6.527c1.074,5.262-4.138,7.736-4.807,12.316c-0.426,2.916,2.23,3.932,3.752,5.974
			c1.457,1.955,2.767,4.767,2.863,7.188c0.289,7.277-7.686,8.219-11.466,12.845c-3.502,4.285,2.956,7.046,1.988,11.705
			c-1.045,5.027-8.202,7.773-13.24,7.699C50.853,64.862,45.328,65.378,42.919,62.659z"/>
		<g>
			<path fill="#FFFFFF" d="M47.996,65.057c-0.031-0.006-0.063-0.015-0.091-0.029c-0.165-0.076-0.22-0.255-0.122-0.396
				c0.069-0.105,7.188-10.812,7.601-24.266c0.272-8.97,4-14.709,7.058-19.418c1.848-2.843,3.457-5.324,3.704-7.81
				c0.021-0.203,0.207-0.361,0.417-0.352c0.218,0.007,0.363,0.183,0.344,0.384c-0.27,2.663-1.929,5.21-3.83,8.13
				c-3.013,4.627-6.688,10.271-6.97,19.057c-0.438,13.62-7.661,24.446-7.732,24.552C48.296,65.025,48.14,65.082,47.996,65.057z"/>
		</g>
		<g>
			<path fill="#FFFFFF" d="M55.992,40.401c-0.171-0.035-0.287-0.178-0.267-0.342c0.021-0.18,0.199-0.317,0.398-0.305
				c3.016,0.18,7.045-1.583,8.263-4.521c0.146-0.354,0.293-0.745,0.447-1.156c0.736-1.974,1.662-4.451,3.6-5.342
				c0.948-0.436,2.046-0.437,3.247-0.023c0.187,0.065,0.27,0.262,0.188,0.439s-0.287,0.26-0.484,0.206
				c-1.031-0.355-1.896-0.36-2.659-0.011c-1.642,0.756-2.511,3.071-3.203,4.917c-0.157,0.418-0.308,0.817-0.456,1.176
				c-1.388,3.334-5.752,5.165-9.02,4.97C56.027,40.407,56.009,40.404,55.992,40.401z"/>
		</g>
		<g>
			<path fill="#FFFFFF" d="M53.853,40.062c-1.4-0.315-2.463-0.929-3.168-1.836c-1.119-1.438-1.295-3.606-0.494-6.284
				c0.08-0.265,0.181-0.573,0.292-0.909c0.628-1.914,1.588-4.835,0.643-6.457c-0.313-0.539-0.813-0.888-1.527-1.067
				c-0.199-0.051-0.316-0.245-0.258-0.434c0.058-0.188,0.265-0.3,0.464-0.252c0.001,0,0.003,0,0.004,0.001
				c0.905,0.229,1.572,0.701,1.98,1.403c1.091,1.877,0.07,4.967-0.598,6.988c-0.108,0.33-0.208,0.63-0.286,0.891
				c-0.745,2.475-0.609,4.45,0.382,5.727c0.845,1.088,2.325,1.692,4.391,1.803c0.208,0.009,0.344,0.167,0.325,0.347
				c-0.021,0.181-0.197,0.319-0.396,0.309C54.972,40.259,54.388,40.182,53.853,40.062z"/>
		</g>
		<g>
			<path fill="#FFFFFF" d="M52.137,60.817c-0.419-0.076-0.812-0.213-1.16-0.424c-0.154-0.093-0.188-0.278-0.073-0.415
				c0.114-0.138,0.326-0.175,0.485-0.08c1.805,1.089,5.477-0.325,7.038-1.427c0.651-0.46,1.236-1.258,1.855-2.106
				c1.111-1.517,2.266-3.095,4.091-3.146c0.2-0.015,0.345,0.127,0.337,0.295c-0.007,0.171-0.167,0.313-0.358,0.317
				c-1.438,0.042-2.484,1.468-3.49,2.838c-0.654,0.894-1.271,1.733-2.019,2.259C57.443,59.917,54.383,61.228,52.137,60.817z"/>
		</g>
		<g>
			<path fill="#FFFFFF" d="M49.181,60.157c-0.427-0.078-0.843-0.225-1.249-0.44c-2.273-1.208-3.622-4.305-3.974-6.108
				c-0.188-0.969,0.103-2.248,0.41-3.61c0.493-2.177,1.008-4.448-0.409-5.483c-0.152-0.111-0.172-0.314-0.044-0.455
				c0.128-0.139,0.356-0.157,0.51-0.048c1.743,1.276,1.156,3.851,0.643,6.097c-0.298,1.303-0.576,2.527-0.41,3.383
				c0.314,1.633,1.585,4.607,3.654,5.711c0.803,0.428,1.656,0.529,2.532,0.303c0.185-0.047,0.375,0.041,0.424,0.2
				c0.047,0.159-0.064,0.325-0.249,0.374C50.39,60.239,49.775,60.267,49.181,60.157z"/>
		</g>
	</g>
	<g>
		<path fill="#E5E6EC" d="M70.775,77.431c-6.669-1.646-11.951-3.136-12.095-10.201c-0.075-3.656,1.557-6.179,5.413-8.207
			c3.119-1.64,4.72-2.203,5.438-5.44c1.147-5.179-1.353-10.286,1.91-15.294c3.64-5.588,11.853-3.04,15.644-8.106
			c3.4-4.545,5.266-10.438,12.453-10.354c6.049,0.07,8.517,6.388,5.927,10.771c-1.457,2.467-4.009,4.205-5.043,6.846
			c-0.987,2.52,0.097,4.58,1.067,6.881c2.144,5.086,2.666,10.326-3.17,13.688c-3.488,2.008-6.177,3.771-4.92,7.537
			c1.321,3.957,1.913,6.215-2.893,9.195c-3.593,2.227-6.868,2.045-10.993,2.217c-3.867,0.161-9.034,1.221-12.685-0.455
			L70.775,77.431z"/>
		<g>
			<path fill="#FFFFFF" d="M72.939,73.767c-0.563-0.637-0.941-1.302-1.129-1.989c-0.806-2.964,2.014-5.934,4.567-8.624
				c1.288-1.355,2.517-2.65,3.094-3.756c1.575-3.008,2.045-5.693,1.711-9.902c-0.399-4.99,0.941-7.033,5.015-10.333
				c3.434-2.786,6.828-5.854,7.784-8.892c0.073-0.237,0.375-0.364,0.674-0.286c0.298,0.077,0.481,0.333,0.406,0.569
				c-1.022,3.232-4.537,6.395-8.081,9.252c-3.945,3.175-5.166,5.019-4.796,9.767c0.281,3.587,0.075,6.692-1.799,10.25
				c-0.618,1.178-1.883,2.5-3.205,3.885c-2.468,2.582-5.195,5.436-4.476,8.09c0.277,1.023,1.046,1.962,2.354,2.869
				c0.212,0.153,0.285,0.389,0.149,0.531s-0.421,0.136-0.638-0.016C73.917,74.728,73.373,74.255,72.939,73.767z"/>
		</g>
		<g>
			<path fill="#FFFFFF" d="M81.38,54.218c-0.068-0.075-0.112-0.164-0.117-0.257c-0.009-0.222,0.205-0.378,0.48-0.349
				c2.413,0.264,4.195-1.619,6.115-3.646c1.701-1.796,3.487-3.682,5.933-4.196c0.278-0.06,0.597,0.082,0.703,0.311
				c0.11,0.23-0.024,0.464-0.304,0.521c-2.144,0.446-3.846,2.231-5.467,3.933c-1.992,2.088-4.011,4.209-6.941,3.885
				C81.621,54.399,81.476,54.323,81.38,54.218z"/>
		</g>
		<g>
			<path fill="#FFFFFF" d="M79.455,60.36c-0.038-0.042-0.069-0.09-0.09-0.141c-0.236-0.597-0.334-1.105-0.429-1.601
				c-0.152-0.798-0.287-1.487-0.989-2.364c-0.373-0.463-0.79-0.865-1.192-1.256c-0.844-0.828-1.719-1.67-2.111-3.025
				c-0.561-1.938-0.524-4.349,0.114-7.188c0.089-0.396,0.294-0.95,0.513-1.54c0.313-0.852,0.902-2.442,0.707-2.797
				c-0.117-0.213-0.036-0.456,0.2-0.535c0.233-0.08,0.524,0.008,0.654,0.212c0.403,0.605,0.033,1.719-0.618,3.463
				c-0.213,0.569-0.412,1.107-0.494,1.462c-0.428,1.886-0.795,4.591-0.137,6.871c0.326,1.14,1.037,1.828,1.865,2.63
				c0.426,0.412,0.866,0.842,1.284,1.357c0.85,1.055,1.013,1.912,1.171,2.74c0.087,0.463,0.179,0.94,0.39,1.472
				c0.087,0.217-0.052,0.416-0.309,0.442C79.79,60.585,79.58,60.499,79.455,60.36z"/>
		</g>
	</g>
	<g>
		<path fill="#D1D2DF" d="M30.68,76.483c-7.384-1.342-14.298-0.773-17.286-8.856c-2.365-6.396,3.148-12.425-2.401-16.82
			c-3.339-2.646-8.607-4.231-9.772-8.755c-1.213-4.71,4.814-7.696,3.73-12.216c-0.895-3.735-6.079-3.983-4.727-8.848
			c1.2-4.315,4.996-5.403,8.014-4.542c4.035,1.152,4.369,4.844,7.047,7.407c1.787,1.71,4.319-0.008,6.941-0.324
			c2.612-0.314,5.956-0.082,8.168,1.07c7.184,3.742,1.427,11.667,2.731,18.119c1.262,6.237,10.043,2.467,14.58,7.152
			c5.3,5.471,1.302,14.934-3.92,19.398C40.306,72.244,35.67,77.39,30.68,76.483z"/>
		<g>
			<path fill="#FFFFFF" d="M37.806,74.854c-0.035,0.02-0.075,0.036-0.118,0.045c-0.238,0.057-0.486-0.086-0.552-0.314
				c-0.05-0.166-4.854-16.227-16.554-26.803c-6.587-5.951-8.152-12.101-9.376-16.906c-0.713-2.804-1.322-5.19-2.724-6.482
				c-0.111-0.104-0.1-0.315,0.028-0.472c0.133-0.163,0.326-0.199,0.439-0.097c1.511,1.383,2.142,3.843,2.883,6.734
				c1.217,4.741,2.771,10.809,9.27,16.636c11.935,10.703,16.846,27.018,16.895,27.188C38.053,74.571,37.97,74.761,37.806,74.854z"/>
		</g>
		<g>
			<path fill="#FFFFFF" d="M21.055,47.317c-0.152,0.114-0.354,0.109-0.472-0.018c-0.128-0.139-0.109-0.375,0.045-0.527
				c2.367-2.333,3.905-6.831,2.363-9.665c-0.182-0.334-0.394-0.689-0.615-1.061c-1.049-1.755-2.33-3.902-1.664-5.993
				c0.327-1.023,1.101-1.949,2.286-2.757c0.187-0.126,0.405-0.097,0.488,0.066c0.084,0.163,0.003,0.382-0.183,0.522
				c-1.024,0.693-1.644,1.422-1.909,2.25c-0.568,1.782,0.644,3.797,1.634,5.444c0.228,0.378,0.444,0.742,0.632,1.082
				c1.77,3.231,0.025,8.082-2.562,10.618C21.085,47.294,21.069,47.307,21.055,47.317z"/>
		</g>
		<g>
			<path fill="#FFFFFF" d="M19.233,48.795c-1.243,0.886-2.46,1.293-3.628,1.22c-1.811-0.113-3.461-1.404-4.78-3.701
				c-0.128-0.224-0.271-0.488-0.426-0.777c-0.873-1.621-2.169-4.03-3.756-4.252c-0.517-0.072-1.024,0.096-1.55,0.51
				c-0.147,0.115-0.331,0.09-0.41-0.056c-0.077-0.146-0.025-0.355,0.119-0.472c0.001,0,0.002-0.002,0.003-0.002
				c0.665-0.526,1.343-0.749,2.018-0.658c1.841,0.249,3.22,2.796,4.149,4.513c0.154,0.282,0.295,0.542,0.422,0.763
				c1.229,2.125,2.724,3.313,4.332,3.406c1.404,0.08,2.914-0.668,4.483-2.234c0.158-0.161,0.384-0.164,0.515-0.027
				c0.13,0.139,0.113,0.375-0.04,0.528C20.197,48.04,19.714,48.453,19.233,48.795z"/>
		</g>
		<g>
			<path fill="#FFFFFF" d="M37.012,67.095c-0.467,0.281-0.971,0.481-1.512,0.572c-0.237,0.04-0.463-0.109-0.504-0.336
				s0.108-0.441,0.353-0.484c2.826-0.491,4.694-5.023,4.933-7.416c0.098-0.994-0.243-2.225-0.604-3.518
				c-0.634-2.286-1.284-4.625,0.328-6.321c0.169-0.194,0.457-0.214,0.637-0.071c0.182,0.143,0.19,0.404,0.017,0.584
				c-1.281,1.344-0.685,3.474-0.104,5.551c0.384,1.371,0.748,2.674,0.635,3.819C40.979,61.632,39.555,65.56,37.012,67.095z"/>
		</g>
		<g>
			<path fill="#FFFFFF" d="M33.643,68.937c-0.458,0.277-0.976,0.478-1.551,0.604c-3.146,0.684-7.144-1.115-9.024-2.448
				c-0.984-0.7-1.852-2.019-2.758-3.396c-1.413-2.149-2.845-4.326-4.647-4.052c-0.191,0.029-0.359-0.111-0.376-0.313
				c-0.016-0.2,0.131-0.386,0.32-0.419c2.223-0.346,3.853,2.117,5.322,4.338c0.873,1.32,1.708,2.582,2.584,3.197
				c1.706,1.2,5.532,2.924,8.392,2.291c1.137-0.252,1.997-0.861,2.543-1.809c0.116-0.197,0.378-0.273,0.589-0.164
				c0.21,0.112,0.286,0.364,0.169,0.565C34.809,68.011,34.285,68.548,33.643,68.937z"/>
		</g>
	</g>
	<g>
		<g>
			<path fill="#170F38" d="M86.516,81.997H20.749c-0.885,0-1.602-0.717-1.602-1.602V37.354c0-0.884,0.717-1.601,1.602-1.601h65.767
				c0.884,0,1.601,0.717,1.601,1.601v43.042C88.116,81.28,87.399,81.997,86.516,81.997z"/>
			<rect x="22.324" y="38.816" fill="#FFFFFF" width="59.458" height="39.638"/>
			<circle fill="#FFFFFF" cx="84.725" cy="58.874" r="1.247"/>
		</g>
		<g>
			<g>
				<path fill="#E5E6EC" d="M68.433,71.058H35.69c-0.904,0-1.638-0.733-1.638-1.638V48.329c0-0.904,0.733-1.637,1.638-1.637h32.742
					c0.904,0,1.638,0.732,1.638,1.637V69.42C70.07,70.324,69.337,71.058,68.433,71.058z"/>
				<rect x="35.69" y="48.633" fill="#2BC2DD" width="32.742" height="20.483"/>
			</g>
			<polygon fill="#EF4661" points="45.981,52.417 45.981,65.888 59.095,59.152 			"/>
		</g>
	</g>
	<g>
		<g>
			<path fill="#170F38" d="M52.581,35.496c0,0-8.323-0.046-11.245-1.995s-3.433-9.694,0.812-12.86
				c4.244-3.166,5.124-4.14,5.311-6.227s0.143-6.824,5.639-6.844c5.392-0.02,4.927,4.396,5.337,7.207
				c0.285,1.957,2.978,4.846,5.335,6.647C66.795,23.737,70.18,37.444,52.581,35.496z"/>
			<path fill="#E35A40" d="M51.62,13.021l1.809,0.057l1.81,0.057c0,0,0.366,4.946,1.292,5.562c0,0,0.981,5.86-3.457,5.72
				c-5.372-0.168-3.092-5.926-3.092-5.926C50.944,17.934,51.62,13.021,51.62,13.021z"/>
			<path fill="#EF4661" d="M45.57,35.72h14.598l1.227-4.731c0.192-4.797,0.26-9.693,0.26-9.693c-2.089-1.686-5.44-2.897-5.44-2.897
				c-1.759,1.332-4.435,1.454-6.116,0c0,0-3.317,1.362-5.496,2.897c0,0-0.439,2.028-0.222,5.227
				C44.591,29.614,44.996,32.687,45.57,35.72z"/>
			<path fill="#EF4661" d="M66.848,35.72c-1.116-5.622-2.154-9.186-3.07-11.3c-1.196-2.762-2.123-3.125-2.123-3.125
				c-1.065-0.097-1.874,8.848-3.703,14.424H66.848z"/>
			<path fill="#E02242" d="M60.114,27.599c-0.286,0.789-0.798,1.431-1.296,2.138c-0.451,0.642-1.69,4.197-6.548,3.86
				c-2.008-0.139-3.866-2.125-4.695-4.136c-0.341-0.826-0.497-1.629-0.678-2.502c-0.129-0.625-0.171-1.438-0.493-1.988
				c-0.606,0.153-0.674,1.062-0.888,1.586c-0.132,0.323-1.011,1.542-1.08,0.628c0.219,2.869,0.603,5.719,1.135,8.535h15.689
				C60.962,32.426,60.088,28.604,60.114,27.599z"/>
			<path fill="#F58668" d="M57.451,13.895c-0.52-0.561-1.094,0.335-1.094,0.335s0.22-1,0.271-2.132
				c-1.199-0.664-2.41-1.438-3.545-1.788v-0.008c-0.003,0.001-0.007,0.003-0.011,0.004c-0.003-0.001-0.007-0.003-0.011-0.004v0.008
				c-1.135,0.349-2.346,1.124-3.545,1.788c0.052,1.132,0.271,2.132,0.271,2.132s-0.574-0.896-1.095-0.335
				c-0.52,0.561,0.764,2.057,1.06,2.242c0,0,1.057,2.576,2.39,3.433c0.346,0.223,1.402,0.282,1.915-0.049
				c1.332-0.861,2.334-3.383,2.334-3.383C56.688,15.952,57.971,14.456,57.451,13.895z"/>
			<g>
				<path fill="#170F38" d="M56.622,11.176c0,0-1.823,3.225-6.336,2.917c0,0,0.221,0.382-0.049,1.074c0,0-0.324-1.271-1.023-0.874
					c-0.366,0.208-0.374,0.734,0.007,1.291c0.172,0.25-1.107-0.211-1.107-0.211s-0.528-4.906,2.723-6.022
					C54.086,8.235,56.622,11.176,56.622,11.176z"/>
				<path fill="#170F38" d="M55.117,9.492c-0.04,0.235-0.071,0.47-0.068,0.701c0.007,0.501-0.715,0.856-0.733,1.354
					c0.1,0.108,0.198,0.226,0.296,0.349c0.605,0.761,0.871,1.195,1.087,2.144c0.06,0.263-0.088,0.452,0.323,1.169
					c0,0,0.314-1.276,1.095-1.086c0.152,0.037,0.457,0.268,0.188,0.905c-0.098,0.23,0.809-0.95,0.809-0.95
					S58.081,9.392,55.117,9.492z"/>
			</g>
		</g>
		<path fill="#F58668" d="M48.804,57.327c0.173,0.394,1.071,0.996,0.753,1.529c-0.159,0.269-0.972-0.298-1.15-0.529
			c-0.253-0.326-1.999-3.037-2.273-3.818c-0.215-0.612-0.417-1.209-0.657-1.77c0.635-0.377,1.215-0.863,1.746-1.399
			c0.893,0.41,1.84,0.981,2.718,1.366c0.47,0.206,0.987,0.351,1.465,0.527c0.303,0.113,0.946,0.276,0.974,0.682
			c0.031,0.443-0.617,0.313-0.872,0.262c-0.369-0.074-1.047-0.427-1.308-0.004c-0.38,0.614,0.77,1.327,1.155,1.746
			c0.358,0.389,1.672,1.586,0.711,1.683c-0.202,0.021-1.565-1.151-1.779-1.308c0.044,0.057,0.919,0.902,0.962,0.961
			c0.226,0.305,0.882,0.939,0.686,1.252c-0.419,0.671-1.858-1.098-2.078-1.334c-0.002-0.002,0.549,0.699,0.547,0.697
			c0.467,0.529,0.76,0.977,0.366,1.143C50.271,59.223,49.237,57.771,48.804,57.327z"/>
		<path fill="#EF4661" d="M48.609,51.909l-2.983,1.987c0,0-9.397-12.172-8.376-16.768c1.209-5.438,4.361-11.517,6.102-14.345
			c0.673-1.094,1.25-1.488,1.25-1.488c1.793,1.724,2.817,4.13,2.587,6.292c-0.104,0.966-0.571,1.594-1.089,2.577
			c-1.586,3.009-3.525,8.227-3.462,8.757C42.74,39.773,48.609,51.909,48.609,51.909z"/>
	</g>
</g>
</svg>
