<?xml version="1.0" encoding="utf-8"?>
<!-- Generator: Adobe Illustrator 24.3.0, SVG Export Plug-In . SVG Version: 6.00 Build 0)  -->
<svg version="1.1" id="Layer_1" xmlns="http://www.w3.org/2000/svg" x="0px" y="0px" viewBox="0 0 112.4 82.8" style="enable-background:new 0 0 112.4 82.8;" xml:space="preserve">
<style type="text/css">
	.st0{fill:#575757;}
	.st1{fill:#B2B2B2;}
	.st2{fill:#F58668;}
	.st3{fill:#E7795D;}
	.st4{fill:#B81F40;}
	.st5{fill:#489FC0;}
	.st6{opacity:0.65;fill:#489FC0;enable-background:new    ;}
</style>
<g>
	<path class="st0" d="M5,45.6c0-3.5,0.5-6.4,1.6-8.8c0.8-1.8,1.8-3.3,3.2-4.7s2.8-2.4,4.4-3.1c2.1-0.9,4.6-1.4,7.4-1.4
		c5.1,0,9.1,1.6,12.2,4.7s4.6,7.5,4.6,13.1c0,5.5-1.5,9.9-4.5,13s-7,4.7-12.1,4.7c-5.1,0-9.2-1.6-12.2-4.7S5,51.1,5,45.6z
		 M12.2,45.3c0,3.9,0.9,6.8,2.7,8.8s4.1,3,6.8,3s5-1,6.8-3s2.7-5,2.7-9c0-3.9-0.9-6.9-2.6-8.8s-4-2.9-6.9-2.9s-5.2,1-6.9,2.9
		S12.2,41.4,12.2,45.3z"/>
	<path class="st0" d="M43.9,62.6V28.2h6.9v15.3l14-15.3h9.3L61.2,41.6l13.6,21h-9l-9.4-16.1l-5.6,5.7v10.4H43.9z"/>
	<path class="st0" d="M78.5,62.6V28.2h14.6c3.7,0,6.3,0.3,8,0.9s3,1.7,4,3.3c1,1.6,1.5,3.4,1.5,5.4c0,2.6-0.8,4.7-2.3,6.4
		s-3.8,2.7-6.8,3.2c1.5,0.9,2.7,1.8,3.7,2.9s2.3,2.9,3.9,5.6l4.2,6.7h-8.3l-5-7.5c-1.8-2.7-3-4.4-3.7-5.1s-1.4-1.2-2.1-1.4
		s-1.9-0.4-3.5-0.4h-1.4v14.3L78.5,62.6L78.5,62.6z M85.4,42.7h5.1c3.3,0,5.4-0.1,6.2-0.4s1.5-0.8,1.9-1.5s0.7-1.5,0.7-2.6
		c0-1.2-0.3-2.1-0.9-2.8s-1.5-1.2-2.6-1.3C95.3,34,93.6,34,90.8,34h-5.4L85.4,42.7L85.4,42.7z"/>
</g>
<path class="st1" d="M68.8,39.7l-1.2-1.1c0,0-4.7-0.3-4.9,0.1c-0.3,0.4,4.4,2.6,5,2.6C68.3,41.3,68.7,40.2,68.8,39.7z"/>
<path class="st2" d="M77.3,24c0,0-4.4-1.1-4.8-0.4c-0.4,0.7-4.9,15.1-4.9,15.1l1.2,1.1c0,0,4.9-12.1,6.3-13.4S78,24.5,77.3,24z"/>
<path class="st3" d="M77.3,24c0,0-4.4-1.1-4.8-0.4c-0.4,0.7-4.9,15.1-4.9,15.1l1.2,1.1c0,0,4.9-12.1,6.3-13.4S78,24.5,77.3,24z"/>
<g>
	<path class="st3" d="M79.6,21.4c-0.3-0.1-0.6-0.2-0.9-0.4c-0.2-0.1-0.5-0.3-0.8-0.2c-0.2,0-1.9,0.7-1.5,1c0.1,0.1,0.5-0.1,0.7-0.1
		c0.2-0.1,0.4-0.2,0.6-0.3c-0.2,0-1.1,0.4-1,0.6c0.2,0.4,1.1-0.1,1.3-0.2c-0.2,0-0.7,0.2-0.7,0.4c0,0.3,0.7,0.1,0.8,0
		c0.1-0.1,0.2-0.1,0.3-0.2c0.1,0,0.3,0,0.4,0.1c0.2,0,0.5,0,0.7,0c0.1,0,0.5,0,0.5-0.1c0.1-0.1,0-0.4-0.1-0.5
		C79.9,21.4,79.8,21.4,79.6,21.4z"/>
	<path class="st3" d="M79.6,21.4c-0.3-0.1-0.6-0.2-0.9-0.4c-0.2-0.1-0.5-0.3-0.8-0.2c-0.2,0-1.9,0.7-1.5,1c0.1,0.1,0.5-0.1,0.7-0.1
		c0.2-0.1,0.4-0.2,0.6-0.3c-0.2,0-1.1,0.4-1,0.6c0.2,0.4,1.1-0.1,1.3-0.2c-0.2,0-0.7,0.2-0.7,0.4c0,0.3,0.7,0.1,0.8,0
		c0.1-0.1,0.2-0.1,0.3-0.2c0.1,0,0.3,0,0.4,0.1c0.2,0,0.5,0,0.7,0c0.1,0,0.5,0,0.5-0.1c0.1-0.1,0-0.4-0.1-0.5
		C79.9,21.4,79.8,21.4,79.6,21.4z"/>
</g>
<g>
	<polygon class="st0" points="72,13.7 70.9,14.2 74.5,22.8 75.5,22.2 	"/>
	<rect x="75.2" y="22" class="st0" width="6.8" height="1.1"/>
</g>
<path class="st0" d="M93.9,17.1c-0.9-0.5-1.1-1.1-0.6-3c0.5-1.9-0.8-3.9-2.1-4.4c-0.9-0.4-1.7-0.6-2.3-1.5c-0.6-1,0.5-3.1-1.3-4.7
	c-1.3-1.1-3.2-0.2-3.2-0.2c-0.4-0.2-0.6,2.1-0.6,3.9c2.3,3.5,1.6,8,0.8,11.9c0,0.1-0.1,0.2-0.1,0.3c0.2,3,0.3,5.5,0.3,5.5
	s5.4,3.1,9.1,0.4C97.8,22.7,95.7,18.2,93.9,17.1z"/>
<path class="st1" d="M77.9,39l-1.4,0.8c0,0-1.7,4.4-1.4,4.7c0.3,0.4,3.8-3.5,3.9-4C79.2,39.9,78.3,39.2,77.9,39z"/>
<path class="st3" d="M79.7,23.7c0,0-8.9,0.6-9.7,1.4c-0.8,0.8,6.7,14.6,6.7,14.6l1.2-0.7c0,0-1.9-6.6-2.3-8.1s-1.4-3.4-1.2-3.6
	s9.1,1.1,9-1.4C83.3,23.4,79.7,23.7,79.7,23.7z"/>
<path class="st3" d="M84.1,8.8c0,0,0.9,2.5,0.4,4.4l3.1-0.8c0,0-1.3-4.2-1.8-5C85.2,6.7,84.1,8.8,84.1,8.8z"/>
<path class="st3" d="M85.4,11c1,0,1.5,0.8,1.6,1.5l0.6-0.1c0,0-1.3-4.2-1.8-5c-0.5-0.7-1.7,1.3-1.7,1.3s0.4,1.1,0.5,2.5
	C84.8,11.1,85,11,85.4,11z"/>
<path class="st3" d="M83.7,5.5c0,0-1.2,0.6-1.5,1.1c-0.3,0.5,0,1.2-0.1,1.6S82,9.2,82.1,9.3s0.5,0,0.6,0.1c0.1,0.1,0.6,0.5,0.8,0.9
	c0.2,0.4,0.4,0.4,0.8,0.2c0.4-0.2,2-2.3,2-3.3C86.4,6.2,84.9,5,83.7,5.5z"/>
<path class="st0" d="M84.8,4.1c0,0-0.6,1.1-0.6,1.6c-0.1,0.4,0.4,1.8,0.6,1.9c0.3,0.2,0-1.5,0.7-1c0.6,0.5,0,1.5,0,1.7
	s0.3,0.8,1,0.9s1.7-3.2,1-4C86.7,4.3,85.5,4.1,84.8,4.1z"/>
<path class="st0" d="M84.9,3.4c0,0-1.1-0.8-2.2,0.1c-1.1,0.9-1.1,2.2-2,2.1c0,0,0.6,1.6,1.9,1.2C84,6.5,85.3,4.4,84.9,3.4z"/>
<path class="st4" d="M88.5,21l-4.1-0.3c0,0-2.1,2.4-4.3,2.4c-2.1,0-7.2,0-7.2,0s0.4,3.3,2.1,5.7c0,0,6.9,0.2,10.2-0.1
	C88.6,28.4,91.8,24.8,88.5,21z"/>
<path class="st4" d="M88.9,21.5c-0.1-0.2-0.2-0.3-0.4-0.5l-4.1-0.3c0,0-2.1,2.3-4.2,2.4C82.7,23.3,87.5,23.9,88.9,21.5z"/>
<path class="st4" d="M74.8,23.6c1-0.1,2.1-0.4,3.1-0.5h-4.5C73.8,23.3,74,23.6,74.8,23.6z"/>
<path class="st5" d="M87.1,11c0,0-1.9,0.7-2.5,0.8c0,0-1.3,2.9-1.8,3.7c-0.5,0.8,1.3,3.8,1.4,5.1c0,0,1.1,1,4.4,0.4
	C88.6,21.1,89.5,12.9,87.1,11z"/>
<path class="st6" d="M87.6,12.8c-0.6-0.3-1.6,0-1.9,0.6c-0.3,0.7,0,2,0,2.8c0,0.8-0.1,1.9-0.3,2.7c-0.2,0.6-0.6,1.4-1.1,2
	c0.4,0.3,1.7,0.8,4.3,0.3c0,0,0.5-5-0.4-8.1C88,12.9,87.8,12.8,87.6,12.8z"/>
<path class="st3" d="M80.2,21.4c-0.3-0.1-0.6-0.2-0.9-0.4c-0.2-0.1-0.5-0.3-0.8-0.2c-0.2,0-1.9,0.7-1.5,1c0.1,0.1,0.5-0.1,0.7-0.1
	c0.2-0.1,0.4-0.2,0.6-0.3c-0.2,0-1.1,0.4-1,0.6c0.2,0.4,1.1-0.1,1.3-0.2c-0.2,0-0.7,0.2-0.7,0.4c0,0.3,0.7,0.1,0.8,0
	c0.1-0.1,0.2-0.1,0.3-0.2c0.1,0,0.3,0,0.4,0.1c0.2,0,0.5,0,0.7,0c0.1,0,0.5,0,0.5-0.1c0.1-0.1,0-0.4-0.1-0.5
	C80.6,21.4,80.4,21.4,80.2,21.4z"/>
<path class="st5" d="M80,21.3l0.4,1.4c0,0,8.9-1,9.1-2.6c0.2-1.6-0.4-8.9-2.5-8.2s0,6.1-0.4,6.5C86.2,18.8,80,21.3,80,21.3z"/>
<path class="st5" d="M107.5,52.8H93.2c-2.7,0-4.6-2.3-3.7-4.4c0,0,0-0.1,0-0.1c1.3-3,5.3-2.2,6.4-0.8c0,0-2.7-4.9,3-4.9
	c4.8,0,3.3,4.7,3.3,4.7s0.9-3.6,3.7-3.4c4.6,0.4,1.9,5,1.9,5s4.6-1,4.5,1.4C112.3,52.8,107.5,52.8,107.5,52.8z"/>
<path class="st5" d="M18.8,54.3H9c-1.8,0-3.1-1.5-2.6-3c0,0,0,0,0-0.1c0.9-2,3.6-1.5,4.4-0.6c0,0-1.8-3.3,2.1-3.3
	c3.3,0,2.3,3.2,2.3,3.2s0.6-2.5,2.6-2.3c3.1,0.3,1.3,3.4,1.3,3.4s3.1-0.7,3.1,1C22.1,54.3,18.8,54.3,18.8,54.3z"/>
<path class="st5" d="M55.5,71.3H35.7c-3.7,0-6.4-3.1-5.2-6.2c0-0.1,0-0.1,0.1-0.2c1.9-4.1,7.4-3,8.9-1.1c0,0-3.7-6.8,4.2-6.8
	c6.7,0,4.6,6.6,4.6,6.6s1.3-5.1,5.2-4.7c6.4,0.6,2.6,7,2.6,7s6.4-1.4,6.3,2S55.5,71.3,55.5,71.3z"/>
<path class="st4" d="M25,27c0-0.3,0.1-0.7,0.1-1c0-0.3,0-0.7-0.1-1l-1.5-0.2c0-0.2-0.1-0.5-0.2-0.7l1.2-1c-0.3-0.6-0.6-1.2-1-1.7
	l-1.5,0.6c-0.2-0.2-0.3-0.3-0.5-0.5l0.6-1.5c-0.5-0.4-1.1-0.7-1.7-1l-1,1.2C19.2,20.1,19,20,18.7,20l-0.2-1.5c-0.3,0-0.7-0.1-1-0.1
	c-0.3,0-0.7,0-1,0.1L16.3,20c-0.2,0-0.5,0.1-0.7,0.2l-1-1.2c-0.6,0.3-1.2,0.6-1.7,1l0.6,1.5c-0.2,0.2-0.3,0.3-0.5,0.5l-1.5-0.6
	c-0.4,0.5-0.7,1.1-1,1.7l1.2,1c-0.1,0.2-0.1,0.5-0.2,0.7L9.9,25c0,0.3-0.1,0.7-0.1,1c0,0.3,0,0.7,0.1,1l1.5,0.2
	c0,0.2,0.1,0.5,0.2,0.7l-1.2,1c0.3,0.6,0.6,1.2,1,1.7l1.5-0.6c0.2,0.2,0.3,0.3,0.5,0.5L12.9,32c0.5,0.4,1.1,0.7,1.7,1l1-1.2
	c0.2,0.1,0.5,0.1,0.7,0.2l0.2,1.5c0.3,0,0.7,0.1,1,0.1c0.3,0,0.7,0,1-0.1l0.2-1.5c0.2,0,0.5-0.1,0.7-0.2l1,1.2
	c0.6-0.3,1.2-0.6,1.7-1l-0.6-1.5c0.2-0.2,0.3-0.3,0.5-0.5l1.5,0.6c0.4-0.5,0.7-1.1,1-1.7l-1.2-1c0.1-0.2,0.1-0.5,0.2-0.7L25,27z
	 M17.5,30c-2.2,0-4-1.8-4-4s1.8-4,4-4s4,1.8,4,4S19.7,30,17.5,30z"/>
<g>
	<path class="st5" d="M17.5,21.5c-2.5,0-4.5,2-4.5,4.5s2,4.5,4.5,4.5s4.5-2,4.5-4.5C22,23.5,20,21.5,17.5,21.5z M17.5,28.8
		c-1.5,0-2.8-1.2-2.8-2.8s1.2-2.8,2.8-2.8c1.5,0,2.8,1.2,2.8,2.8S19,28.8,17.5,28.8z"/>
</g>
<path class="st5" d="M91.5,66.2c0.2-0.3,0.3-0.7,0.5-1s0.2-0.7,0.3-1.1l-1.5-0.8c0-0.3,0.1-0.5,0.1-0.8l1.7-0.6
	c0-0.8-0.2-1.5-0.4-2.2l-1.7,0c-0.1-0.2-0.2-0.5-0.3-0.7l1.1-1.3c-0.4-0.6-0.9-1.2-1.4-1.7l-1.5,0.9c-0.2-0.2-0.4-0.3-0.7-0.5
	l0.3-1.7c-0.3-0.2-0.7-0.3-1-0.5c-0.4-0.1-0.7-0.2-1.1-0.3l-0.8,1.5c-0.3,0-0.5-0.1-0.8-0.1l-0.6-1.7c-0.8,0-1.5,0.2-2.2,0.4l0,1.7
	c-0.2,0.1-0.5,0.2-0.7,0.3l-1.3-1.1c-0.6,0.4-1.2,0.9-1.7,1.4l0.9,1.5c-0.2,0.2-0.3,0.4-0.5,0.7l-1.7-0.3c-0.2,0.3-0.3,0.7-0.5,1
	s-0.2,0.7-0.3,1.1l1.5,0.8c0,0.3-0.1,0.5-0.1,0.8l-1.7,0.6c0,0.8,0.2,1.5,0.4,2.2l1.7,0c0.1,0.2,0.2,0.5,0.3,0.7l-1.1,1.3
	c0.4,0.6,0.9,1.2,1.4,1.7l1.5-0.9c0.2,0.2,0.4,0.3,0.7,0.5l-0.3,1.7c0.3,0.2,0.7,0.3,1,0.5c0.4,0.1,0.7,0.2,1.1,0.3l0.8-1.5
	c0.3,0,0.5,0.1,0.8,0.1l0.6,1.7c0.8,0,1.5-0.2,2.2-0.4l0-1.7c0.2-0.1,0.5-0.2,0.7-0.3l1.3,1.1c0.6-0.4,1.2-0.9,1.7-1.4l-0.9-1.5
	c0.2-0.2,0.3-0.4,0.5-0.7L91.5,66.2z M82.5,66.5c-2.3-0.8-3.5-3.4-2.7-5.7c0.8-2.3,3.4-3.5,5.7-2.7s3.5,3.4,2.7,5.7
	C87.3,66.1,84.8,67.4,82.5,66.5z"/>
<g>
	<path class="st4" d="M85.7,57.6c-2.6-0.9-5.5,0.4-6.4,3c-0.9,2.6,0.4,5.5,3,6.4c2.6,0.9,5.5-0.4,6.4-3S88.3,58.5,85.7,57.6z
		 M82.9,65.3c-1.6-0.6-2.5-2.4-1.9-4c0.6-1.6,2.4-2.5,4-1.9c1.6,0.6,2.5,2.4,1.9,4S84.6,65.8,82.9,65.3z"/>
</g>
<g>
	<g>
		<rect x="8" y="24.8" class="st1" width="1.1" height="0.6"/>
	</g>
	<g>
		<path class="st1" d="M7,25.4h-1v-0.6h1V25.4z M4.9,25.4h-1v-0.6h1V25.4z M2.8,25.4h-1v-0.6h1V25.4z"/>
	</g>
	<g>
		<polygon class="st1" points="0.6,25.6 0,25.6 0,24.8 0.8,24.8 0.8,25.4 0.6,25.4 		"/>
	</g>
	<g>
		<path class="st1" d="M0.6,41.9H0V41h0.6V41.9z M0.6,40.1H0v-0.9h0.6V40.1z M0.6,38.2H0v-0.9h0.6V38.2z M0.6,36.4H0v-0.9h0.6V36.4z
			 M0.6,34.6H0v-0.9h0.6V34.6z M0.6,32.8H0v-0.9h0.6V32.8z M0.6,31H0v-0.9h0.6V31z M0.6,29.2H0v-0.9h0.6V29.2z M0.6,27.4H0v-0.9h0.6
			V27.4z"/>
	</g>
	<g>
		<polygon class="st1" points="0.8,43.6 0,43.6 0,42.8 0.6,42.8 0.6,42.9 0.8,42.9 		"/>
	</g>
	<g>
		<path class="st1" d="M15.3,43.6h-0.9v-0.6h0.9V43.6z M13.5,43.6h-0.9v-0.6h0.9V43.6z M11.7,43.6h-0.9v-0.6h0.9V43.6z M9.9,43.6H9
			v-0.6h0.9V43.6z M8,43.6H7.1v-0.6H8V43.6z M6.2,43.6H5.3v-0.6h0.9V43.6z M4.4,43.6H3.5v-0.6h0.9L4.4,43.6L4.4,43.6z M2.6,43.6H1.7
			v-0.6h0.9V43.6z"/>
	</g>
	<g>
		<polygon class="st1" points="17,43.7 16.4,43.7 16.4,43.6 16.2,43.6 16.2,42.9 17,42.9 		"/>
	</g>
	<g>
		<path class="st1" d="M17,50.7h-0.6v-0.9H17V50.7z M17,48.9h-0.6v-0.9H17V48.9z M17,47.2h-0.6v-0.9H17V47.2z M17,45.4h-0.6v-0.9H17
			V45.4z"/>
	</g>
	<g>
		<polygon class="st1" points="17.1,52.3 16.4,52.3 16.4,51.6 17,51.6 17,51.7 17.1,51.7 		"/>
	</g>
	<g>
		<path class="st1" d="M34,52.3h-0.9v-0.6H34V52.3z M32.2,52.3h-0.9v-0.6h0.9V52.3z M30.3,52.3h-0.9v-0.6h0.9V52.3z M28.4,52.3h-0.9
			v-0.6h0.9V52.3z M26.5,52.3h-0.9v-0.6h0.9V52.3z M24.6,52.3h-0.9v-0.6h0.9V52.3z M22.8,52.3h-0.9v-0.6h0.9V52.3z M20.9,52.3H20
			v-0.6h0.9V52.3z M19,52.3h-0.9v-0.6H19V52.3z"/>
	</g>
	<g>
		<polygon class="st1" points="35.7,52.5 35.1,52.5 35.1,52.3 35,52.3 35,51.7 35.7,51.7 		"/>
	</g>
	<g>
		<path class="st1" d="M35.7,66h-0.6v-1h0.6V66z M35.7,64h-0.6v-1h0.6V64z M35.7,62.1h-0.6v-1h0.6V62.1z M35.7,60.2h-0.6v-1h0.6
			V60.2z M35.7,58.3h-0.6v-1h0.6V58.3z M35.7,56.3h-0.6v-1h0.6V56.3z M35.7,54.4h-0.6v-1h0.6V54.4z"/>
	</g>
	<g>
		<polygon class="st1" points="35.9,67.7 35.1,67.7 35.1,66.9 35.7,66.9 35.7,67.1 35.9,67.1 		"/>
	</g>
	<g>
		<path class="st1" d="M57.4,67.7h-0.9v-0.6h0.9V67.7z M55.6,67.7h-0.9v-0.6h0.9V67.7z M53.8,67.7h-0.9v-0.6h0.9V67.7z M52,67.7
			h-0.9v-0.6H52V67.7z M50.2,67.7h-0.9v-0.6h0.9V67.7z M48.4,67.7h-0.9v-0.6h0.9V67.7z M46.6,67.7h-0.9v-0.6h0.9V67.7z M44.9,67.7
			H44v-0.6h0.9V67.7z M43.1,67.7h-0.9v-0.6h0.9V67.7z M41.3,67.7h-0.9v-0.6h0.9V67.7z M39.5,67.7h-0.9v-0.6h0.9V67.7z M37.7,67.7
			h-0.9v-0.6h0.9V67.7z"/>
	</g>
	<g>
		<polygon class="st1" points="59.1,67.7 58.3,67.7 58.3,67.1 58.4,67.1 58.4,66.9 59.1,66.9 		"/>
	</g>
	<g>
		<path class="st1" d="M59.1,66h-0.6v-0.9h0.6L59.1,66L59.1,66z M59.1,64.2h-0.6v-0.9h0.6L59.1,64.2L59.1,64.2z M59.1,62.3h-0.6
			v-0.9h0.6L59.1,62.3L59.1,62.3z M59.1,60.5h-0.6v-0.9h0.6L59.1,60.5L59.1,60.5z M59.1,58.7h-0.6v-0.9h0.6L59.1,58.7L59.1,58.7z
			 M59.1,56.8h-0.6v-0.9h0.6L59.1,56.8L59.1,56.8z M59.1,55h-0.6v-0.9h0.6L59.1,55L59.1,55z M59.1,53.2h-0.6v-0.9h0.6L59.1,53.2
			L59.1,53.2z M59.1,51.3h-0.6v-0.9h0.6L59.1,51.3L59.1,51.3z M59.1,49.5h-0.6v-0.9h0.6L59.1,49.5L59.1,49.5z M59.1,47.7h-0.6v-0.9
			h0.6L59.1,47.7L59.1,47.7z"/>
	</g>
	<g>
		<polygon class="st1" points="59.1,45.8 58.4,45.8 58.4,45 59.2,45 59.2,45.7 59.1,45.7 		"/>
	</g>
	<g>
		<path class="st1" d="M83,45.7h-0.9V45H83V45.7z M81.1,45.7h-0.9V45h0.9V45.7z M79.3,45.7h-0.9V45h0.9V45.7z M77.5,45.7h-0.9V45
			h0.9V45.7z M75.7,45.7h-0.9V45h0.9V45.7z M73.8,45.7h-0.9V45h0.9V45.7z M72,45.7h-0.9V45H72V45.7z M70.2,45.7h-0.9V45h0.9V45.7z
			 M68.4,45.7h-0.9V45h0.9V45.7z M66.5,45.7h-0.9V45h0.9V45.7z M64.7,45.7h-0.9V45h0.9V45.7z M62.9,45.7H62V45h0.9V45.7z M61,45.7
			h-0.9V45H61V45.7z"/>
	</g>
	<g>
		<polygon class="st1" points="84.7,45.8 84,45.8 84,45.7 83.9,45.7 83.9,45 84.7,45 		"/>
	</g>
	<g>
		<path class="st1" d="M84.7,51.2H84v-0.9h0.6V51.2z M84.7,49.4H84v-0.9h0.6V49.4z M84.7,47.6H84v-0.9h0.6V47.6z"/>
	</g>
	<g>
		<rect x="84" y="52.1" class="st1" width="0.6" height="0.9"/>
	</g>
</g>
</svg>
