<?xml version="1.0" encoding="utf-8"?>
<!-- Generator: Adobe Illustrator 16.0.3, SVG Export Plug-In . SVG Version: 6.00 Build 0)  -->
<!DOCTYPE svg PUBLIC "-//W3C//DTD SVG 1.1//EN" "http://www.w3.org/Graphics/SVG/1.1/DTD/svg11.dtd">
<svg version="1.1" id="Layer_1" xmlns="http://www.w3.org/2000/svg" xmlns:xlink="http://www.w3.org/1999/xlink" x="0px" y="0px"
	 width="112.375px" height="82.766px" viewBox="0 0 112.375 82.766" enable-background="new 0 0 112.375 82.766"
	 xml:space="preserve">
<g>
	<path fill="#939598" d="M5.039,45.584c0-3.5,0.523-6.438,1.57-8.813c0.781-1.75,1.848-3.32,3.199-4.711s2.832-2.422,4.441-3.094
		c2.141-0.906,4.609-1.359,7.406-1.359c5.063,0,9.113,1.57,12.152,4.711s4.559,7.508,4.559,13.102c0,5.547-1.508,9.887-4.523,13.02
		s-7.047,4.699-12.094,4.699c-5.109,0-9.172-1.559-12.188-4.676S5.039,51.053,5.039,45.584z M12.187,45.35
		c0,3.891,0.898,6.84,2.695,8.848s4.078,3.012,6.844,3.012s5.035-0.996,6.809-2.988s2.66-4.98,2.66-8.965
		c0-3.938-0.863-6.875-2.59-8.813s-4.02-2.906-6.879-2.906s-5.164,0.98-6.914,2.941S12.187,41.396,12.187,45.35z"/>
	<path fill="#939598" d="M43.875,62.553V28.193h6.938v15.258l14.016-15.258h9.328L61.218,41.576l13.641,20.977h-8.977l-9.445-16.125
		l-5.625,5.742v10.383H43.875z"/>
	<path fill="#939598" d="M78.468,62.553V28.193H93.07c3.672,0,6.34,0.309,8.004,0.926s2.996,1.715,3.996,3.293s1.5,3.383,1.5,5.414
		c0,2.578-0.758,4.707-2.273,6.387s-3.781,2.738-6.797,3.176c1.5,0.875,2.738,1.836,3.715,2.883s2.293,2.906,3.949,5.578
		l4.195,6.703h-8.297l-5.016-7.477c-1.781-2.672-3-4.355-3.656-5.051s-1.352-1.172-2.086-1.43s-1.898-0.387-3.492-0.387h-1.406
		v14.344H78.468z M85.406,42.725h5.133c3.328,0,5.406-0.141,6.234-0.422s1.477-0.766,1.945-1.453s0.703-1.547,0.703-2.578
		c0-1.156-0.309-2.09-0.926-2.801s-1.488-1.16-2.613-1.348c-0.563-0.078-2.25-0.117-5.063-0.117h-5.414V42.725z"/>
</g>
<g>
	<g>
		<path fill="#0DBAD0" d="M84.626,12.548c0,0-1.58,5.698-2.357,6.631c-0.777,0.932-3.316,2.305-3.316,2.305l0.674,1.191
			c0,0,4.613-2.351,5.414-4.273c0.466-1.12,0.775-2.087,0.932-2.953c0.128-0.705,0.648-2.46,0.389-3.16
			C86.192,11.833,84.988,11.589,84.626,12.548z"/>
		<path opacity="0.65" fill="#05A1CC" d="M84.626,12.548c0,0-1.58,5.698-2.357,6.631c-0.777,0.932-3.316,2.305-3.316,2.305
			l0.674,1.191c0,0,4.613-2.351,5.414-4.273c0.466-1.12,0.775-2.087,0.932-2.953c0.128-0.705,0.648-2.46,0.389-3.16
			C86.192,11.833,84.988,11.589,84.626,12.548z"/>
		<path fill="#170F38" d="M68.794,39.749l-1.164-1.088c0,0-4.656-0.343-4.929,0.065c-0.272,0.409,4.415,2.62,5.018,2.58
			C68.321,41.266,68.716,40.197,68.794,39.749z"/>
		<path fill="#F58668" d="M77.331,23.995c0,0-4.403-1.12-4.767-0.396c-0.362,0.726-4.934,15.062-4.934,15.062l1.164,1.088
			c0,0,4.902-12.101,6.322-13.365S77.986,24.494,77.331,23.995z"/>
		<path fill="#E35A40" d="M77.331,23.995c0,0-4.403-1.12-4.767-0.396c-0.362,0.726-4.934,15.062-4.934,15.062l1.164,1.088
			c0,0,4.902-12.101,6.322-13.365S77.986,24.494,77.331,23.995z"/>
		<g>
			<path fill="#F58668" d="M79.601,21.355c-0.334-0.09-0.609-0.2-0.916-0.368c-0.244-0.134-0.481-0.262-0.776-0.22
				c-0.21,0.03-1.901,0.734-1.451,1.049c0.146,0.103,0.511-0.076,0.657-0.129c0.207-0.074,0.417-0.176,0.615-0.265
				c-0.182-0.009-1.096,0.379-1,0.593c0.168,0.376,1.096-0.126,1.311-0.247c-0.164,0.025-0.737,0.24-0.736,0.449
				c0.001,0.329,0.682,0.055,0.829-0.021c0.109-0.056,0.19-0.136,0.311-0.151c0.142-0.02,0.28,0.045,0.415,0.073
				c0.232,0.05,0.482,0.036,0.721,0.014c0.141-0.013,0.47,0.018,0.539-0.104c0.074-0.128,0.02-0.42-0.09-0.514
				C79.912,21.415,79.751,21.395,79.601,21.355z"/>
			<path fill="#E35A40" d="M79.601,21.355c-0.334-0.09-0.609-0.2-0.916-0.368c-0.244-0.134-0.481-0.262-0.776-0.22
				c-0.21,0.03-1.901,0.734-1.451,1.049c0.146,0.103,0.511-0.076,0.657-0.129c0.207-0.074,0.417-0.176,0.615-0.265
				c-0.182-0.009-1.096,0.379-1,0.593c0.168,0.376,1.096-0.126,1.311-0.247c-0.164,0.025-0.737,0.24-0.736,0.449
				c0.001,0.329,0.682,0.055,0.829-0.021c0.109-0.056,0.19-0.136,0.311-0.151c0.142-0.02,0.28,0.045,0.415,0.073
				c0.232,0.05,0.482,0.036,0.721,0.014c0.141-0.013,0.47,0.018,0.539-0.104c0.074-0.128,0.02-0.42-0.09-0.514
				C79.912,21.415,79.751,21.395,79.601,21.355z"/>
		</g>
		<g>
			<polygon fill="#170F38" points="71.972,13.745 70.937,14.169 74.495,22.754 75.542,22.188 			"/>
			<rect x="75.164" y="22.039" fill="#170F38" width="6.773" height="1.052"/>
		</g>
		<path fill="#170F38" d="M93.916,17.145c-0.906-0.519-1.058-1.09-0.556-2.985c0.501-1.896-0.812-3.861-2.075-4.382
			c-0.928-0.382-1.742-0.551-2.307-1.539c-0.564-0.989,0.506-3.099-1.282-4.661c-1.302-1.139-3.171-0.229-3.171-0.229
			c-0.402-0.222-0.567,2.122-0.597,3.885c2.263,3.465,1.618,7.991,0.794,11.868c-0.021,0.096-0.053,0.178-0.083,0.261
			c0.178,3.001,0.32,5.486,0.32,5.486s5.44,3.08,9.142,0.443C97.8,22.654,95.73,18.184,93.916,17.145z"/>
		<path fill="#170F38" d="M77.917,39.037l-1.381,0.795c0,0-1.693,4.352-1.382,4.731c0.311,0.381,3.799-3.454,3.937-4.041
			C79.23,39.935,78.324,39.245,77.917,39.037z"/>
		<path fill="#F58668" d="M79.679,23.738c0,0-8.876,0.621-9.705,1.416c-0.828,0.794,6.707,14.595,6.707,14.595l1.236-0.712
			c0,0-1.865-6.562-2.349-8.081s-1.416-3.35-1.243-3.592s9.117,1.105,9.049-1.416C83.305,23.426,79.679,23.738,79.679,23.738z"/>
		<path fill="#F58668" d="M84.056,8.766c0,0,0.932,2.538,0.362,4.43l3.108-0.751c0,0-1.271-4.248-1.816-4.974
			C85.167,6.746,84.056,8.766,84.056,8.766z"/>
		<path fill="#E35A40" d="M85.351,11.045c1.018,0,1.545,0.752,1.594,1.539l0.582-0.14c0,0-1.271-4.248-1.816-4.974
			c-0.543-0.726-1.654,1.295-1.654,1.295s0.418,1.143,0.521,2.465C84.794,11.117,85.049,11.045,85.351,11.045z"/>
		<path fill="#F58668" d="M83.734,5.458c0,0-1.207,0.577-1.496,1.063c-0.287,0.487-0.035,1.16-0.06,1.604s-0.146,1.105-0.079,1.214
			s0.512,0,0.584,0.096c0.072,0.097,0.648,0.457,0.829,0.865c0.181,0.409,0.421,0.445,0.841,0.24
			c0.421-0.204,2.031-2.331,2.049-3.328C86.42,6.215,84.93,5.049,83.734,5.458z"/>
		<path fill="#170F38" d="M84.757,4.104c0,0-0.563,1.127-0.622,1.574c-0.058,0.447,0.37,1.768,0.622,1.942
			c0.252,0.176,0.039-1.477,0.68-0.971c0.642,0.505-0.039,1.457,0,1.651s0.33,0.815,0.991,0.874s1.749-3.226,1.03-4.041
			C86.739,4.318,85.515,4.104,84.757,4.104z"/>
		<path fill="#170F38" d="M84.867,3.444c0,0-1.062-0.797-2.169,0.097c-1.107,0.895-1.068,2.234-1.981,2.118
			c0,0,0.602,1.555,1.924,1.186C83.96,6.475,85.328,4.376,84.867,3.444z"/>
		<path fill="#EF4661" d="M88.486,21.009l-4.117-0.311c0,0-2.143,2.392-4.258,2.392c-2.09,0-7.236,0-7.236,0
			s0.392,3.303,2.133,5.691c0,0,6.874,0.216,10.224-0.061C88.582,28.445,91.766,24.751,88.486,21.009z"/>
		<path fill="#E32545" d="M88.87,21.493c-0.118-0.161-0.243-0.322-0.384-0.483l-4.117-0.311c0,0-2.086,2.324-4.174,2.387
			C82.716,23.34,87.535,23.898,88.87,21.493z"/>
		<path fill="#E32545" d="M74.786,23.575c1.049-0.103,2.067-0.354,3.101-0.484h-4.539C73.794,23.321,74.015,23.65,74.786,23.575z"/>
		<path fill="#0DBAD0" d="M87.132,11.01c0,0-1.891,0.744-2.531,0.813c0,0-1.331,2.936-1.849,3.729
			c-0.519,0.795,1.313,3.834,1.416,5.146c0,0,1.101,1.05,4.436,0.404C88.604,21.103,89.474,12.858,87.132,11.01z"/>
		<path opacity="0.65" fill="#05A1CC" d="M87.638,12.764c-0.579-0.265-1.584,0.006-1.865,0.586
			c-0.349,0.718,0.009,1.992-0.033,2.768c-0.045,0.816-0.096,1.901-0.302,2.696c-0.161,0.62-0.566,1.387-1.087,2.014
			c0.428,0.258,1.666,0.776,4.253,0.275c0,0,0.53-5.027-0.353-8.11C88.011,12.911,87.789,12.833,87.638,12.764z"/>
		<path fill="#F58668" d="M80.249,21.355c-0.334-0.09-0.61-0.2-0.915-0.368c-0.246-0.134-0.482-0.262-0.777-0.22
			c-0.209,0.03-1.901,0.734-1.451,1.049c0.146,0.103,0.512-0.076,0.657-0.129c0.208-0.074,0.417-0.176,0.616-0.265
			c-0.182-0.009-1.098,0.379-1.001,0.593c0.169,0.376,1.095-0.126,1.311-0.247c-0.165,0.025-0.737,0.24-0.737,0.449
			c0.002,0.329,0.683,0.055,0.83-0.021c0.109-0.056,0.191-0.136,0.311-0.151c0.143-0.02,0.28,0.045,0.414,0.073
			c0.234,0.05,0.484,0.036,0.722,0.014c0.142-0.013,0.47,0.018,0.54-0.104c0.074-0.128,0.018-0.42-0.092-0.514
			C80.559,21.415,80.399,21.395,80.249,21.355z"/>
		<path fill="#0DBAD0" d="M79.963,21.313l0.362,1.362c0,0,8.91-1.036,9.117-2.616c0.208-1.579-0.361-8.935-2.512-8.171
			s-0.025,6.1-0.363,6.514C86.232,18.816,79.963,21.313,79.963,21.313z"/>
	</g>
	<path fill="#2BC2DD" d="M107.5,52.77H93.223c-2.666,0-4.571-2.254-3.727-4.44c0.014-0.035,0.026-0.072,0.043-0.108
		c1.344-2.954,5.313-2.176,6.363-0.804c0,0-2.682-4.858,3.045-4.858c4.805,0,3.318,4.723,3.318,4.723s0.903-3.643,3.725-3.366
		c4.568,0.448,1.852,4.998,1.852,4.998s4.578-1.029,4.533,1.434C112.33,52.811,107.5,52.77,107.5,52.77z"/>
	<path fill="#2BC2DD" d="M18.767,54.313H8.972c-1.829,0-3.136-1.546-2.557-3.046c0.009-0.024,0.018-0.05,0.03-0.075
		c0.922-2.026,3.645-1.492,4.366-0.551c0,0-1.84-3.333,2.089-3.333c3.296,0,2.276,3.239,2.276,3.239s0.62-2.499,2.556-2.309
		c3.134,0.308,1.271,3.429,1.271,3.429s3.141-0.706,3.11,0.983C22.081,54.341,18.767,54.313,18.767,54.313z"/>
	<path fill="#2BC2DD" d="M55.528,71.314H35.666c-3.709,0-6.361-3.137-5.186-6.178c0.02-0.051,0.037-0.102,0.06-0.152
		c1.87-4.11,7.391-3.026,8.854-1.117c0,0-3.73-6.76,4.237-6.76c6.685,0,4.616,6.57,4.616,6.57s1.257-5.068,5.182-4.683
		c6.357,0.623,2.577,6.953,2.577,6.953s6.37-1.433,6.307,1.995S55.528,71.314,55.528,71.314z"/>
	<g>
		<path fill="#EF4661" d="M25.042,27.001c0.043-0.328,0.073-0.66,0.073-0.999c0-0.34-0.03-0.672-0.073-0.999l-1.54-0.241
			c-0.048-0.235-0.114-0.465-0.188-0.689l1.222-0.985c-0.258-0.622-0.6-1.199-1.005-1.726l-1.461,0.563
			c-0.158-0.177-0.325-0.344-0.501-0.501l0.564-1.462c-0.527-0.405-1.104-0.747-1.726-1.005l-0.986,1.222
			c-0.225-0.074-0.453-0.141-0.688-0.188l-0.241-1.54c-0.328-0.043-0.66-0.073-0.999-0.073c-0.34,0-0.671,0.03-0.999,0.073
			l-0.242,1.54c-0.235,0.048-0.464,0.114-0.688,0.188l-0.986-1.222c-0.623,0.258-1.199,0.6-1.726,1.005l0.564,1.462
			c-0.177,0.157-0.344,0.324-0.501,0.501l-1.461-0.563c-0.405,0.526-0.747,1.104-1.005,1.726l1.221,0.985
			c-0.075,0.225-0.14,0.454-0.188,0.689l-1.54,0.241c-0.043,0.327-0.073,0.659-0.073,0.999c0,0.339,0.03,0.671,0.073,0.999
			l1.54,0.241c0.048,0.235,0.114,0.464,0.188,0.688l-1.221,0.985c0.258,0.623,0.6,1.2,1.005,1.727l1.461-0.564
			c0.158,0.177,0.325,0.344,0.501,0.502l-0.564,1.461c0.527,0.405,1.104,0.747,1.726,1.005l0.986-1.222
			c0.225,0.075,0.453,0.141,0.688,0.188l0.242,1.54c0.328,0.043,0.659,0.073,0.999,0.073c0.339,0,0.671-0.03,0.999-0.073l0.241-1.54
			c0.235-0.048,0.464-0.113,0.688-0.188l0.986,1.222c0.623-0.258,1.199-0.6,1.726-1.005l-0.564-1.461
			c0.177-0.158,0.344-0.325,0.501-0.502l1.461,0.564c0.405-0.526,0.747-1.104,1.005-1.727l-1.222-0.985
			c0.074-0.225,0.14-0.453,0.188-0.688L25.042,27.001z M17.491,29.992c-2.205,0-3.991-1.786-3.991-3.99s1.787-3.991,3.991-3.991
			c2.204,0,3.991,1.787,3.991,3.991S19.695,29.992,17.491,29.992z"/>
		<g>
			<path fill="#170F38" d="M17.491,21.514c-2.479,0-4.488,2.009-4.488,4.488c0,2.479,2.009,4.487,4.488,4.487
				c2.479,0,4.488-2.009,4.488-4.487C21.979,23.522,19.97,21.514,17.491,21.514z M17.491,28.792c-1.542,0-2.791-1.249-2.791-2.79
				s1.249-2.791,2.791-2.791c1.541,0,2.79,1.25,2.79,2.791S19.032,28.792,17.491,28.792z"/>
		</g>
	</g>
	<g>
		<path fill="#2BC2DD" d="M91.542,66.219c0.169-0.328,0.325-0.666,0.453-1.022s0.221-0.717,0.299-1.077l-1.527-0.833
			c0.038-0.266,0.055-0.53,0.062-0.795l1.654-0.576c-0.037-0.751-0.179-1.486-0.407-2.191l-1.748,0.042
			c-0.099-0.244-0.211-0.483-0.338-0.715l1.143-1.324c-0.401-0.623-0.879-1.2-1.436-1.705L88.2,56.935
			c-0.208-0.163-0.424-0.318-0.652-0.457l0.325-1.709c-0.328-0.169-0.665-0.325-1.022-0.452c-0.356-0.128-0.717-0.222-1.077-0.3
			l-0.833,1.527c-0.266-0.037-0.53-0.055-0.795-0.061l-0.576-1.654c-0.751,0.036-1.486,0.179-2.191,0.406l0.043,1.748
			c-0.245,0.099-0.484,0.212-0.716,0.338l-1.323-1.142c-0.624,0.4-1.2,0.879-1.705,1.436l0.912,1.495
			c-0.162,0.208-0.318,0.424-0.457,0.653l-1.709-0.326c-0.168,0.328-0.324,0.666-0.452,1.022s-0.222,0.717-0.3,1.077l1.527,0.833
			c-0.037,0.266-0.055,0.53-0.061,0.795l-1.654,0.576c0.037,0.751,0.18,1.486,0.406,2.192l1.748-0.043
			c0.1,0.245,0.212,0.483,0.338,0.715l-1.142,1.324c0.401,0.624,0.878,1.2,1.436,1.705l1.495-0.913
			c0.209,0.163,0.424,0.318,0.653,0.457l-0.325,1.71c0.328,0.168,0.665,0.324,1.021,0.452c0.357,0.127,0.717,0.221,1.078,0.299
			l0.832-1.527c0.266,0.037,0.531,0.055,0.795,0.061l0.576,1.655c0.752-0.037,1.486-0.18,2.192-0.407l-0.043-1.748
			c0.245-0.099,0.483-0.212,0.716-0.338l1.323,1.143c0.624-0.401,1.2-0.879,1.705-1.437l-0.913-1.495
			c0.163-0.208,0.318-0.424,0.457-0.653L91.542,66.219z M82.481,66.522c-2.316-0.829-3.521-3.379-2.693-5.695
			c0.83-2.316,3.379-3.522,5.695-2.693s3.522,3.38,2.693,5.695C87.347,66.146,84.797,67.352,82.481,66.522z"/>
		<g>
			<path fill="#170F38" d="M85.67,57.611c-2.604-0.932-5.473,0.424-6.404,3.028c-0.933,2.605,0.423,5.473,3.027,6.405
				c2.605,0.932,5.473-0.424,6.405-3.028S88.276,58.544,85.67,57.611z M82.932,65.261c-1.619-0.58-2.462-2.362-1.883-3.982
				c0.58-1.619,2.363-2.462,3.982-1.883c1.619,0.58,2.463,2.363,1.883,3.982S84.552,65.84,82.932,65.261z"/>
		</g>
	</g>
	<g>
		<g>
			<rect x="8.006" y="24.783" fill="#170F38" width="1.102" height="0.644"/>
		</g>
		<g>
			<path fill="#170F38" d="M6.974,25.427H5.942v-0.644h1.032V25.427z M4.91,25.427H3.878v-0.644H4.91V25.427z M2.846,25.427H1.814
				v-0.644h1.032V25.427z"/>
		</g>
		<g>
			<polygon fill="#170F38" points="0.645,25.565 0,25.565 0,24.783 0.783,24.783 0.783,25.427 0.645,25.427 			"/>
		</g>
		<g>
			<path fill="#170F38" d="M0.645,41.865H0V40.96h0.645V41.865z M0.645,40.055H0v-0.905h0.645V40.055z M0.645,38.244H0v-0.907h0.645
				V38.244z M0.645,36.432H0v-0.905h0.645V36.432z M0.645,34.621H0v-0.905h0.645V34.621z M0.645,32.81H0v-0.905h0.645V32.81z
				 M0.645,30.999H0v-0.906h0.645V30.999z M0.645,29.188H0v-0.905h0.645V29.188z M0.645,27.376H0v-0.905h0.645V27.376z"/>
		</g>
		<g>
			<polygon fill="#170F38" points="0.783,43.553 0,43.553 0,42.771 0.645,42.771 0.645,42.909 0.783,42.909 			"/>
		</g>
		<g>
			<path fill="#170F38" d="M15.313,43.553h-0.908v-0.644h0.908V43.553z M13.497,43.553h-0.908v-0.644h0.908V43.553z M11.681,43.553
				h-0.908v-0.644h0.908V43.553z M9.864,43.553H8.956v-0.644h0.908V43.553z M8.048,43.553H7.14v-0.644h0.908V43.553z M6.232,43.553
				H5.324v-0.644h0.908V43.553z M4.416,43.553H3.507v-0.644h0.908V43.553z M2.599,43.553H1.691v-0.644h0.908V43.553z"/>
		</g>
		<g>
			<polygon fill="#170F38" points="17.004,43.691 16.359,43.691 16.359,43.553 16.221,43.553 16.221,42.909 17.004,42.909 			"/>
		</g>
		<g>
			<path fill="#170F38" d="M17.004,50.686h-0.645v-0.874h0.645V50.686z M17.004,48.938h-0.645v-0.874h0.645V48.938z M17.004,47.189
				h-0.645v-0.875h0.645V47.189z M17.004,45.44h-0.645v-0.874h0.645V45.44z"/>
		</g>
		<g>
			<polygon fill="#170F38" points="17.142,52.342 16.359,52.342 16.359,51.56 17.004,51.56 17.004,51.698 17.142,51.698 			"/>
		</g>
		<g>
			<path fill="#170F38" d="M34.027,52.342h-0.938v-0.644h0.938V52.342z M32.151,52.342h-0.938v-0.644h0.938V52.342z M30.275,52.342
				h-0.938v-0.644h0.938V52.342z M28.399,52.342h-0.938v-0.644h0.938V52.342z M26.523,52.342h-0.938v-0.644h0.938V52.342z
				 M24.647,52.342h-0.938v-0.644h0.938V52.342z M22.771,52.342h-0.938v-0.644h0.938V52.342z M20.895,52.342h-0.938v-0.644h0.938
				V52.342z M19.019,52.342h-0.938v-0.644h0.938V52.342z"/>
		</g>
		<g>
			<polygon fill="#170F38" points="35.748,52.48 35.104,52.48 35.104,52.342 34.965,52.342 34.965,51.698 35.748,51.698 			"/>
		</g>
		<g>
			<path fill="#170F38" d="M35.748,65.965h-0.645v-0.963h0.645V65.965z M35.748,64.039h-0.645v-0.963h0.645V64.039z M35.748,62.112
				h-0.645v-0.963h0.645V62.112z M35.748,60.186h-0.645v-0.963h0.645V60.186z M35.748,58.259h-0.645v-0.963h0.645V58.259z
				 M35.748,56.333h-0.645V55.37h0.645V56.333z M35.748,54.406h-0.645v-0.963h0.645V54.406z"/>
		</g>
		<g>
			<polygon fill="#170F38" points="35.886,67.711 35.104,67.711 35.104,66.929 35.748,66.929 35.748,67.067 35.886,67.067 			"/>
		</g>
		<g>
			<path fill="#170F38" d="M57.405,67.711h-0.896v-0.644h0.896V67.711z M55.612,67.711h-0.896v-0.644h0.896V67.711z M53.818,67.711
				h-0.897v-0.644h0.897V67.711z M52.025,67.711h-0.896v-0.644h0.896V67.711z M50.232,67.711h-0.896v-0.644h0.896V67.711z
				 M48.438,67.711h-0.896v-0.644h0.896V67.711z M46.646,67.711h-0.897v-0.644h0.897V67.711z M44.852,67.711h-0.896v-0.644h0.896
				V67.711z M43.059,67.711h-0.896v-0.644h0.896V67.711z M41.266,67.711h-0.897v-0.644h0.897V67.711z M39.472,67.711h-0.896v-0.644
				h0.896V67.711z M37.679,67.711h-0.896v-0.644h0.896V67.711z"/>
		</g>
		<g>
			<polygon fill="#170F38" points="59.084,67.711 58.301,67.711 58.301,67.067 58.44,67.067 58.44,66.929 59.084,66.929 			"/>
		</g>
		<g>
			<path fill="#170F38" d="M59.084,66.012H58.44v-0.917h0.645V66.012z M59.084,64.178H58.44v-0.919h0.645V64.178z M59.084,62.342
				H58.44v-0.917h0.645V62.342z M59.084,60.508H58.44V59.59h0.645V60.508z M59.084,58.673H58.44v-0.917h0.645V58.673z
				 M59.084,56.838H58.44v-0.917h0.645V56.838z M59.084,55.003H58.44v-0.917h0.645V55.003z M59.084,53.169H58.44v-0.917h0.645
				V53.169z M59.084,51.334H58.44v-0.918h0.645V51.334z M59.084,49.499H58.44v-0.917h0.645V49.499z M59.084,47.664H58.44v-0.917
				h0.645V47.664z"/>
		</g>
		<g>
			<polygon fill="#170F38" points="59.084,45.83 58.44,45.83 58.44,45.048 59.222,45.048 59.222,45.691 59.084,45.691 			"/>
		</g>
		<g>
			<path fill="#170F38" d="M82.966,45.691h-0.913v-0.644h0.913V45.691z M81.14,45.691h-0.913v-0.644h0.913V45.691z M79.314,45.691
				h-0.913v-0.644h0.913V45.691z M77.487,45.691h-0.912v-0.644h0.912V45.691z M75.661,45.691h-0.914v-0.644h0.914V45.691z
				 M73.834,45.691H72.92v-0.644h0.914V45.691z M72.008,45.691h-0.914v-0.644h0.914V45.691z M70.181,45.691h-0.913v-0.644h0.913
				V45.691z M68.355,45.691h-0.913v-0.644h0.913V45.691z M66.529,45.691h-0.913v-0.644h0.913V45.691z M64.702,45.691h-0.913v-0.644
				h0.913V45.691z M62.875,45.691h-0.914v-0.644h0.914V45.691z M61.049,45.691h-0.914v-0.644h0.914V45.691z"/>
		</g>
		<g>
			<polygon fill="#170F38" points="84.663,45.83 84.018,45.83 84.018,45.691 83.879,45.691 83.879,45.048 84.663,45.048 			"/>
		</g>
		<g>
			<path fill="#170F38" d="M84.663,51.188h-0.645v-0.894h0.645V51.188z M84.663,49.402h-0.645V48.51h0.645V49.402z M84.663,47.615
				h-0.645v-0.893h0.645V47.615z"/>
		</g>
		<g>
			<rect x="84.018" y="52.082" fill="#170F38" width="0.645" height="0.877"/>
		</g>
	</g>
</g>
</svg>
