<?xml version="1.0" encoding="utf-8"?>
<!-- Generator: Adobe Illustrator 24.3.0, SVG Export Plug-In . SVG Version: 6.00 Build 0)  -->
<svg version="1.1" id="Layer_1" xmlns="http://www.w3.org/2000/svg" xmlns:xlink="http://www.w3.org/1999/xlink" x="0px" y="0px"
	 viewBox="0 0 86.8 90" style="enable-background:new 0 0 86.8 90;" xml:space="preserve">
<style type="text/css">
	.st0{fill:#B81F40;}
	.st1{fill:#FFFFFF;}
	.st2{fill:#E7795D;}
	.st3{fill:#489FC0;}
	.st4{fill:#575757;}
	.st5{fill:#B2B2B2;}
	.st6{fill:#F58668;}
	.st7{fill:#F0F0F0;}
</style>
<circle class="st0" cx="37.8" cy="45.9" r="37.8"/>
<circle class="st1" cx="37.8" cy="45.9" r="28.7"/>
<circle class="st0" cx="37.8" cy="45.9" r="20.5"/>
<circle class="st1" cx="37.8" cy="45.9" r="14.1"/>
<circle class="st0" cx="37.8" cy="45.9" r="6.5"/>
<path class="st2" d="M54.7,29c0,0-0.6,1.3-0.5,1.3s-0.8-0.4-0.9-0.4c-0.1,0-0.8,0-1.1-0.1c-0.3-0.1-0.5-0.3-0.6-0.3
	c-0.1-0.1-0.3-0.3-0.1-0.3c0.1,0,0.3,0.1,0.4,0.2c0.1,0,0.4,0,0.4,0s-0.1-0.1-0.4-0.1c-0.3-0.1-0.7-0.3-0.8-0.4
	c-0.1-0.1-0.1-0.3,0.2-0.2c0.3,0,0.5,0.2,0.5,0.2c0,0,0.5,0.2,0.5,0.2s-0.4-0.1-0.5-0.2c-0.1-0.1-0.5-0.2-0.8-0.3
	c-0.2-0.1-0.2-0.4,0-0.4c0.2,0,0.7,0.3,0.8,0.3s0.5,0.2,0.5,0.2s-0.5-0.2-0.5-0.3s-0.6-0.2-0.6-0.4c0-0.1,0-0.2,0.2-0.2
	c0.2,0,0.5,0.1,0.6,0.2c0.1,0.1,0.8,0.4,1,0.4c0.1,0,0.3,0,0.3-0.2l0.2-0.5c0,0,0.2,0.1,0.3,0.5C53.8,28.5,54.2,28.8,54.7,29z"/>
<g>
	<g>
		<path class="st3" d="M69.7,34.3c0-1.1-0.9-2-2-2.2c-1.8-0.3-5.2-0.8-6.2-1c-1.4-0.3-7.1-2.2-7.1-2.2l-0.6,1.5c0,0,6.2,3.1,7.4,3.4
			s6.9,2.3,8,1.6C69.6,35.2,69.7,34.8,69.7,34.3z"/>
	</g>
</g>
<g>
	<polygon class="st4" points="74.3,49.3 73.9,48.3 57.7,48.3 58.1,49.3 	"/>
	<polygon class="st4" points="76.2,55.1 75.9,54 59.5,54 59.9,55.1 	"/>
	<polygon class="st4" points="71.8,43.6 71.5,42.5 55.3,42.5 55.6,43.6 	"/>
	<polygon class="st4" points="78.2,61 77.8,59.9 61.4,59.9 61.8,61 	"/>
	<polygon class="st4" points="80.1,66.9 79.8,65.7 63.3,65.7 63.6,66.9 	"/>
	<polygon class="st4" points="82.1,72.8 81.7,71.7 65.2,71.7 65.5,72.8 	"/>
	<polygon class="st4" points="84.1,78.9 83.8,77.7 67.1,77.7 67.5,78.9 	"/>
	<path class="st4" d="M86,87.6L86,87.6c0.6,0,0.9-0.5,0.8-1L71.6,41c-0.1-0.3-0.4-0.5-0.7-0.5h-1.1L85.3,87
		C85.4,87.4,85.7,87.6,86,87.6z"/>
	<path class="st4" d="M69.5,87.6L69.5,87.6c0.6,0,1-0.5,0.8-1L55.7,41c-0.1-0.3-0.4-0.5-0.7-0.5h0c-0.5,0-0.9,0.5-0.7,1L68.8,87
		C68.9,87.3,69.2,87.6,69.5,87.6z"/>
</g>
<path class="st2" d="M69.5,27.2c0,0-0.1,0.1-0.1,0.1c-0.3,0.3-0.7,0.6-1,0.9c-0.2,0.2-0.6,0.3-0.8,0.4c-0.1,0.1-0.2,0.1-0.2,0.2
	c0.1,0.6,0.4,2.3,0.4,3c0,0,2.1-0.1,2.8-1C70.5,30.8,69.6,28.5,69.5,27.2z"/>
<path class="st2" d="M68.4,30.6c0.1-0.6,0.5-1.2,0.9-1.5c0.2-0.1,0.3-0.3,0.5-0.4c-0.1-0.5-0.3-1.1-0.3-1.5c0,0-0.1,0.1-0.1,0.1
	c-0.3,0.3-0.7,0.6-1,0.9c-0.2,0.2-0.6,0.3-0.8,0.4c-0.1,0.1-0.2,0.1-0.2,0.2c0.1,0.6,0.4,2.3,0.4,3c0,0,0.4,0,0.8-0.1
	C68.3,31.3,68.3,31,68.4,30.6z"/>
<path class="st3" d="M68.3,63.8c0,0-0.1,2-0.4,2.3c-0.3,0.3-4.4,0.4-4.7,0c-0.3-0.4-0.1-1,0.7-1.2c0.9-0.3,1.4,0,2-0.2
	c0.6-0.2,0.4-1.2,0.4-1.2L68.3,63.8z"/>
<path class="st3" d="M78.4,63.7c0,0,0.3,2,0,2.3c-0.3,0.3-4.5,0.6-4.8,0.3c-0.4-0.4-0.2-1,0.7-1.3c0.9-0.3,1.4-0.1,2-0.3
	c0.5-0.2,0.2-1.1,0.2-1.1L78.4,63.7z"/>
<g>
	<path class="st5" d="M75.4,52.3c0.1-5.7-0.6-9.6-0.9-11.4c-0.7,0-1.4,0.1-2,0.4c-1.2,0.6-2.5,1.1-3.7,1.7c1,2.1,3.2,8.9,3.5,10.4
		c0.3,1.8,4.1,10.9,4.1,10.9l2.3-0.3C78.6,62.4,75.4,52.8,75.4,52.3z"/>
	<path class="st5" d="M70.8,42.1c-0.7,0.3-1.3,0.6-2,0.8c1,2.1,2.8,7.8,3.2,9.3c0.3-1,1.8-3.3,2.4-5.8c0.4-1.7,0.5-3.4,0.2-5.2
		c0,0,0,0,0,0C73.4,41.3,72.1,41.4,70.8,42.1z"/>
	<path class="st5" d="M72.5,41.8c-0.9,0.3-2.5,0.7-3.7,1.2c-0.8,2.1-3.3,7.1-3.5,9.4c-0.1,2.5,0.7,12,0.7,12h2.6
		c0,0,0.2-10.7,0.6-11.4c1.2-2.3,2.5-4.1,3.3-5.5c1.3-2.4,1.7-3.9,1.9-5c0.1-0.5,0.5-2.1-0.3-2.6C73.4,40,73.2,41.5,72.5,41.8z"/>
</g>
<g>
	<path class="st3" d="M67.9,43.4c0,0,2.2,0.9,4.3,0.7c1.6-0.2,2.4-0.2,3.3-0.7c0,0-1-7.7-2.1-10.1c-1.1-2.4-3-2.9-3-2.9
		s-1.5,0.9-2.7,0.8c0,0,0,4.7,0.1,6.6C67.9,39.8,67.9,43.4,67.9,43.4z"/>
	<path class="st3" d="M67.7,37.2c0-0.2,0-0.4,0-0.7c0,0,0-0.1,0-0.1c0-0.2,0-0.5,0-0.7c0,0,0-0.1,0-0.1c0-0.3,0-0.5,0-0.8
		c0,0,0,0,0,0c0.1,0,0.2,0,0.3,0c0.8-0.1,1.4-0.6,2.1-1c0.1-0.1,0.2-0.1,0.3-0.2c0.1,1-0.3,2.2-0.5,3.1c-0.5,2.2-0.8,5-0.4,7.2
		c-1-0.2-1.6-0.5-1.6-0.5s0-3.7-0.1-5.6c0-0.2,0-0.4,0-0.6C67.8,37.3,67.8,37.2,67.7,37.2z"/>
</g>
<path class="st2" d="M70.5,25.3c0,0-0.9-1.8-2-1.8c-1.2,0.1-1.9,0.3-2.1,0.7c-0.2,0.5-0.4,1.7-0.7,2.1c-0.3,0.5-0.9,1.1-0.9,1.3
	c0,0.2,0.7,0.3,0.7,0.4s0.4,1.6,0.6,1.8c0.2,0.2,2.5-0.7,2.8-1.4C69.3,27.7,70.6,26.4,70.5,25.3z"/>
<path class="st4" d="M68.1,25.4c-0.1,0-0.3,0.1-0.3,0.1c-0.2,0-0.3,0-0.5,0.1c-0.3,0.1-0.7,0.1-1,0c-0.5-0.2-0.3-0.7-0.6-1
	c-0.1-0.2-0.4-0.2-0.5-0.4C65.1,24,65,23.8,65,23.6c0-0.5,0.5-0.6,0.9-0.7c0.5-0.1,0.5-0.4,0.7-0.7c0.6-0.9,1.4,0.3,2,0.3
	c0.3,0,0.7-0.2,1-0.1c0.3,0.2,0.4,0.4,0.6,0.7c0.2,0.2,0.4,0.1,0.6,0.3c0.2,0.1,0.4,0.3,0.6,0.4c0.3,0.4,0.5,0.9,0.4,1.4
	c-0.1,0.4-0.4,0.6-0.4,1.1c0,0.3,0,0.8-0.2,1.1c-0.2,0.5-0.8,0.5-1.1,0.8c-0.3,0.3-0.8,0.5-1.3,0.4c0-0.3,0-0.9,0.3-1
	c0.1-0.1,0.3-0.1,0.4-0.2c0.3-0.3,0.1-0.9-0.5-0.8c-0.4,0.1-0.5,1.1-0.9,0.9c-0.3-0.1,0.1-0.6,0.1-0.8c0.1-0.2,0.2-0.8,0-1
	C68.2,25.4,68.2,25.4,68.1,25.4z"/>
<path class="st2" d="M58.4,43.5c-0.1,0-0.3,0-0.3,0c-0.2,0.1-0.5,0-0.7-0.1c-0.3-0.1-0.8-0.3-1.1-0.3c-0.2,0-1.3,0.3-1,0.8
	c0,0.1,0.2,0.2,0.2,0.1c0.1,0,0.4-0.2,0.4-0.2s-0.2,0.1-0.3,0.1c0,0-0.1,0.1-0.2,0.1c-0.1,0.1,0,0.3,0.1,0.3c0.1,0,0.2-0.1,0.3-0.1
	c0,0,0,0,0,0c-0.1,0.1-0.2,0.1-0.1,0.3c0.1,0.3,0.2,0.1,0.3,0.1c0,0,0.1,0,0.1,0c0,0-0.2,0.1-0.2,0.1c-0.1,0.1,0.1,0.4,0.3,0.4
	c0.1,0,0.4-0.2,0.5-0.2c0.1,0,0.2,0,0.3,0c0.3,0,0.5,0,0.8-0.2c0.1,0,0.3-0.1,0.4-0.2c0.3-0.1,0.5-0.4,0.6-0.4
	C58.6,43.9,58.3,43.9,58.4,43.5z"/>
<path class="st3" d="M58.8,44.9l-0.9-1.8c0,0,4.5-2.9,6.1-4.5c1.6-1.7,3.4-5,4.7-5.2c1.3-0.2,2.5,0.5,1.8,2.2s-4.4,4.1-5.1,4.8
	S59.5,44.5,58.8,44.9z"/>
<path class="st0" d="M71.2,2.4c-0.8-0.3-3.4-1.7-5.4,3.2c-2,4.6-4,10.9-4,10.9s5.1-4.2,8.7-7.7C74.3,5.1,72,2.9,71.2,2.4z"/>
<path class="st4" d="M66.9,6.1l-4.9,5c-1.5,1.5-2.8,3.2-4,4.9L38,45.9l22.7-24.5c2.6-2.8,4.7-5.9,6.2-9.4l1.9-4.2
	C68,7.4,67.4,6.8,66.9,6.1z"/>
<path class="st0" d="M61,16.9c0,0-3.3-9.2-0.2-15.1c3.1-6,7.1,5.4,7.1,5.4L61,16.9z"/>
<path class="st0" d="M60.9,16.8c0,0,9.8,0,14.3-4.9S67.8,7,67.8,7L60.9,16.8z"/>
<path class="st6" d="M53.6,29c-0.1,0-0.2,0.2-0.2,0.1c0,0,0-0.2,0-0.2c0-0.2-0.8-0.2-0.9-0.3c-0.5-0.3-0.3-0.6-0.1-0.5
	c0.2,0,0.5,0.2,0.6,0.2c0.1,0.1,0.4,0,0.5,0.1c0.1,0,0.5,0.4,0.6,0.5C54.5,29,53.9,29.1,53.6,29z"/>
<path class="st3" d="M18.4,58c0,0-4,1-7,3.2s-6.2,9.2-6.8,14s-1.8,8.7,0,11.2c1.8,2.5,7.8,3,13,3.5c5.1,0.5,12.2-0.7,13.7-2.5
	s1.3-15.3-1.4-20.5C27.1,61.8,22.3,57.9,18.4,58z"/>
<path class="st3" d="M25.2,87.1c-1-0.3-2.1-0.7-3-1.4c-1.8-1.5-2.9-2-5.2-1.9c-2.1,0-4.1,0-5.9-1.2c-1.6-1.1-2.5-3.4-2.1-5.3
	c0.3-1.3,0.7-2.4,1.5-3.5c1.2-1.6,1.4-2.7,1-4.6c-0.5-2.3-0.6-4.3,0.1-6.6c0.4-1.2,1.2-2.1,2.1-2.8c-0.8,0.4-1.7,0.9-2.5,1.5
	c-3,2.2-6.2,9.2-6.8,14s-1.8,8.7,0,11.2c1.8,2.5,7.8,3,13,3.5c5.1,0.5,12.2-0.7,13.7-2.5c0.3-0.3,0.5-1.1,0.6-2.2
	C30.1,86.9,27.7,88,25.2,87.1z"/>
<path class="st3" d="M17.8,59c0,0-4.3-1-4.9-4.3c-0.6-3.3,1.1-4.4,2.5-3.6c1.3,0.8,1.5,0.3,2.5-0.2c0.9-0.6,2.3,0.4,2.9,1.3
	s0.8-0.2,2.4-0.3c1.6-0.1,2.1,1.3,1.3,3.3S22.8,59.1,17.8,59z"/>
<g>
	<path class="st3" d="M22.5,57.1c-1.1,0.3-0.5-1.2-0.6-1.7c-0.3,0-0.4,0.5-0.5,0.7c-0.2,0.5-0.7,0.8-1.2,0.8c-0.7,0-0.8-0.8-1.1-1.2
		c-0.1-0.2-0.2-0.2-0.3,0c-0.1,0.3,0,0.6-0.2,0.8c-0.4,0.4-1.2-0.1-1.5-0.4c-0.4-0.3-0.5-0.9-0.9-1.2C16,55.1,16,55.2,16,55.3
		c-0.1,0.5-0.1,1.4-0.8,1.2c-0.6-0.1-1.1-1.2-1.3-1.7c-0.2-0.6-0.5-1.4-0.5-2c0-0.3,0-0.6,0.1-0.9c0-0.2,0.1-0.5,0.2-0.7l0,0
		c-0.6,0.5-1,1.7-0.7,3.5c0.5,2.8,3.7,4,4.6,4.2c0.2,0,0.3,0.1,0.5,0.1c3.9,0,5.2-1.4,5.9-2.9c0,0,0,0,0,0
		C24,56.1,22.9,57,22.5,57.1z"/>
</g>
<g>
	<g>
		<path class="st7" d="M19.6,68.7c2.1,0.2,4,1.2,4,3.3l-3.5-0.1c0-0.8-0.8-1-1.3-1c-0.3,0-1.4,0-1.4,0.6c0,1.5,6.5,0.1,6.4,4.2
			c0,2.5-2,3.3-4.4,3.5l0.1,2.6l-2.2,0l0.2-2.6c-2.2-0.3-4.2-1.3-4.2-3.6l3.5,0.1l0,0.1c0,1,1.1,1.2,1.6,1.2c0.5,0,1.6,0,1.6-0.7
			c0-1.5-6.5-0.2-6.4-4.2c0-2.3,1.8-3.1,4-3.3l-0.1-2.6l2.2,0L19.6,68.7z"/>
	</g>
</g>
<path class="st4" d="M14.7,57.4l-0.4,2.1c0,0,1.1,1.1,4.1,1.1s4.6-1.1,4.6-1.1l-0.2-1.9C22.8,57.6,18.7,58.7,14.7,57.4z"/>
</svg>
