<?xml version="1.0" encoding="utf-8"?>
<!-- Generator: Adobe Illustrator 24.3.0, SVG Export Plug-In . SVG Version: 6.00 Build 0)  -->
<svg version="1.1" id="Layer_1" xmlns="http://www.w3.org/2000/svg" x="0px" y="0px" viewBox="0 0 106.5 82" style="enable-background:new 0 0 106.5 82;" xml:space="preserve">
<style type="text/css">
	.st0{fill:#489FC0;}
	.st1{fill:#FFFFFF;}
	.st2{fill:#B2B2B2;}
	.st3{fill:#575757;}
	.st4{fill:#F0F0F0;}
	.st5{fill:#B81F40;}
	.st6{fill:#E7795D;}
</style>
<path class="st0" d="M42.9,62.7C39,58.3,27.6,52.3,30.6,45.5c2.6-5.8,14.9-5.1,13.4-12.1c-0.9-4.1-2-7.7,0.7-12.4
	c2.9-5.1,11.6-2.3,14.7-7.1c2.6-4.1-0.8-10.4,4.6-13.2C68.6-1.8,74.4,3,75.3,7.2c1.1,5.3-4.1,7.7-4.8,12.3c-0.4,2.9,2.2,3.9,3.8,6
	c1.5,2,2.8,4.8,2.9,7.2c0.3,7.3-7.7,8.2-11.5,12.8c-3.5,4.3,3,7,2,11.7c-1,5-8.2,7.8-13.2,7.7C50.9,64.9,45.3,65.4,42.9,62.7z"/>
<g>
	<path class="st1" d="M48,65.1C48,65.1,47.9,65,48,65.1c-0.3-0.1-0.3-0.3-0.2-0.4c0.1-0.1,7.2-10.8,7.6-24.3c0.3-9,4-14.7,7.1-19.4
		c1.8-2.8,3.5-5.3,3.7-7.8c0-0.2,0.2-0.4,0.4-0.4c0.2,0,0.4,0.2,0.3,0.4c-0.3,2.7-1.9,5.2-3.8,8.1c-3,4.6-6.7,10.3-7,19.1
		c-0.4,13.6-7.7,24.4-7.7,24.6C48.3,65,48.1,65.1,48,65.1z"/>
</g>
<g>
	<path class="st1" d="M56,40.4c-0.2,0-0.3-0.2-0.3-0.3c0-0.2,0.2-0.3,0.4-0.3c3,0.2,7-1.6,8.3-4.5c0.1-0.4,0.3-0.7,0.4-1.2
		c0.7-2,1.7-4.5,3.6-5.3c0.9-0.4,2-0.4,3.2,0c0.2,0.1,0.3,0.3,0.2,0.4s-0.3,0.3-0.5,0.2c-1-0.4-1.9-0.4-2.7,0
		c-1.6,0.8-2.5,3.1-3.2,4.9c-0.2,0.4-0.3,0.8-0.5,1.2C63.7,38.8,59.3,40.6,56,40.4C56,40.4,56,40.4,56,40.4z"/>
</g>
<g>
	<path class="st1" d="M53.9,40.1c-1.4-0.3-2.5-0.9-3.2-1.8c-1.1-1.4-1.3-3.6-0.5-6.3c0.1-0.3,0.2-0.6,0.3-0.9
		c0.6-1.9,1.6-4.8,0.6-6.5c-0.3-0.5-0.8-0.9-1.5-1.1c-0.2-0.1-0.3-0.2-0.3-0.4c0.1-0.2,0.3-0.3,0.5-0.3c0,0,0,0,0,0
		c0.9,0.2,1.6,0.7,2,1.4c1.1,1.9,0.1,5-0.6,7c-0.1,0.3-0.2,0.6-0.3,0.9c-0.7,2.5-0.6,4.5,0.4,5.7c0.8,1.1,2.3,1.7,4.4,1.8
		c0.2,0,0.3,0.2,0.3,0.3c0,0.2-0.2,0.3-0.4,0.3C55,40.3,54.4,40.2,53.9,40.1z"/>
</g>
<g>
	<path class="st1" d="M52.1,60.8c-0.4-0.1-0.8-0.2-1.2-0.4c-0.2-0.1-0.2-0.3-0.1-0.4c0.1-0.1,0.3-0.2,0.5-0.1c1.8,1.1,5.5-0.3,7-1.4
		c0.7-0.5,1.2-1.3,1.9-2.1c1.1-1.5,2.3-3.1,4.1-3.1c0.2,0,0.3,0.1,0.3,0.3c0,0.2-0.2,0.3-0.4,0.3c-1.4,0-2.5,1.5-3.5,2.8
		c-0.7,0.9-1.3,1.7-2,2.3C57.4,59.9,54.4,61.2,52.1,60.8z"/>
</g>
<g>
	<path class="st1" d="M49.2,60.2c-0.4-0.1-0.8-0.2-1.2-0.4c-2.3-1.2-3.6-4.3-4-6.1c-0.2-1,0.1-2.2,0.4-3.6c0.5-2.2,1-4.4-0.4-5.5
		c-0.2-0.1-0.2-0.3,0-0.5c0.1-0.1,0.4-0.2,0.5,0c1.7,1.3,1.2,3.9,0.6,6.1c-0.3,1.3-0.6,2.5-0.4,3.4c0.3,1.6,1.6,4.6,3.7,5.7
		c0.8,0.4,1.7,0.5,2.5,0.3c0.2,0,0.4,0,0.4,0.2c0,0.2-0.1,0.3-0.2,0.4C50.4,60.2,49.8,60.3,49.2,60.2z"/>
</g>
<path class="st2" d="M70.8,77.4c-6.7-1.6-12-3.1-12.1-10.2c-0.1-3.7,1.6-6.2,5.4-8.2c3.1-1.6,4.7-2.2,5.4-5.4
	c1.1-5.2-1.4-10.3,1.9-15.3c3.6-5.6,11.9-3,15.6-8.1c3.4-4.5,5.3-10.4,12.5-10.4c6,0.1,8.5,6.4,5.9,10.8c-1.5,2.5-4,4.2-5,6.8
	c-1,2.5,0.1,4.6,1.1,6.9c2.1,5.1,2.7,10.3-3.2,13.7c-3.5,2-6.2,3.8-4.9,7.5c1.3,4,1.9,6.2-2.9,9.2c-3.6,2.2-6.9,2-11,2.2
	c-3.9,0.2-9,1.2-12.7-0.5L70.8,77.4z"/>
<g>
	<path class="st1" d="M72.9,73.8c-0.6-0.6-0.9-1.3-1.1-2c-0.8-3,2-5.9,4.6-8.6c1.3-1.4,2.5-2.7,3.1-3.8c1.6-3,2-5.7,1.7-9.9
		c-0.4-5,0.9-7,5-10.3c3.4-2.8,6.8-5.9,7.8-8.9c0.1-0.2,0.4-0.4,0.7-0.3c0.3,0.1,0.5,0.3,0.4,0.6c-1,3.2-4.5,6.4-8.1,9.3
		c-3.9,3.2-5.2,5-4.8,9.8c0.3,3.6,0.1,6.7-1.8,10.2c-0.6,1.2-1.9,2.5-3.2,3.9c-2.5,2.6-5.2,5.4-4.5,8.1c0.3,1,1,2,2.4,2.9
		c0.2,0.2,0.3,0.4,0.1,0.5s-0.4,0.1-0.6,0C73.9,74.7,73.4,74.3,72.9,73.8z"/>
</g>
<g>
	<path class="st1" d="M81.4,54.2c-0.1-0.1-0.1-0.2-0.1-0.3c0-0.2,0.2-0.4,0.5-0.3c2.4,0.3,4.2-1.6,6.1-3.6c1.7-1.8,3.5-3.7,5.9-4.2
		c0.3-0.1,0.6,0.1,0.7,0.3c0.1,0.2,0,0.5-0.3,0.5c-2.1,0.4-3.8,2.2-5.5,3.9c-2,2.1-4,4.2-6.9,3.9C81.6,54.4,81.5,54.3,81.4,54.2z"/>
</g>
<g>
	<path class="st1" d="M79.5,60.4c0,0-0.1-0.1-0.1-0.1c-0.2-0.6-0.3-1.1-0.4-1.6c-0.2-0.8-0.3-1.5-1-2.4c-0.4-0.5-0.8-0.9-1.2-1.3
		c-0.8-0.8-1.7-1.7-2.1-3c-0.6-1.9-0.5-4.3,0.1-7.2c0.1-0.4,0.3-1,0.5-1.5c0.3-0.9,0.9-2.4,0.7-2.8c-0.1-0.2,0-0.5,0.2-0.5
		c0.2-0.1,0.5,0,0.7,0.2c0.4,0.6,0,1.7-0.6,3.5c-0.2,0.6-0.4,1.1-0.5,1.5c-0.4,1.9-0.8,4.6-0.1,6.9c0.3,1.1,1,1.8,1.9,2.6
		c0.4,0.4,0.9,0.8,1.3,1.4c0.8,1.1,1,1.9,1.2,2.7c0.1,0.5,0.2,0.9,0.4,1.5c0.1,0.2-0.1,0.4-0.3,0.4C79.8,60.6,79.6,60.5,79.5,60.4z"
		/>
</g>
<path class="st2" d="M30.7,76.5c-7.4-1.3-14.3-0.8-17.3-8.9C11,61.2,16.5,55.2,11,50.8c-3.3-2.6-8.6-4.2-9.8-8.8
	C0,37.3,6,34.4,5,29.8c-0.9-3.7-6.1-4-4.7-8.8c1.2-4.3,5-5.4,8-4.5c4,1.2,4.4,4.8,7,7.4c1.8,1.7,4.3,0,6.9-0.3
	c2.6-0.3,6-0.1,8.2,1.1c7.2,3.7,1.4,11.7,2.7,18.1c1.3,6.2,10,2.5,14.6,7.2c5.3,5.5,1.3,14.9-3.9,19.4
	C40.3,72.2,35.7,77.4,30.7,76.5z"/>
<g>
	<path class="st1" d="M37.8,74.9c0,0-0.1,0-0.1,0c-0.2,0.1-0.5-0.1-0.6-0.3c0-0.2-4.9-16.2-16.6-26.8c-6.6-6-8.2-12.1-9.4-16.9
		c-0.7-2.8-1.3-5.2-2.7-6.5c-0.1-0.1-0.1-0.3,0-0.5c0.1-0.2,0.3-0.2,0.4-0.1c1.5,1.4,2.1,3.8,2.9,6.7c1.2,4.7,2.8,10.8,9.3,16.6
		C33,57.9,37.9,74.2,38,74.4C38.1,74.6,38,74.8,37.8,74.9z"/>
</g>
<g>
	<path class="st1" d="M21.1,47.3c-0.2,0.1-0.4,0.1-0.5,0c-0.1-0.1-0.1-0.4,0-0.5c2.4-2.3,3.9-6.8,2.4-9.7c-0.2-0.3-0.4-0.7-0.6-1.1
		c-1-1.8-2.3-3.9-1.7-6c0.3-1,1.1-1.9,2.3-2.8c0.2-0.1,0.4-0.1,0.5,0.1c0.1,0.2,0,0.4-0.2,0.5c-1,0.7-1.6,1.4-1.9,2.2
		c-0.6,1.8,0.6,3.8,1.6,5.4c0.2,0.4,0.4,0.7,0.6,1.1C25.4,39.9,23.7,44.7,21.1,47.3C21.1,47.3,21.1,47.3,21.1,47.3z"/>
</g>
<g>
	<path class="st1" d="M19.2,48.8c-1.2,0.9-2.5,1.3-3.6,1.2c-1.8-0.1-3.5-1.4-4.8-3.7c-0.1-0.2-0.3-0.5-0.4-0.8
		c-0.9-1.6-2.2-4-3.8-4.3c-0.5-0.1-1,0.1-1.5,0.5c-0.1,0.1-0.3,0.1-0.4-0.1c-0.1-0.1,0-0.4,0.1-0.5c0,0,0,0,0,0
		c0.7-0.5,1.3-0.7,2-0.7c1.8,0.2,3.2,2.8,4.1,4.5c0.2,0.3,0.3,0.5,0.4,0.8c1.2,2.1,2.7,3.3,4.3,3.4c1.4,0.1,2.9-0.7,4.5-2.2
		c0.2-0.2,0.4-0.2,0.5,0c0.1,0.1,0.1,0.4,0,0.5C20.2,48,19.7,48.5,19.2,48.8z"/>
</g>
<g>
	<path class="st1" d="M37,67.1c-0.5,0.3-1,0.5-1.5,0.6c-0.2,0-0.5-0.1-0.5-0.3s0.1-0.4,0.4-0.5c2.8-0.5,4.7-5,4.9-7.4
		c0.1-1-0.2-2.2-0.6-3.5c-0.6-2.3-1.3-4.6,0.3-6.3c0.2-0.2,0.5-0.2,0.6-0.1c0.2,0.1,0.2,0.4,0,0.6c-1.3,1.3-0.7,3.5-0.1,5.6
		c0.4,1.4,0.7,2.7,0.6,3.8C41,61.6,39.6,65.6,37,67.1z"/>
</g>
<g>
	<path class="st1" d="M33.6,68.9c-0.5,0.3-1,0.5-1.6,0.6c-3.1,0.7-7.1-1.1-9-2.4c-1-0.7-1.9-2-2.8-3.4c-1.4-2.1-2.8-4.3-4.6-4.1
		c-0.2,0-0.4-0.1-0.4-0.3c0-0.2,0.1-0.4,0.3-0.4c2.2-0.3,3.9,2.1,5.3,4.3c0.9,1.3,1.7,2.6,2.6,3.2c1.7,1.2,5.5,2.9,8.4,2.3
		c1.1-0.3,2-0.9,2.5-1.8c0.1-0.2,0.4-0.3,0.6-0.2c0.2,0.1,0.3,0.4,0.2,0.6C34.8,68,34.3,68.5,33.6,68.9z"/>
</g>
<path class="st3" d="M86.5,82H20.7c-0.9,0-1.6-0.7-1.6-1.6v-43c0-0.9,0.7-1.6,1.6-1.6h65.8c0.9,0,1.6,0.7,1.6,1.6v43
	C88.1,81.3,87.4,82,86.5,82z"/>
<rect x="22.3" y="38.8" class="st1" width="59.5" height="39.6"/>
<circle class="st1" cx="84.7" cy="58.9" r="1.2"/>
<path class="st4" d="M68.4,71.1H35.7c-0.9,0-1.6-0.7-1.6-1.6V48.3c0-0.9,0.7-1.6,1.6-1.6h32.7c0.9,0,1.6,0.7,1.6,1.6v21.1
	C70.1,70.3,69.3,71.1,68.4,71.1z"/>
<rect x="35.7" y="48.6" class="st0" width="32.7" height="20.5"/>
<polygon class="st5" points="46,52.4 46,65.9 59.1,59.2 "/>
<path class="st3" d="M52.6,35.5c0,0-8.3,0-11.2-2s-3.4-9.7,0.8-12.9c4.2-3.2,5.1-4.1,5.3-6.2s0.1-6.8,5.6-6.8c5.4,0,4.9,4.4,5.3,7.2
	c0.3,2,3,4.8,5.3,6.6C66.8,23.7,70.2,37.4,52.6,35.5z"/>
<path class="st6" d="M51.6,13l1.8,0.1l1.8,0.1c0,0,0.4,4.9,1.3,5.6c0,0,1,5.9-3.5,5.7c-5.4-0.2-3.1-5.9-3.1-5.9
	C50.9,17.9,51.6,13,51.6,13z"/>
<path class="st5" d="M45.6,35.7h14.6l1.2-4.7c0.2-4.8,0.3-9.7,0.3-9.7c-2.1-1.7-5.4-2.9-5.4-2.9c-1.8,1.3-4.4,1.5-6.1,0
	c0,0-3.3,1.4-5.5,2.9c0,0-0.4,2-0.2,5.2C44.6,29.6,45,32.7,45.6,35.7z"/>
<path class="st5" d="M66.8,35.7c-1.1-5.6-2.2-9.2-3.1-11.3c-1.2-2.8-2.1-3.1-2.1-3.1c-1.1-0.1-1.9,8.8-3.7,14.4L66.8,35.7L66.8,35.7
	z"/>
<path class="st5" d="M60.1,27.6c-0.3,0.8-0.8,1.4-1.3,2.1c-0.5,0.6-1.7,4.2-6.5,3.9c-2-0.1-3.9-2.1-4.7-4.1
	c-0.3-0.8-0.5-1.6-0.7-2.5c-0.1-0.6-0.2-1.4-0.5-2c-0.6,0.2-0.7,1.1-0.9,1.6c-0.1,0.3-1,1.5-1.1,0.6c0.2,2.9,0.6,5.7,1.1,8.5h15.7
	C61,32.4,60.1,28.6,60.1,27.6z"/>
<path class="st6" d="M57.5,13.9c-0.5-0.6-1.1,0.3-1.1,0.3s0.2-1,0.3-2.1c-1.2-0.7-2.4-1.4-3.5-1.8v0c0,0,0,0,0,0c0,0,0,0,0,0v0
	c-1.1,0.3-2.3,1.1-3.5,1.8c0.1,1.1,0.3,2.1,0.3,2.1s-0.6-0.9-1.1-0.3c-0.5,0.6,0.8,2.1,1.1,2.2c0,0,1.1,2.6,2.4,3.4
	c0.3,0.2,1.4,0.3,1.9,0c1.3-0.9,2.3-3.4,2.3-3.4C56.7,16,58,14.5,57.5,13.9z"/>
<g>
	<path class="st3" d="M56.6,11.2c0,0-1.8,3.2-6.3,2.9c0,0,0.2,0.4,0,1.1c0,0-0.3-1.3-1-0.9c-0.4,0.2-0.4,0.7,0,1.3
		c0.2,0.2-1.1-0.2-1.1-0.2s-0.5-4.9,2.7-6C54.1,8.2,56.6,11.2,56.6,11.2z"/>
	<path class="st3" d="M55.1,9.5c0,0.2-0.1,0.5-0.1,0.7c0,0.5-0.7,0.9-0.7,1.4c0.1,0.1,0.2,0.2,0.3,0.3c0.6,0.8,0.9,1.2,1.1,2.1
		c0.1,0.3-0.1,0.5,0.3,1.2c0,0,0.3-1.3,1.1-1.1c0.2,0,0.5,0.3,0.2,0.9c-0.1,0.2,0.8-0.9,0.8-0.9S58.1,9.4,55.1,9.5z"/>
</g>
<path class="st6" d="M48.8,57.3c0.2,0.4,1.1,1,0.8,1.5c-0.2,0.3-1-0.3-1.2-0.5c-0.3-0.3-2-3-2.3-3.8c-0.2-0.6-0.4-1.2-0.7-1.8
	c0.6-0.4,1.2-0.9,1.7-1.4c0.9,0.4,1.8,1,2.7,1.4c0.5,0.2,1,0.4,1.5,0.5c0.3,0.1,0.9,0.3,1,0.7c0,0.4-0.6,0.3-0.9,0.3
	c-0.4-0.1-1-0.4-1.3,0c-0.4,0.6,0.8,1.3,1.2,1.7c0.4,0.4,1.7,1.6,0.7,1.7c-0.2,0-1.6-1.2-1.8-1.3c0,0.1,0.9,0.9,1,1
	c0.2,0.3,0.9,0.9,0.7,1.3c-0.4,0.7-1.9-1.1-2.1-1.3c0,0,0.5,0.7,0.5,0.7c0.5,0.5,0.8,1,0.4,1.1C50.3,59.2,49.2,57.8,48.8,57.3z"/>
<path class="st5" d="M48.6,51.9l-3,2c0,0-9.4-12.2-8.4-16.8c1.2-5.4,4.4-11.5,6.1-14.3c0.7-1.1,1.2-1.5,1.2-1.5
	c1.8,1.7,2.8,4.1,2.6,6.3c-0.1,1-0.6,1.6-1.1,2.6c-1.6,3-3.5,8.2-3.5,8.8C42.7,39.8,48.6,51.9,48.6,51.9z"/>
</svg>
