<?xml version="1.0" encoding="utf-8"?>
<!-- Generator: Adobe Illustrator 24.3.0, SVG Export Plug-In . SVG Version: 6.00 Build 0)  -->
<svg version="1.1" id="Layer_1" xmlns="http://www.w3.org/2000/svg" x="0px" y="0px" viewBox="0 0 102.9 77" style="enable-background:new 0 0 102.9 77;" xml:space="preserve">
<style type="text/css">
	.st0{fill:#575757;}
	.st1{fill:#B2B2B2;}
	.st2{fill:#FFFFFF;}
	.st3{fill:#F0F0F0;}
	.st4{fill:#489FC0;}
	.st5{fill:#B81F40;}
	.st6{fill:#E7795D;}
</style>
<rect x="18.8" y="57.3" class="st0" width="2.9" height="16.3"/>
<rect x="73.9" y="57.3" class="st0" width="2.9" height="16.3"/>
<rect class="st1" width="95.6" height="58.8"/>
<rect x="4.6" y="3.9" class="st2" width="86.5" height="50.9"/>
<path class="st3" d="M64.8,50H10.3c0,0,0.3-20.5,7-23.5c6.7-3,11.2,11.9,14.3,12.1c3.1,0.2,2.9-12.2,7.5-14
	c11.8-4.7,10.6,13.9,12.8,13.7c2.2-0.2,4.1-17.2,7.1-17.2C66.2,21.2,64.8,50,64.8,50z"/>
<path class="st4" d="M64.8,50H10.3c0,0,1.4-17.5,8.1-20.5S28,40.8,31.1,41c3.1,0.2,6.1-9.8,11-10.2c4.9-0.4,8.3,11.6,10.4,11.4
	c2.2-0.2,3.3-19.1,6.3-19.1C64.8,23.1,64.8,50,64.8,50z"/>
<path class="st5" d="M64.8,50H10.3c0,0,1.8-8.7,8.5-11.6s10.2,5.2,13.4,5.4c3.1,0.2,4.4-11.7,9.4-12.1c4.9-0.4,2.2,14.3,10,14.3
	c5.7,0,4.8-12.1,7.8-12.1C65.1,34,64.8,50,64.8,50z"/>
<rect x="71.1" y="20.2" class="st3" width="16.2" height="2.8"/>
<rect x="71.1" y="26.5" class="st3" width="16.2" height="2.8"/>
<rect x="71.1" y="32.9" class="st4" width="16.2" height="2.8"/>
<rect x="71.1" y="39.2" class="st3" width="16.2" height="2.8"/>
<rect x="71.1" y="45.5" class="st5" width="16.2" height="2.8"/>
<rect x="8.8" y="7" class="st4" width="3" height="3"/>
<rect x="14.6" y="7" class="st3" width="13.4" height="3"/>
<rect x="8.8" y="11.9" class="st4" width="3" height="3"/>
<rect x="14.6" y="11.9" class="st3" width="13.4" height="3"/>
<rect x="8.8" y="16.9" class="st4" width="3" height="3"/>
<rect x="14.6" y="16.9" class="st3" width="13.4" height="3"/>
<rect x="45.3" y="7" class="st3" width="42" height="4.1"/>
<rect x="33.8" y="15.7" class="st3" width="21.1" height="3.5"/>
<rect x="16.4" y="71.5" class="st1" width="7.7" height="2.9"/>
<rect x="71.5" y="71.5" class="st1" width="7.7" height="2.9"/>
<g>
	<g>
		<path class="st4" d="M36.9,7.8c1.1,0.1,2,0.5,2,1.6l-1.8,0c0-0.4-0.4-0.5-0.7-0.5c-0.2,0-0.7,0-0.7,0.3c0,0.7,3.2,0,3.3,2
			c0,1.2-0.9,1.7-2.1,1.8l0.1,1.3l-1.1,0L36,13c-1.1-0.1-2.1-0.6-2.1-1.7l1.8,0v0c0,0.5,0.6,0.6,0.8,0.6c0.3,0,0.8,0,0.8-0.4
			c0-0.8-3.2,0-3.3-2c0-1.1,0.9-1.6,2-1.7l-0.1-1.3l1.1,0L36.9,7.8z"/>
	</g>
</g>
<polygon class="st5" points="43.8,9.5 42.1,6.3 40.5,9.5 41.6,9.5 41.6,14.3 42.7,14.3 42.7,9.5 "/>
<path class="st6" d="M89.6,26.8c0,0-1.6,0.9-2.9,3.5s-2.1,4-2.3,3.9c-0.7-0.6-2.5-2.1-5.2-6.3c-0.3-0.5,0-0.8,0-1.2
	c0-0.4,0.5-1.3,0.4-1.6c-0.1-0.3-0.4-0.2-0.8,0.4c-0.3,0.6-0.2,1-0.5,0.8c-0.3-0.2-0.9-1-1.1-1.3c-0.2-0.3-0.8-1-1-0.9
	c-0.2,0.1-0.2,0.3,0.8,1.6c-0.3-0.5-1.2-1.6-1.5-1.3c-0.2,0.2,0.6,1.2,1,1.7c-0.3-0.4-1.1-1.2-1.3-0.9c-0.3,0.3,1.2,1.5,1.2,1.5
	s-1.2-0.9-1.3-0.7c-0.2,0.3,0.5,0.9,1.2,1.3c0.7,0.4,0.8,0.5,1.1,0.6c0.2,0.1,0.5,0.5,0.6,0.8c0,0,4.9,10.5,6.7,9.6
	c1.8-1,4.1-4.4,4.1-4.4s0.7-1.1,0.9-2.7C90.1,29.7,90,27.7,89.6,26.8z"/>
<path class="st5" d="M85.8,31.3c0.4-0.8,2.4-5,3.9-5.6l2,0.8c0.9,1.1-0.2,3.6-0.6,3.9c-0.3,0.2-1.8,3.2-2.1,3.6
	C87.1,32.6,85.8,31.3,85.8,31.3z"/>
<path class="st6" d="M93.2,19.7l2.8,0.4c0,0-0.8,2.5,0.4,4.6c0,0-2,2.2-3.4,1.6c-1.5-0.6-0.9-2.1-0.9-2.1S93.6,23,93.2,19.7z"/>
<path class="st0" d="M98.9,72.3c0,0,0.8,3,0.3,3.5c-0.4,0.5-6.8,1.6-7.4,1.1s-0.4-1.5,0.9-2c1.4-0.6,2.1-0.3,3-0.8s0.4-1.9,0.4-1.9
	L98.9,72.3z"/>
<path class="st0" d="M91,71.8c0,0,0.2,3.8-0.4,4.2c-0.5,0.4-6.9,0.5-7.4-0.1s-0.2-1.4,1.1-1.7c1.2-0.3,2,0,2.9-0.4
	c0.8-0.3,1.2-2.1,1.2-2.1L91,71.8z"/>
<path class="st4" d="M88.3,40.3l8.2-1.5c0,0-3.1,17-3.5,18.9s-1.6,14.9-1.6,14.9l-3.6-0.4c0,0,0-14.1,0.2-15.3
	C88.2,55.6,88.3,40.3,88.3,40.3z"/>
<path class="st4" d="M91.3,47c-0.4-2.7-0.1-4.7-0.7-6c-0.2-0.5-1-0.4-1.2-0.9c0.1-0.1,0.2-0.3,0.3-0.4l6.8-1c0,0-3.1,14.6-3.9,18.2
	C92.6,56.9,91.7,49.2,91.3,47z"/>
<path class="st4" d="M91.7,39.5l6.6,1.7c0,0,0.9,2.4,0.4,5.5c-0.5,3.7-0.6,9.5-0.7,10.2c-0.1,0.8,1.2,13.2,1.3,16.2l-3.6,0.2
	c0,0-2.7-15.6-2.9-15.9C92.8,57,91.7,39.5,91.7,39.5z"/>
<path class="st5" d="M88.7,33.7c0.1-2.8-0.6-7,1-8c1.4-0.8,2.5-1.5,2.5-1.5s0.4,1,1.4,1.1c1,0.1,2.5-1.3,2.5-1.3s1.8,1.1,3.4,1.8
	c-0.4,1.3,0.4,2.5,0.4,3.7c0,0.8,0.1,1.4,0.3,2.1c-0.7,1.4-1.3,2.8-1.4,3.8c-0.4,2.5,0.8,6.4,0.8,6.4s-2.6,0.6-6.1,0.9
	c-1.9,0.2-4.1-0.2-6-0.7C87.4,42,88.5,36.5,88.7,33.7z"/>
<path class="st5" d="M100.2,31.6c-0.1-0.2-0.1-0.4-0.1-0.6c0-0.1-0.1-0.3-0.1-0.4c0-0.3-0.1-0.7-0.1-1.1c0-0.6,0-1.3,0-2
	c-0.3,0.2-0.7,0.8-1.1,0.6c-1.9-1.1-2.2,4-2.2,6.5c0,2.5-0.1,5.5-1.1,7.9c2.4-0.3,4.1-0.7,4.1-0.7s-0.2-0.5-0.3-1.4
	C99.1,40,99,39.5,98.9,39c0-0.2-0.1-0.3-0.1-0.5c-0.1-0.5-0.1-1.1-0.2-1.6c0-0.5,0-1.1,0.1-1.5C98.9,34.4,99.5,33,100.2,31.6z"/>
<path class="st6" d="M96,15c0,0-4-0.6-4.5-0.2c-0.5,0.4-0.5,2.1-0.5,3.4c0,1.4-0.6,4,1,4.5c1.6,0.5,4.7-1,5.7-3.7
	C99.1,15.6,96.3,15.1,96,15z"/>
<path class="st0" d="M96.7,14.7c0,0-1.9,0.1-2.2,2.9c-0.2,1.3-0.5,2.3-0.1,2.4s0.8-0.2,0.8-0.6s0.1-1.6,0.9-1.3
	c0.8,0.3,0.5,1.8-0.5,2.2c0,0-0.2,0.8,0.6,1.3c0,0,2-1.3,2.3-3.5C98.7,15.9,97.9,14.6,96.7,14.7z"/>
<path class="st0" d="M97.4,15c0,0-0.5-1.8-2.6-1.9c-2.1-0.1-3.8,1.1-4.8,2.8c0,0,0.6,1,2.8,1.1c0.9,0.1,2.5-0.2,3.3-0.6
	C97.2,15.8,97.4,15,97.4,15z"/>
<path class="st6" d="M102.9,38.3c-0.1-0.6-0.7-4.5-1-5.9c-1.2,0.4-2.4,0.8-3.7,1.2c0.4,0.9,1.3,4.3,1.4,5.2c0.1,1.3-0.4,7-0.6,9l0,0
	c0,0.2,0,0.3,0,0.4c-0.1,0.3-0.2,0.8-0.5,1.2c-0.3,0.4-1.3,1.5-1.1,2.1c0.2,0.5,1-0.4,1.3-0.7C99,50.4,99,51.4,99,52
	c-0.1,0.6-1.2,1.5-1.1,1.9c0.1,0.3,0.4,0.1,0.9-0.4c-0.2,0.3-0.4,0.6-0.3,0.7c0.2,0.1,0.4-0.1,0.8-0.4c-0.2,0.3-0.3,0.5-0.2,0.6
	c0.2,0.1,0.5-0.2,0.8-0.5c-0.2,0.2-0.3,0.5-0.2,0.5c0.2,0.1,0.9-0.5,1.1-1.3c0.2-0.7-0.3-2.5-0.5-3.5c-0.1-0.3,0-0.6,0.1-0.9
	C101,47.1,103.3,40.1,102.9,38.3z"/>
<path class="st5" d="M98.3,34.8c1.3-0.2,3-0.7,4.5-1.3c-0.3-2.4-1.2-5.7-2.4-7c-0.3-0.4-1-1-1.5-0.8c-0.7,0.3-1.7,1.3-1.8,3.2
	c0,0.5,0.4,3.3,0.7,4.2C97.9,33.5,98.1,34.2,98.3,34.8z"/>
</svg>
