<?xml version="1.0" encoding="utf-8"?>
<!-- Generator: Adobe Illustrator 16.0.3, SVG Export Plug-In . SVG Version: 6.00 Build 0)  -->
<!DOCTYPE svg PUBLIC "-//W3C//DTD SVG 1.1//EN" "http://www.w3.org/Graphics/SVG/1.1/DTD/svg11.dtd">
<svg version="1.1" id="Layer_1" xmlns="http://www.w3.org/2000/svg" xmlns:xlink="http://www.w3.org/1999/xlink" x="0px" y="0px"
	 width="86.216px" height="75.898px" viewBox="0 0 86.216 75.898" enable-background="new 0 0 86.216 75.898" xml:space="preserve">
<g>
	<g>
		<polygon fill="#170F38" points="51.003,71.769 35.213,71.769 36.511,52.732 49.705,52.732 		"/>
		<path fill="#170F38" d="M53.073,68.721c-0.192-0.286-0.514-0.457-0.857-0.457h-8.745h-0.726H34c-0.344,0-0.666,0.171-0.857,0.457
			l-2.386,3.56c-0.459,0.686,0.032,1.606,0.857,1.606h11.131h0.726h11.131c0.825,0,1.316-0.921,0.857-1.606L53.073,68.721z"/>
		<path fill="#170F38" d="M81.771,57.793H4.444C1.99,57.793,0,55.804,0,53.35V4.444C0,1.99,1.99,0,4.444,0h77.327
			c2.454,0,4.444,1.99,4.444,4.444V53.35C86.216,55.804,84.226,57.793,81.771,57.793z"/>
		<rect x="3.97" y="3.829" fill="#2BC2DD" width="78.276" height="49.536"/>
	</g>
	<g>
		<g>
			<rect x="49.631" y="37.34" fill="#D1D2DF" width="4.295" height="15.979"/>
			<rect x="49.631" y="37.34" fill="#9698B5" width="4.295" height="5.007"/>
			<g>
				<g>
					<path fill="#EF4661" d="M65.528,12.556h-0.102h-0.102h-25.16v25.776h24.054h1.208h10.188V22.643
						C75.615,17.072,71.1,12.556,65.528,12.556z"/>
					<path fill="#EF4661" d="M50.354,38.332H29.977V22.643c0-5.571,4.516-10.087,10.087-10.087h0.203
						c5.571,0,10.087,4.516,10.087,10.087V38.332z"/>
					<path fill="#170F38" d="M48.612,36.128H31.718V23.121c0-4.619,3.744-8.362,8.362-8.362h0.169c4.619,0,8.363,3.744,8.363,8.362
						V36.128z"/>
				</g>
				<rect x="23.27" y="36.349" fill="#EF4661" width="19.325" height="1.982"/>
			</g>
			<g>
				<path fill="#FFFFFF" d="M64.853,28.791c0.605,0,1.209-0.973,1.209-2.374c0-2.802-1.799-4.985-4.851-4.985
					c-2.772,0-5.015,2.257-5.015,5.029c0,2.743,2.094,4.778,4.838,4.778c0.841,0,1.946-0.28,2.771-0.9l0.679,1.18
					c-0.855,0.664-2.315,1.092-3.45,1.092c-3.584,0-6.298-2.625-6.298-6.15c0-3.583,2.861-6.371,6.475-6.371
					c3.599,0,6.297,2.655,6.297,6.282c0,2.197-1.195,3.613-2.832,3.613c-0.885,0-1.533-0.339-1.726-1.136l-0.028-0.176
					c-0.575,0.811-1.373,1.165-2.197,1.165c-1.652,0-3.216-1.357-3.216-3.407c0-1.888,1.181-3.466,3.009-3.466
					c1.165,0,1.917,0.782,1.976,0.915v-0.752h1.814v4.941C64.308,28.6,64.528,28.791,64.853,28.791z M59.499,26.357
					c0,0.974,0.547,1.829,1.416,1.829c0.915,0,1.46-0.826,1.46-1.814c0-0.959-0.561-1.726-1.488-1.726
					C60.061,24.647,59.499,25.429,59.499,26.357z"/>
			</g>
		</g>
		<g>
			<path fill="#E5E6EC" d="M44.293,41.7c0.145-4.008,2.883-7.411,4.319-8.93v-0.853h-13.26c-2.704,0-4.313,1.379-5.773,3.656
				c-1.072,1.671-2.033,3.798-2.118,6.127c-0.196,5.443,0.985,8.091-2.56,11.696C21.357,57,19.782,59.06,20.832,64.944h16.832
				C36.613,59.06,38.188,57,41.733,53.396C45.277,49.791,44.096,47.144,44.293,41.7z"/>
			<g>
				<path fill="#9B94AB" d="M46.244,33.167H33.843c-0.148,0.167-0.305,0.348-0.468,0.543h12.401
					C45.938,33.516,46.096,33.334,46.244,33.167z"/>
				<path fill="#9B94AB" d="M44.291,35.761H31.89c-0.109,0.176-0.218,0.357-0.324,0.543h12.401
					C44.073,36.118,44.182,35.937,44.291,35.761z"/>
				<path fill="#9B94AB" d="M42.994,38.354H30.593c-0.067,0.178-0.13,0.36-0.189,0.543h12.401
					C42.864,38.713,42.927,38.532,42.994,38.354z"/>
				<path fill="#9B94AB" d="M42.353,40.946H29.951c-0.021,0.18-0.037,0.36-0.048,0.544h12.401
					C42.315,41.307,42.331,41.126,42.353,40.946z"/>
				<path fill="#9B94AB" d="M42.27,43.539H29.868c0.002,0.185,0.004,0.366,0.008,0.543h12.4
					C42.273,43.905,42.271,43.724,42.27,43.539z"/>
				<path fill="#9B94AB" d="M42.324,46.132H29.923c0.003,0.185,0.005,0.365,0.005,0.544h12.401
					C42.329,46.497,42.327,46.316,42.324,46.132z"/>
				<path fill="#9B94AB" d="M42.206,48.725h-12.4c-0.027,0.184-0.059,0.364-0.097,0.544H42.11
					C42.148,49.089,42.18,48.908,42.206,48.725z"/>
				<path fill="#9B94AB" d="M41.337,51.318h-12.4c-0.102,0.18-0.214,0.361-0.336,0.543h12.401
					C41.124,51.68,41.235,51.498,41.337,51.318z"/>
				<path fill="#9B94AB" d="M39.23,53.91H26.829c-0.179,0.186-0.35,0.366-0.517,0.544h12.401
					C38.881,54.276,39.052,54.096,39.23,53.91z"/>
				<path fill="#9B94AB" d="M36.993,56.504h-12.4c-0.128,0.18-0.248,0.361-0.361,0.543h12.401
					C36.746,56.865,36.866,56.684,36.993,56.504z"/>
				<path fill="#9B94AB" d="M35.702,59.097H23.301c-0.053,0.178-0.104,0.356-0.145,0.544h12.401
					C35.599,59.453,35.649,59.274,35.702,59.097z"/>
				<path fill="#9B94AB" d="M35.349,61.689H22.947c-0.001,0.178,0,0.357,0.007,0.543h12.401
					C35.349,62.047,35.348,61.867,35.349,61.689z"/>
			</g>
		</g>
	</g>
	<g>
		<g>
			<g>
				<path fill="#F58668" d="M28.992,37.755c-0.116-0.176-0.81,0.393-0.908,0.544c-0.143,0.218-0.362,0.374-0.509,0.678
					c-0.116,0.24-0.224,0.466-0.344,0.706c-0.066,0.131-0.053,0.288-0.098,0.429c-0.037,0.113-0.254,0.428-0.373,0.567
					c-0.042,0.05,0.031,0.073-0.066,0.148c0.273,0.231,0.291,0.442,0.449,0.763c0.011-0.016,0.214-0.212,0.341-0.287
					c0.11-0.065,0.807-0.334,0.924-0.389c0.415-0.191,0.592-0.318,0.676-0.387c0.073-0.059,0.376-0.159,0.342-0.271
					c-0.075-0.25-0.46-0.105-0.556-0.091c-0.169,0.027-0.437,0.194-0.752,0.162c-0.118-0.013-0.298-0.202-0.223-0.482
					c0.064-0.245,0.238-0.448,0.432-0.612c0.122-0.104,0.571-0.521,0.698-0.632c0.368-0.323,0.201-0.551-0.133-0.339
					c-0.067,0.042-0.599,0.472-0.652,0.5c0.051-0.066,0.106-0.116,0.14-0.155C28.588,38.363,29.13,37.966,28.992,37.755z"/>
			</g>
			<path fill="#F58668" d="M14.263,31.674c0.027,0.048,0.052,0.097,0.081,0.144c0.272,0.433,0.561,0.876,0.915,1.248
				c0.216,0.225,0.585,0.423,0.763,0.649c0.071,0.091,0.148,0.175,0.229,0.254c-0.286,0.682-1.021,2.479-1.137,3.218
				c0,0-2.234-0.672-2.856-1.776C12.258,35.411,13.771,33.093,14.263,31.674z"/>
			<path fill="#E35A40" d="M14.625,35.745c-0.012-0.682-0.232-1.396-0.648-1.945c-0.144-0.189-0.292-0.363-0.453-0.527
				c0.297-0.554,0.575-1.126,0.739-1.6c0.027,0.048,0.052,0.097,0.081,0.144c0.272,0.433,0.561,0.876,0.915,1.248
				c0.216,0.225,0.585,0.423,0.763,0.649c0.071,0.091,0.148,0.175,0.229,0.254c-0.286,0.682-1.021,2.479-1.137,3.218
				c0,0-0.383-0.116-0.875-0.329C14.483,36.549,14.633,36.163,14.625,35.745z"/>
			<path fill="#170F38" d="M5.973,72.867c0,0-0.338,2.264,0.016,2.592c0.353,0.328,5.06,0.659,5.47,0.248
				c0.409-0.411,0.198-1.131-0.784-1.436c-1.053-0.328-1.583-0.055-2.239-0.352c-0.657-0.298-0.449-1.342-0.449-1.342L5.973,72.867z
				"/>
			<path fill="#170F38" d="M13.902,72.867c0,0-0.338,2.264,0.016,2.592s5.06,0.659,5.47,0.248s0.198-1.131-0.784-1.436
				c-1.053-0.328-1.582-0.055-2.239-0.352c-0.657-0.298-0.449-1.342-0.449-1.342L13.902,72.867z"/>
			<path fill="#EF4661" d="M5.226,60.125c-1.142-6.32-1.134-10.797-1.142-12.893c0.763-0.096,1.534-0.154,2.348,0.066
				c1.495,0.404,2.994,0.781,4.491,1.162c-0.75,2.533-1.974,10.604-2.01,12.257c-0.044,2.056-0.546,12.881-0.546,12.881
				l-2.722,0.063C5.417,72.016,5.325,60.674,5.226,60.125z"/>
			<path fill="#E02242" d="M8.53,47.884c0.791,0.237,1.596,0.394,2.401,0.546c-0.735,2.486-1.942,10.492-2.015,12.232
				c-0.53-1.01-2.55-4.584-3.671-7.303c-0.75-1.818-1.147-3.763-1.159-5.729c0-0.008,0-0.016,0-0.023
				C5.518,47.472,6.913,47.4,8.53,47.884z"/>
			<path fill="#EF4661" d="M6.699,47.211c1.009,0.295,2.84,0.703,4.229,1.135c1.052,2.368,3.975,8.665,4.534,11.179
				c0.773,3.479,0.775,13.882,0.775,13.882l-2.634,0.023c0,0-1.805-11.783-2.123-12.604c-1.282-3.301-3.627-5.59-4.541-7.151
				c-2.208-3.773-2.385-5.64-2.703-6.979C5.022,46.884,5.854,46.965,6.699,47.211z"/>
			<path fill="#D1D2DF" d="M13.142,38.306c0.565-1.126,0.122-1.926,1.32-1.538c1.966,0.637,3.852,4.883,4.994,5.158
				c1.589,0.384,7.436-1.642,7.436-1.642l0.604,1.491c0,0-7.711,3.372-8.975,3.052c-1.263-0.32-4.582-3.93-5.389-5.149
				C12.849,39.252,12.912,38.764,13.142,38.306z"/>
			<path fill="#B8B9CD" d="M13.142,38.306c0.565-1.126,0.122-1.926,1.32-1.538c1.966,0.637,3.852,4.883,4.994,5.158
				c1.589,0.384,7.436-1.642,7.436-1.642l0.604,1.491c0,0-7.711,3.372-8.975,3.052c-1.263-0.32-4.582-3.93-5.389-5.149
				C12.849,39.252,12.912,38.764,13.142,38.306z"/>
			<g>
				<path fill="#D1D2DF" d="M11.993,50.074c0,0-2.394-0.123-4.703-0.881c-1.71-0.563-3.18-1.521-3.421-2.256
					c0,0,2.704-7.043,4.57-9.444c1.865-2.402,4.053-2.45,4.053-2.45s1.418,1.315,2.756,1.595c0,0-1.211,5.228-1.784,7.295
					C12.892,46,11.993,50.074,11.993,50.074z"/>
				<path fill="#B8B9CD" d="M11.436,42.142c-0.017-0.938-0.212-2.418,0.185-3.505c0.113,0.091,0.229,0.179,0.334,0.278
					c0.626,0.588,1.245,1.218,2.042,1.568c0.102,0.044,0.209,0.07,0.317,0.095c-0.307,1.268-0.627,2.551-0.85,3.355
					c-0.572,2.067-1.471,6.142-1.471,6.142s-0.671-0.035-1.642-0.18C11.404,47.633,11.483,44.74,11.436,42.142z"/>
			</g>
			<path fill="#F58668" d="M14.439,28.489c0,0,1.886-1.32,2.996-0.598c1.111,0.723,1.745,1.328,1.648,1.859
				c-0.098,0.531-0.529,1.903-0.49,2.522c0.04,0.62,0.341,1.573,0.212,1.771c-0.129,0.198-0.829-0.103-0.913-0.04
				c-0.083,0.063-1.28,1.355-1.609,1.375c-0.328,0.02-2.055-2.093-2.026-2.945C14.286,31.582,13.681,29.602,14.439,28.489z"/>
			<path fill="#170F38" d="M16.718,29.957c0.154,0.397,0.736,1.09,2.271,1.218c1.535,0.129,2.577-2.959-0.097-4.193
				c-2.674-1.233-3.07-0.257-3.656-0.317c-0.585-0.06-1.104,0.004-1.606,0.405c-0.867,0.694-1.49,1.747-0.884,3.483
				c0.614,1.755,1.524,2.024,1.524,2.024c0.228-0.292,0.5-0.846,0.31-1.164c-0.076-0.127-0.207-0.215-0.303-0.458
				c-0.174-0.443,0.388-0.994,0.945-0.569c0.262,0.2,0.12,0.777,0.188,1.054c0.071,0.293,0.209,0.314,0.326,0.33
				c0.229,0.031,0.679-0.469,0.603-1.294C16.291,29.942,16.563,29.559,16.718,29.957z"/>
			<path fill="#F58668" d="M24.019,50.264c0.111,0.033,0.25,0.058,0.284,0.085c0.155,0.128,0.488,0.158,0.632,0.159
				c0.327,0.004,0.837-0.018,1.11,0.148c0.158,0.096,1.089,0.729,0.675,1.052c-0.055,0.044-0.215,0.083-0.245,0.056
				c-0.09-0.08-0.342-0.301-0.342-0.301s0.192,0.169,0.227,0.221c0.028,0.043,0.092,0.106,0.102,0.157
				c0.022,0.108-0.135,0.263-0.236,0.259c-0.099-0.004-0.133-0.118-0.191-0.188c0.001,0.002,0.003,0.004,0.004,0.006
				c0.05,0.083,0.188,0.182,0.009,0.361c-0.199,0.199-0.214,0.019-0.307-0.047c-0.032-0.022-0.063-0.055-0.093-0.086
				c0.029,0.037,0.146,0.16,0.166,0.198c0.063,0.122-0.259,0.324-0.438,0.227c-0.111-0.06-0.322-0.334-0.395-0.341
				c-0.081-0.008-0.168-0.043-0.246-0.064c-0.242-0.068-0.461-0.227-0.638-0.405c-0.079-0.081-0.24-0.229-0.315-0.317
				c-0.188-0.219-0.242-0.307-0.289-0.392C23.765,50.813,23.918,50.618,24.019,50.264z"/>
			<path fill="#D1D2DF" d="M23.566,51.701l1.221-1.633c0,0-4.419-4.189-6.072-6.256c-1.653-2.067-3.25-6.084-4.637-6.474
				c-1.387-0.39-2.893,0.237-2.284,2.29c0.609,2.053,4.474,5.102,5.225,6.058C17.771,46.643,22.787,51.147,23.566,51.701z"/>
		</g>
	</g>
</g>
</svg>
