<?xml version="1.0" encoding="utf-8"?>
<!-- Generator: Adobe Illustrator 16.0.3, SVG Export Plug-In . SVG Version: 6.00 Build 0)  -->
<!DOCTYPE svg PUBLIC "-//W3C//DTD SVG 1.1//EN" "http://www.w3.org/Graphics/SVG/1.1/DTD/svg11.dtd">
<svg version="1.1" id="Layer_1" xmlns="http://www.w3.org/2000/svg" xmlns:xlink="http://www.w3.org/1999/xlink" x="0px" y="0px"
	 width="102.937px" height="77.045px" viewBox="0 0 102.937 77.045" enable-background="new 0 0 102.937 77.045"
	 xml:space="preserve">
<g>
	<g>
		<rect x="18.794" y="57.274" fill="#170F38" width="2.914" height="16.331"/>
		<rect x="73.885" y="57.274" fill="#170F38" width="2.914" height="16.331"/>
		<rect fill="#D1D2DF" width="95.593" height="58.761"/>
		<rect x="4.569" y="3.936" fill="#FFFFFF" width="86.454" height="50.89"/>
		<path fill="#E4E5EC" d="M64.785,50.045H10.256c0,0,0.271-20.547,6.964-23.499c6.693-2.953,11.172,11.909,14.321,12.106
			c3.149,0.196,2.872-12.168,7.456-14.002c11.812-4.724,10.605,13.903,12.771,13.707c2.166-0.197,4.108-17.201,7.087-17.201
			C66.163,21.156,64.785,50.045,64.785,50.045z"/>
		<path fill="#2BC2DD" d="M64.785,50.045H10.256c0,0,1.378-17.52,8.071-20.473s9.646,11.221,12.796,11.418
			c3.149,0.196,6.103-9.843,11.023-10.236c4.922-0.395,8.269,11.614,10.434,11.417c2.165-0.196,3.32-19.095,6.299-19.095
			C64.785,23.076,64.785,50.045,64.785,50.045z"/>
		<path fill="#EF4661" d="M64.785,50.045H10.256c0,0,1.771-8.661,8.465-11.614s10.236,5.217,13.387,5.414
			c3.149,0.196,4.429-11.664,9.351-12.058c4.921-0.394,2.189,14.321,9.99,14.321c5.659,0,4.797-12.106,7.775-12.106
			C65.13,34.002,64.785,50.045,64.785,50.045z"/>
		<rect x="71.132" y="20.243" fill="#E4E5EC" width="16.167" height="2.833"/>
		<rect x="71.132" y="26.547" fill="#E4E5EC" width="16.167" height="2.834"/>
		<rect x="71.132" y="32.852" fill="#2BC2DD" width="16.167" height="2.833"/>
		<rect x="71.132" y="39.156" fill="#E4E5EC" width="16.167" height="2.833"/>
		<rect x="71.132" y="45.461" fill="#EF4661" width="16.167" height="2.833"/>
		<rect x="8.786" y="6.993" fill="#2BC2DD" width="2.952" height="2.952"/>
		<rect x="14.585" y="6.993" fill="#E4E5EC" width="13.39" height="2.952"/>
		<rect x="8.786" y="11.949" fill="#2BC2DD" width="2.952" height="2.952"/>
		<rect x="14.585" y="11.949" fill="#E4E5EC" width="13.39" height="2.952"/>
		<rect x="8.786" y="16.904" fill="#2BC2DD" width="2.952" height="2.952"/>
		<rect x="14.585" y="16.904" fill="#E4E5EC" width="13.39" height="2.952"/>
		<rect x="45.263" y="6.993" fill="#E4E5EC" width="42.036" height="4.112"/>
		<rect x="33.795" y="15.744" fill="#E4E5EC" width="21.087" height="3.479"/>
		<rect x="16.379" y="71.531" fill="#D1D2DF" width="7.744" height="2.887"/>
		<rect x="71.47" y="71.531" fill="#D1D2DF" width="7.744" height="2.887"/>
		<g>
			<g>
				<path fill="#2BC2DD" d="M36.932,7.778c1.055,0.079,2.017,0.529,2.023,1.584l-1.758,0.01c-0.012-0.398-0.421-0.481-0.678-0.479
					c-0.162,0.001-0.684,0.004-0.683,0.326c0.005,0.723,3.24-0.047,3.252,1.995c0.007,1.226-0.949,1.688-2.127,1.779l0.084,1.302
					l-1.074,0.007l0.059-1.313c-1.093-0.107-2.112-0.614-2.119-1.717l1.758-0.01v0.038c0.013,0.484,0.555,0.576,0.83,0.574
					c0.267-0.001,0.789-0.023,0.786-0.375c-0.004-0.75-3.239-0.047-3.252-2.023C34.027,8.337,34.908,7.895,36,7.793l-0.074-1.311
					L37,6.476L36.932,7.778z"/>
			</g>
		</g>
		<polygon fill="#EF4661" points="43.79,9.492 42.136,6.273 40.482,9.492 41.617,9.492 41.617,14.302 42.669,14.302 42.669,9.492 		
			"/>
	</g>
	<g>
		<path fill="#F58668" d="M89.62,26.798c0,0-1.552,0.944-2.852,3.539s-2.112,3.986-2.268,3.862c-0.691-0.554-2.519-2.117-5.192-6.31
			c-0.325-0.51,0.012-0.84,0.022-1.238c0.011-0.397,0.545-1.32,0.43-1.583c-0.115-0.262-0.44-0.199-0.755,0.431
			c-0.314,0.629-0.209,1.017-0.461,0.838c-0.252-0.178-0.87-0.954-1.069-1.278c-0.199-0.325-0.828-0.965-0.996-0.859
			c-0.159,0.099-0.197,0.271,0.751,1.629c-0.344-0.484-1.191-1.605-1.484-1.336c-0.219,0.201,0.615,1.207,0.992,1.654
			c-0.323-0.375-1.06-1.166-1.322-0.904c-0.319,0.317,1.25,1.509,1.25,1.509s-1.172-0.928-1.329-0.655
			c-0.157,0.273,0.524,0.876,1.195,1.253c0.671,0.378,0.791,0.513,1.063,0.65c0.174,0.087,0.452,0.523,0.614,0.793
			c0.01,0.022,4.914,10.521,6.673,9.553c1.762-0.969,4.101-4.407,4.101-4.407s0.65-1.078,0.906-2.746
			C90.114,29.718,89.975,27.696,89.62,26.798z"/>
		<path fill="#EF4661" d="M85.802,31.298c0.355-0.83,2.408-4.987,3.874-5.611l1.965,0.768c0.867,1.08-0.24,3.642-0.598,3.932
			c-0.303,0.244-1.758,3.239-2.061,3.552C87.075,32.594,85.802,31.298,85.802,31.298z"/>
		<path fill="#E35A40" d="M93.213,19.686l2.817,0.439c0,0-0.792,2.505,0.423,4.643c0,0-2.025,2.194-3.438,1.614
			c-1.51-0.62-0.947-2.146-0.947-2.146S93.605,23.019,93.213,19.686z"/>
		<path fill="#170F38" d="M98.856,72.34c0,0,0.761,3.016,0.326,3.506c-0.434,0.491-6.753,1.57-7.362,1.069s-0.42-1.503,0.867-2.047
			c1.38-0.584,2.133-0.285,2.981-0.775s0.427-1.874,0.427-1.874L98.856,72.34z"/>
		<path fill="#170F38" d="M90.999,71.821c0,0,0.152,3.783-0.352,4.201c-0.504,0.419-6.914,0.517-7.439-0.072
			s-0.22-1.428,1.079-1.715c1.168-0.259,2.038-0.03,2.939-0.415c0.791-0.338,1.186-2.111,1.186-2.111L90.999,71.821z"/>
		<path fill="#2BC2DD" d="M88.294,40.288l8.24-1.465c0,0-3.119,16.963-3.533,18.919s-1.644,14.851-1.644,14.851l-3.592-0.422
			c0,0,0.041-14.093,0.223-15.347C88.169,55.57,88.294,40.288,88.294,40.288z"/>
		<path fill="#00A7CC" d="M91.338,47.04c-0.408-2.66-0.133-4.727-0.721-6.024c-0.233-0.515-0.994-0.381-1.166-0.906
			c0.104-0.125,0.194-0.258,0.256-0.405l6.843-1.024c0,0-3.103,14.623-3.908,18.21C92.642,56.89,91.663,49.163,91.338,47.04z"/>
		<path fill="#2BC2DD" d="M91.713,39.465l6.616,1.685c0,0,0.853,2.432,0.4,5.487c-0.545,3.681-0.599,9.454-0.665,10.237
			c-0.067,0.783,1.237,13.222,1.338,16.199l-3.566,0.151c0,0-2.733-15.582-2.893-15.924C92.783,56.959,91.713,39.465,91.713,39.465z
			"/>
		<path fill="#EF4661" d="M88.653,33.67c0.139-2.788-0.615-6.994,1.022-7.983c1.372-0.829,2.505-1.502,2.505-1.502
			s0.41,0.999,1.386,1.13c0.977,0.132,2.527-1.339,2.527-1.339s1.786,1.053,3.396,1.771c-0.39,1.292,0.415,2.45,0.408,3.738
			c-0.003,0.756,0.104,1.439,0.28,2.099c-0.654,1.4-1.288,2.771-1.426,3.756c-0.357,2.54,0.79,6.441,0.79,6.441
			s-2.603,0.632-6.13,0.929c-1.904,0.16-4.105-0.232-6.046-0.719C87.366,41.991,88.514,36.457,88.653,33.67z"/>
		<path fill="#E32545" d="M100.177,31.58c-0.051-0.188-0.081-0.386-0.119-0.58c-0.028-0.144-0.067-0.282-0.088-0.43
			c-0.048-0.348-0.073-0.707-0.072-1.085c0.003-0.632-0.042-1.307-0.047-1.982c-0.333,0.244-0.741,0.83-1.145,0.594
			c-1.896-1.113-2.156,3.968-2.156,6.527c0,2.55-0.064,5.547-1.075,7.865c2.432-0.313,4.067-0.708,4.067-0.708
			s-0.161-0.549-0.344-1.369c-0.092-0.409-0.188-0.887-0.273-1.397c-0.028-0.17-0.055-0.345-0.08-0.521
			c-0.074-0.529-0.131-1.079-0.152-1.617c-0.021-0.537-0.008-1.061,0.06-1.537C98.891,34.353,99.524,32.981,100.177,31.58z"/>
		<path fill="#F58668" d="M95.977,15.037c0,0-4.034-0.611-4.499-0.164c-0.464,0.447-0.541,2.072-0.521,3.444
			c0.02,1.373-0.559,4.001,1.044,4.486c1.604,0.485,4.66-1.012,5.743-3.731C99.122,15.608,96.253,15.076,95.977,15.037z"/>
		<path fill="#170F38" d="M96.66,14.715c0,0-1.908,0.064-2.243,2.939c-0.151,1.295-0.477,2.294-0.077,2.358s0.813-0.206,0.813-0.58
			s0.115-1.594,0.876-1.255c0.761,0.34,0.503,1.81-0.464,2.234c0,0-0.2,0.825,0.573,1.289c0,0,2.012-1.265,2.302-3.523
			C98.729,15.92,97.878,14.65,96.66,14.715z"/>
		<path fill="#170F38" d="M97.425,14.969c0,0-0.452-1.805-2.579-1.946c-2.127-0.143-3.828,1.134-4.847,2.836
			c0,0,0.58,1.018,2.771,1.147c0.911,0.053,2.531-0.2,3.339-0.619C97.246,15.798,97.425,14.969,97.425,14.969z"/>
		<path fill="#F58668" d="M102.896,38.301c-0.132-0.647-0.742-4.468-0.956-5.882c-1.237,0.408-2.379,0.831-3.653,1.171
			c0.378,0.904,1.258,4.309,1.356,5.233c0.138,1.29-0.448,6.993-0.623,8.969l0,0c-0.015,0.158-0.026,0.292-0.036,0.403
			c-0.062,0.349-0.196,0.845-0.456,1.17c-0.289,0.363-1.256,1.545-1.091,2.06c0.164,0.516,0.97-0.428,1.265-0.749
			c0.294-0.321,0.346,0.752,0.272,1.329c-0.073,0.578-1.236,1.545-1.112,1.941c0.086,0.277,0.442,0.077,0.893-0.434
			c-0.212,0.316-0.372,0.624-0.254,0.705c0.158,0.108,0.448-0.091,0.765-0.432c-0.169,0.262-0.277,0.497-0.166,0.555
			c0.165,0.086,0.497-0.189,0.8-0.521c-0.158,0.238-0.266,0.467-0.154,0.537c0.211,0.133,0.891-0.49,1.149-1.309
			c0.211-0.663-0.29-2.533-0.47-3.488c-0.054-0.288-0.032-0.573,0.06-0.852C101.031,47.052,103.265,40.114,102.896,38.301z"/>
		<path fill="#EF4661" d="M98.286,34.836c1.271-0.193,2.989-0.729,4.452-1.338c-0.341-2.402-1.187-5.702-2.427-7.018
			c-0.345-0.365-0.958-1.034-1.517-0.843c-0.735,0.252-1.677,1.257-1.751,3.207c-0.019,0.477,0.396,3.329,0.736,4.245
			C97.933,33.498,98.083,34.246,98.286,34.836z"/>
	</g>
</g>
</svg>
