<?xml version="1.0" encoding="utf-8"?>
<!-- Generator: Adobe Illustrator 16.0.3, SVG Export Plug-In . SVG Version: 6.00 Build 0)  -->
<!DOCTYPE svg PUBLIC "-//W3C//DTD SVG 1.1//EN" "http://www.w3.org/Graphics/SVG/1.1/DTD/svg11.dtd">
<svg version="1.1" id="Layer_1" xmlns="http://www.w3.org/2000/svg" xmlns:xlink="http://www.w3.org/1999/xlink" x="0px" y="0px"
	 width="93.933px" height="80.556px" viewBox="0 0 93.933 80.556" enable-background="new 0 0 93.933 80.556" xml:space="preserve">
<g>
	<g>
		<polygon fill="#170F38" points="57.602,78.605 43.063,78.605 44.259,61.081 56.406,61.081 		"/>
		<path fill="#170F38" d="M59.507,75.8c-0.177-0.263-0.473-0.421-0.789-0.421h-8.051h-0.668h-8.051c-0.317,0-0.613,0.158-0.79,0.421
			l-2.196,3.277c-0.423,0.631,0.029,1.479,0.789,1.479h10.248h0.668h10.247c0.76,0,1.212-0.848,0.789-1.479L59.507,75.8z"/>
		<path fill="#170F38" d="M85.928,65.74H14.738c-2.26,0-4.092-1.832-4.092-4.092V16.625c0-2.26,1.832-4.092,4.092-4.092h71.189
			c2.26,0,4.091,1.832,4.091,4.092v45.023C90.019,63.908,88.188,65.74,85.928,65.74z"/>
		<rect x="14.301" y="16.059" fill="#FFFFFF" width="72.063" height="45.605"/>
		<rect x="16.102" y="21.025" fill="#E5E6EC" width="68.463" height="40.639"/>
		<rect x="16.102" y="21.025" fill="#B9E4ED" width="68.463" height="3.361"/>
		<rect x="59.979" y="35.353" fill="#FFFFFF" width="21.263" height="2.807"/>
		<rect x="59.979" y="40.314" fill="#FFFFFF" width="21.263" height="2.807"/>
		<rect x="59.979" y="45.276" fill="#FFFFFF" width="21.263" height="2.807"/>
		<rect x="22.415" y="27.761" fill="#FFFFFF" width="21.263" height="2.807"/>
		<rect x="22.415" y="32.723" fill="#FFFFFF" width="21.263" height="2.807"/>
	</g>
	<g>
		<g>
			<path fill="#EF4661" d="M42.687,33.59H2.545C1.14,33.59,0,34.729,0,36.135v12.944c0,1.405,1.14,2.545,2.545,2.545h25.148
				l9.579,8.145l-4.549-8.145h9.963c1.405,0,2.545-1.14,2.545-2.545V36.135C45.231,34.729,44.092,33.59,42.687,33.59z"/>
			<rect x="15.126" y="37.08" fill="#FFFFFF" width="27.052" height="1.558"/>
			<rect x="15.126" y="40.258" fill="#FFFFFF" width="27.052" height="1.558"/>
			<rect x="15.126" y="43.436" fill="#FFFFFF" width="27.052" height="1.558"/>
			<rect x="15.126" y="46.613" fill="#FFFFFF" width="17.954" height="1.558"/>
			<circle fill="#170F38" cx="7.765" cy="42.329" r="5.219"/>
			<ellipse fill="#FFFFFF" cx="7.765" cy="40.777" rx="1.473" ry="1.519"/>
			<path fill="#FFFFFF" d="M7.791,42.525H7.738c-1.443,0-2.614,1.17-2.614,2.614v1.667c0.777,0.46,1.673,0.741,2.641,0.741
				c0.969,0,1.864-0.281,2.642-0.741V45.14C10.406,43.695,9.235,42.525,7.791,42.525z"/>
		</g>
		<g>
			<path fill="#D1D2DF" d="M91.388,0H51.246c-1.405,0-2.545,1.14-2.545,2.545v12.944c0,1.405,1.14,2.545,2.545,2.545h11.623
				l-3.114,8.145l8.145-8.145h23.488c1.405,0,2.545-1.14,2.545-2.545V2.545C93.933,1.14,92.793,0,91.388,0z"/>
			<rect x="63.827" y="3.49" fill="#FFFFFF" width="27.052" height="1.558"/>
			<rect x="63.827" y="6.668" fill="#FFFFFF" width="27.052" height="1.558"/>
			<rect x="63.827" y="9.846" fill="#FFFFFF" width="27.052" height="1.558"/>
			<rect x="63.827" y="13.023" fill="#FFFFFF" width="17.954" height="1.558"/>
			<circle fill="#170F38" cx="56.466" cy="8.739" r="5.219"/>
			<ellipse fill="#FFFFFF" cx="56.466" cy="7.188" rx="1.473" ry="1.519"/>
			<path fill="#FFFFFF" d="M56.493,8.936h-0.054c-1.443,0-2.614,1.17-2.614,2.614v1.667c0.777,0.46,1.673,0.741,2.642,0.741
				c0.968,0,1.863-0.281,2.641-0.741V11.55C59.107,10.105,57.937,8.936,56.493,8.936z"/>
		</g>
	</g>
	<g>
		<path fill="#EF4661" d="M80.132,59.185H64.211c-1.296,0-2.346-1.05-2.346-2.345v-1.852c0-1.295,1.05-2.345,2.346-2.345h15.921
			c1.295,0,2.345,1.05,2.345,2.345v1.852C82.477,58.135,81.427,59.185,80.132,59.185z"/>
	</g>
	<g>
		<path fill="#F58668" d="M52.762,31.887c-1.069,0.205-2.193,0.232-3.221,0.142c-0.375-0.033-0.762-0.118-1.131-0.246
			c0.053,1.341,0.063,4.484-0.892,5.786c0,0,0.344,1.545,3.134,1.591c2.791,0.047,3.105-2.06,3.105-2.06
			S52.819,33.864,52.762,31.887z"/>
		<path fill="#E35A40" d="M47.533,37.617c0.009,0.026,0.022,0.064,0.043,0.109c0.002,0.005,0.005,0.01,0.007,0.014
			c0.021,0.048,0.05,0.103,0.086,0.163c0.002,0.003,0.003,0.005,0.005,0.008c0.037,0.061,0.086,0.128,0.142,0.198
			c0.008,0.009,0.016,0.019,0.024,0.028c0.12,0.143,0.284,0.295,0.506,0.439c0.012,0.008,0.023,0.016,0.036,0.024
			c0.111,0.069,0.237,0.136,0.378,0.197c0.018,0.008,0.038,0.016,0.057,0.023c0.147,0.062,0.308,0.119,0.489,0.167
			c0.087-0.708,0.356-1.398,0.822-1.981c0.823-1.03,1.913-1.628,3.142-1.823c-0.238-1.048-0.479-2.324-0.508-3.298
			c-1.069,0.205-2.193,0.232-3.221,0.142c-0.375-0.033-0.762-0.118-1.131-0.246c0.053,1.341,0.063,4.484-0.892,5.786
			c0,0,0.005,0.017,0.01,0.033C47.529,37.605,47.531,37.611,47.533,37.617z"/>
		<path fill="#F58668" d="M48.896,24.359c0,0,4.572-1.351,5.301-0.243c0.728,1.107,0.596,2.896,0.899,3.685s1.438,1.618,1.56,1.934
			c0.121,0.315-0.761,0.917-0.883,1.164c-0.123,0.246-0.583,2.834-1.377,3.405s-5.052-0.945-6.106-2.956S47.67,25.021,48.896,24.359
			z"/>
		<path fill="#170F38" d="M50.979,25.162c0,0,0.14,1.121-0.481,2.362c-0.273,0.547,1.092,2.001,0.712,2.662
			c-0.253,0.439-0.623,0.328-0.959-0.541c-0.115-0.298-0.443-0.504-0.739-0.632c-1.119-0.484-1.38,1.222-0.376,1.729
			c0.702,0.354,0.284,2.133,0.284,2.133c-0.754,0.58-3.247-0.119-2.974-1.939c0.174-1.159,0.251-1.601-0.155-1.883
			c-0.735-0.511-1.691-1.929-0.482-3.132c1.667-1.657,0.146-2.184,2.074-2.661C49.809,22.781,51.401,23.958,50.979,25.162z"/>
		<path fill="#170F38" d="M47.567,24.188c0.108-0.42,0.869-0.962,1.245-1.243c0.58-0.433,1.253-0.706,1.973-0.89
			c0.713-0.182,1.477-0.212,2.197-0.074c0.625,0.12,1.149,0.397,1.789,0.471c0.592,0.066,1.18,0.04,1.595-0.31
			c0.13,0.392,0.127,1.177,0.078,1.446c-0.104,0.57-0.48,1.081-0.822,1.591c-0.927,1.384-3.45,2.15-5.229,1.419
			c-0.859-0.354-1.631-0.659-2.053-1.406C48.097,24.761,47.912,24.553,47.567,24.188z"/>
		<path fill="#170F38" d="M71.973,27.169l4.421,9.812c0,0-1.294,1.455-1.726,1.132c-0.431-0.323-7.062-8.284-7.709-8.697
			C66.313,29.002,71.973,27.169,71.973,27.169z"/>
		<path fill="#EF4661" d="M61.012,28.391c0,0,0.018,2.821,1.743,3.468c0,0,8.841-3.663,10.619-4.015
			c1.779-0.352,8.248-0.405,8.248-0.405L75.1,15.794c0,0-3.127,6.254-5.984,8.303C66.259,26.145,61.012,28.391,61.012,28.391z"/>
		<path fill="#170F38" d="M66.746,30.242c0.699-0.278,1.429-0.565,2.147-0.843c-1.083-1.22-1.646-2.92-1.86-3.99
			c-0.671,0.385-1.365,0.755-2.038,1.099C65.295,28.035,65.94,29.305,66.746,30.242z"/>
		
			<ellipse transform="matrix(0.9238 -0.3829 0.3829 0.9238 -1.9148 31.9288)" fill="#2BC2DD" cx="79.242" cy="20.774" rx="5.183" ry="8.706"/>
		
			<ellipse transform="matrix(0.9237 -0.3831 0.3831 0.9237 -1.8291 32.0654)" fill="#170F38" cx="79.6" cy="20.625" rx="4.409" ry="7.406"/>
		<path fill="#F58668" d="M71.393,34.233c-0.211-0.127-0.151-0.917-0.108-1.122c0.066-0.321,0.289-0.741,0.065-1.048
			c-0.395-0.544-0.948,0.918-1.021,1.131c-0.139,0.406-0.188,0.683-0.102,0.975c0.072,0.243,0.509,1.005,0.846,1.277
			c-0.041,0.146-0.086,0.297-0.142,0.458c0.422,0.188,0.657,0.304,1.065,0.539c0.427,0.246,0.405,0.551,0.805,0.825l0.398-0.917
			C73.033,36.143,71.743,34.446,71.393,34.233z"/>
		<path fill="#F58668" d="M74.225,31.022c-0.383-0.411-0.978-0.253-1.439,0.084c-0.338,0.246-1.311,1.033-1.049,1.604
			c0.218,0.474,1.469-0.575,1.469-0.575c-0.46,0.396-1.319,0.713-1.104,1.11c0.241,0.442,1.333-0.188,1.572-0.364
			c-0.245,0.063-1.465,0.804-0.977,1.19c0.335,0.265,1.231-0.291,1.5-0.48c-0.359,0.109-0.85,0.429-0.755,0.928
			c0.157,0.273,0.701,0.092,1.004-0.031c0.457-0.186,0.888-0.257,0.924-0.825c0.007-0.105,0.021-0.197,0.016-0.308
			c-0.02-0.411-0.206-0.876-0.401-1.236C74.768,31.719,74.516,31.337,74.225,31.022z"/>
		<path fill="#F58668" d="M27.685,34.279c-0.218-0.333-0.38-0.713-0.511-1.087c-0.114-0.326-0.194-0.659-0.307-0.984
			c-0.109-0.313-0.238-0.626-0.22-0.964c0.011-0.211,0.064-0.385,0.118-0.589c0.064-0.25,0.157-0.493,0.208-0.746
			c0.046-0.226,0.026-0.445,0.068-0.67c0.079-0.417,0.177-0.863,0.391-1.236c0.166-0.29,0.347-0.532,0.567-0.781
			c0.116-0.131,0.198-0.245,0.336-0.358c0.128-0.105,0.253-0.219,0.309-0.38c0.077-0.225-0.041-0.431-0.265-0.487
			c-0.394-0.101-1.014,0.08-1.253,0.41c-0.333,0.458-0.49,1.019-0.861,1.461c-1.134,1.351-2.197-0.239-3.521-0.812
			c-0.38-0.164-0.949-0.576-1.279-0.824c-0.236-0.178-1.252-1.143-1.732-0.892c-0.353,0.186,0.339,0.996,0.673,1.194
			c0.132,0.078,1.266,0.999,1.413,1.043c-0.334-0.057-1.202-0.631-1.9-1.177c-0.502-0.394-0.988-0.779-1.262-0.556
			c-0.842,0.689,2.461,2.269,2.72,2.413c-0.275,0.023-2.862-1.808-3.106-1.135c-0.135,0.37,0.402,0.737,0.841,0.976
			c0.551,0.3,1.474,0.514,1.682,0.675c-0.389,0.133-2.102-1.032-2.102-0.321c-0.001,0.465,1.063,0.813,1.463,0.936
			c0.412,0.125,1.624,0.949,2.007,1.132c1.278,0.609,1.807,0.538,2.311,1.304c0.321,0.488,0.894,3.066,1.357,4.047L27.685,34.279z"
			/>
		<path fill="#2BC2DD" d="M70.68,35.554c-1.14,3.318-3.577,9.189-4.382,8.777c-1.51-0.773-4.759-3.43-7.186-5.055
			c-1.881-1.259-2.823-1.627-2.823-1.627l1.69,8.012c0,0,8.009,6.083,9.687,5.151c1.319-0.733,4.567-9.982,5.714-13.815
			C73.38,36.997,70.698,35.568,70.68,35.554z"/>
		<path fill="#00A7CC" d="M62.748,46.981c-0.902-1.172-4.348-4.545-5.279-5.264l0.27,3.8c0,0,8.073,6.068,9.859,5.311
			C66.06,49.84,63.845,48.405,62.748,46.981z"/>
		<path fill="#2BC2DD" d="M42.699,38.074c0,0-9.85,3.976-10.922,3.696c-1.071-0.28-4.643-10.436-4.643-10.436l-2.982,1.212
			c0,0,3.186,14.647,5.236,15.333c2.051,0.685,14.275-2.847,14.275-2.847S43.864,41.477,42.699,38.074z"/>
		<path fill="#00A7CC" d="M34.296,46.967c-0.868,0.311-1.751,0.618-2.638,0.879c4.178-0.552,12.006-2.813,12.006-2.813
			s0.084-1.626-0.214-3.724C41.025,43.937,37.576,45.789,34.296,46.967z"/>
		<path fill="#D1D2DF" d="M79.005,21.642c-0.45-1.39-1.806-2.195-3.027-1.799c-0.418,0.136-0.759,0.4-1.018,0.737
			c0.142,0.572,0.326,1.152,0.567,1.734c0.414,0.998,0.937,1.891,1.521,2.65c0.188-0.007,0.376-0.03,0.562-0.091
			C78.831,24.479,79.456,23.03,79.005,21.642z"/>
		<g>
			<path fill="#2BC2DD" d="M42.716,50.056c-0.348,3.419-0.618,10.604-0.822,11.608h16.161c0.285-5.368,0.189-13.142-0.075-16.003
				c-0.463-4.984-1.69-8.012-1.69-8.012s-1.206-0.381-2.638-0.932c0,0-2.975,1.817-5.744,0.024c0,0-5,1.184-5.604,1.473
				C41.801,38.454,43.088,46.405,42.716,50.056z"/>
			<path fill="#00A7CC" d="M46.99,54.735c-0.022-1.6-0.318-3.182-0.925-4.663c-0.138-0.338-0.249-0.684-0.297-1.046
				c-0.14-1.073-0.37-1.777-0.684-2.387c-0.361-0.546-0.728-1.089-1.084-1.638c-0.199-0.27-0.407-0.554-0.637-0.89
				c-0.3-0.438-0.751-1.242-0.987-1.746c0.189,2.51,0.525,5.862,0.339,7.689c-0.348,3.419-0.618,10.604-0.822,11.608h7.521
				c-0.967-1.244-1.547-2.758-2.114-4.605C47.069,56.309,47.002,55.525,46.99,54.735z"/>
		</g>
	</g>
</g>
</svg>
