<?xml version="1.0" encoding="utf-8"?>
<!-- Generator: Adobe Illustrator 16.0.3, SVG Export Plug-In . SVG Version: 6.00 Build 0)  -->
<!DOCTYPE svg PUBLIC "-//W3C//DTD SVG 1.1//EN" "http://www.w3.org/Graphics/SVG/1.1/DTD/svg11.dtd">
<svg version="1.1" id="Layer_1" xmlns="http://www.w3.org/2000/svg" xmlns:xlink="http://www.w3.org/1999/xlink" x="0px" y="0px"
	 width="86.824px" height="90.036px" viewBox="0 0 86.824 90.036" enable-background="new 0 0 86.824 90.036" xml:space="preserve">
<g>
	<g>
		<circle fill="#EF4661" cx="37.848" cy="45.9" r="37.848"/>
		<circle fill="#FFFFFF" cx="37.848" cy="45.9" r="28.688"/>
		<circle fill="#EF4661" cx="37.848" cy="45.9" r="20.491"/>
		<circle fill="#FFFFFF" cx="37.848" cy="45.9" r="14.102"/>
		<circle fill="#EF4661" cx="37.848" cy="45.9" r="6.509"/>
	</g>
	<g>
		<path fill="#F58668" d="M54.696,28.997c0,0-0.551,1.333-0.524,1.291s-0.841-0.41-0.892-0.399
			c-0.051,0.012-0.769-0.016-1.059-0.075c-0.291-0.059-0.518-0.258-0.611-0.315c-0.105-0.064-0.283-0.267-0.125-0.315
			c0.139-0.042,0.295,0.15,0.387,0.188c0.09,0.038,0.408,0.039,0.408,0.039s-0.119-0.055-0.352-0.147
			c-0.281-0.113-0.696-0.277-0.78-0.361c-0.079-0.08-0.062-0.252,0.157-0.211c0.262,0.05,0.504,0.172,0.547,0.184
			c0.045,0.013,0.459,0.163,0.459,0.163s-0.357-0.137-0.484-0.194c-0.143-0.064-0.534-0.219-0.782-0.33
			c-0.239-0.107-0.186-0.377,0.034-0.361c0.162,0.012,0.711,0.309,0.797,0.337s0.466,0.204,0.466,0.204s-0.454-0.208-0.53-0.258
			s-0.58-0.242-0.639-0.392c-0.028-0.073,0.004-0.22,0.18-0.191c0.203,0.034,0.497,0.146,0.633,0.216
			c0.109,0.056,0.827,0.399,0.986,0.406c0.143,0.005,0.301-0.009,0.303-0.189l0.246-0.454c0,0,0.166,0.08,0.252,0.492
			C53.819,28.547,54.194,28.832,54.696,28.997z"/>
		<g>
			<g>
				<path fill="#0DBAD0" d="M69.728,34.314c-0.002-1.111-0.875-2.029-1.974-2.195c-1.802-0.272-5.151-0.789-6.161-1.022
					c-1.405-0.324-7.145-2.239-7.145-2.239l-0.629,1.515c0,0,6.245,3.137,7.368,3.382c1.123,0.245,6.89,2.291,8.007,1.646
					C69.587,35.176,69.728,34.766,69.728,34.314z"/>
			</g>
		</g>
		<g>
			<polygon fill="#170F38" points="74.289,49.336 73.927,48.251 57.71,48.251 58.056,49.336 			"/>
			<polygon fill="#170F38" points="76.216,55.118 75.851,54.021 59.548,54.021 59.897,55.118 			"/>
			<polygon fill="#170F38" points="71.85,43.556 71.487,42.471 55.271,42.471 55.616,43.556 			"/>
			<polygon fill="#170F38" points="78.165,60.96 77.795,59.852 61.405,59.852 61.758,60.96 			"/>
			<polygon fill="#170F38" points="80.134,66.867 79.761,65.747 63.282,65.747 63.639,66.867 			"/>
			<polygon fill="#170F38" points="82.124,72.836 81.746,71.704 65.179,71.704 65.54,72.836 			"/>
			<polygon fill="#170F38" points="84.136,78.872 83.755,77.726 67.097,77.726 67.462,78.872 			"/>
			<path fill="#170F38" d="M85.997,87.558h0.076c0.513,0,0.874-0.502,0.712-0.988L71.556,40.952
				c-0.102-0.306-0.389-0.512-0.711-0.512h-1.05l15.49,46.605C85.388,87.351,85.674,87.558,85.997,87.558z"/>
			<path fill="#170F38" d="M69.502,87.558h0.083c0.508,0,0.869-0.495,0.715-0.979L55.739,40.961c-0.1-0.311-0.389-0.522-0.715-0.522
				h-0.016c-0.508,0-0.869,0.493-0.715,0.977l14.493,45.618C68.886,87.346,69.175,87.558,69.502,87.558z"/>
		</g>
		<path fill="#F58668" d="M69.466,27.17c-0.033,0.036-0.064,0.073-0.099,0.108c-0.317,0.32-0.651,0.646-1.028,0.896
			c-0.23,0.152-0.586,0.251-0.783,0.411c-0.078,0.064-0.161,0.122-0.246,0.174c0.114,0.642,0.398,2.331,0.354,2.99
			c0,0,2.054-0.146,2.803-0.975C70.466,30.774,69.614,28.487,69.466,27.17z"/>
		<path fill="#E35A40" d="M68.364,30.603c0.143-0.585,0.471-1.156,0.936-1.548c0.159-0.135,0.321-0.255,0.492-0.365
			c-0.148-0.534-0.277-1.081-0.326-1.52c-0.033,0.036-0.064,0.073-0.099,0.108c-0.317,0.32-0.651,0.646-1.028,0.896
			c-0.23,0.152-0.586,0.251-0.783,0.411c-0.078,0.064-0.161,0.122-0.246,0.174c0.114,0.642,0.398,2.331,0.354,2.99
			c0,0,0.354-0.026,0.816-0.113C68.331,31.322,68.276,30.961,68.364,30.603z"/>
		<path fill="#170F38" d="M68.328,63.811c0,0-0.056,2.048-0.376,2.328c-0.32,0.279-4.394,0.401-4.744,0.027
			c-0.35-0.373-0.145-1.002,0.73-1.244c0.937-0.261,1.396-0.006,1.982-0.25c0.588-0.244,0.433-1.17,0.433-1.17L68.328,63.811z"/>
		<path fill="#170F38" d="M78.429,63.743c0,0,0.313,1.994,0.004,2.285c-0.309,0.293-4.457,0.618-4.822,0.258
			c-0.364-0.359-0.183-0.996,0.682-1.271c0.926-0.297,1.375-0.108,1.973-0.326c0.471-0.172,0.153-1.121,0.153-1.121L78.429,63.743z"
			/>
		<g>
			<path fill="#D1D2DF" d="M75.418,52.264c0.091-5.664-0.558-9.559-0.851-11.383c-0.678,0.025-1.356,0.085-2.033,0.393
				c-1.243,0.566-2.494,1.109-3.742,1.653c1.015,2.098,3.234,8.947,3.502,10.38c0.332,1.782,4.059,10.877,4.059,10.877l2.255-0.283
				C78.571,62.436,75.41,52.756,75.418,52.264z"/>
			<path fill="#ACAEC5" d="M70.792,42.084c-0.654,0.319-1.332,0.571-2.012,0.818c0.994,2.058,2.81,7.752,3.22,9.266
				c0.316-0.955,1.846-3.263,2.433-5.789c0.393-1.689,0.461-3.438,0.189-5.152c0-0.007-0.002-0.013-0.002-0.02
				C73.354,41.294,72.13,41.431,70.792,42.084z"/>
			<path fill="#D1D2DF" d="M72.478,41.774c-0.879,0.296-2.479,0.722-3.686,1.153c-0.841,2.125-3.325,7.141-3.454,9.409
				c-0.143,2.502,0.724,11.982,0.724,11.982h2.58c0,0,0.24-10.686,0.602-11.373c1.191-2.264,2.508-4.059,3.256-5.467
				c1.256-2.363,1.682-3.881,1.903-4.987c0.097-0.488,0.524-2.125-0.305-2.638C73.412,40.048,73.213,41.526,72.478,41.774z"/>
		</g>
		<g>
			<path fill="#0DBAD0" d="M67.853,43.442c0,0,2.166,0.875,4.301,0.669c1.58-0.15,2.398-0.176,3.323-0.674
				c0,0-0.989-7.703-2.128-10.132c-1.141-2.428-3.013-2.894-3.013-2.894s-1.476,0.857-2.681,0.838c0,0,0.029,4.733,0.121,6.623
				C67.868,39.763,67.853,43.442,67.853,43.442z"/>
			<path fill="#00A7CC" d="M67.749,37.182c-0.006-0.208-0.013-0.428-0.02-0.662c0-0.027-0.001-0.057-0.002-0.084
				c-0.005-0.223-0.01-0.453-0.016-0.689c0-0.039-0.001-0.078-0.002-0.118c-0.005-0.263-0.01-0.529-0.014-0.796
				c0-0.004,0-0.008,0-0.012c0.098,0,0.195-0.001,0.291-0.02c0.754-0.146,1.408-0.568,2.061-0.953
				c0.109-0.064,0.227-0.118,0.342-0.174c0.13,1.012-0.324,2.247-0.521,3.051c-0.543,2.225-0.838,5.042-0.371,7.192
				c-0.963-0.206-1.645-0.474-1.645-0.474s0.016-3.68-0.076-5.569c-0.008-0.167-0.016-0.363-0.023-0.57
				C67.752,37.263,67.751,37.223,67.749,37.182z"/>
		</g>
		<path fill="#F58668" d="M70.53,25.253c0,0-0.877-1.831-2.043-1.757c-1.167,0.074-1.916,0.265-2.072,0.715
			c-0.154,0.45-0.416,1.691-0.715,2.15c-0.299,0.458-0.943,1.061-0.93,1.269c0.014,0.208,0.682,0.28,0.719,0.365
			s0.396,1.596,0.641,1.753c0.244,0.157,2.486-0.718,2.833-1.386C69.31,27.696,70.632,26.436,70.53,25.253z"/>
		<path fill="#170F38" d="M68.149,25.426c-0.115,0.008-0.258,0.083-0.35,0.099c-0.17,0.031-0.347,0.045-0.519,0.074
			c-0.347,0.06-0.696,0.112-1.038-0.001c-0.506-0.167-0.344-0.666-0.576-1.018c-0.113-0.17-0.354-0.17-0.477-0.36
			c-0.117-0.181-0.154-0.441-0.152-0.653c0.009-0.533,0.528-0.583,0.938-0.684c0.478-0.119,0.506-0.384,0.734-0.746
			c0.566-0.895,1.366,0.347,1.994,0.271c0.322-0.039,0.659-0.248,0.971-0.071c0.27,0.153,0.43,0.422,0.611,0.663
			c0.188,0.25,0.374,0.148,0.648,0.252c0.2,0.076,0.422,0.268,0.566,0.432c0.32,0.367,0.53,0.923,0.432,1.406
			c-0.084,0.411-0.415,0.634-0.432,1.066c-0.014,0.343,0.006,0.769-0.162,1.083c-0.243,0.455-0.785,0.515-1.147,0.826
			c-0.345,0.295-0.835,0.509-1.302,0.402c-0.048-0.323-0.018-0.866,0.266-1.028c0.113-0.064,0.252-0.076,0.432-0.221
			c0.325-0.265,0.133-0.932-0.479-0.846c-0.368,0.051-0.534,1.057-0.936,0.894c-0.306-0.125,0.062-0.632,0.146-0.806
			c0.111-0.229,0.17-0.807-0.047-1C68.239,25.432,68.196,25.423,68.149,25.426z"/>
		<path fill="#F58668" d="M58.372,43.484c-0.119-0.01-0.26-0.038-0.303-0.024c-0.195,0.065-0.524-0.03-0.662-0.082
			c-0.314-0.118-0.793-0.326-1.115-0.27c-0.187,0.033-1.31,0.295-1.033,0.755c0.037,0.063,0.174,0.159,0.213,0.145
			c0.115-0.043,0.439-0.161,0.439-0.161s-0.248,0.091-0.299,0.127c-0.044,0.031-0.127,0.068-0.156,0.112
			c-0.062,0.096,0.033,0.301,0.131,0.335c0.096,0.033,0.17-0.063,0.252-0.108c-0.002,0.001-0.004,0.003-0.006,0.004
			c-0.078,0.062-0.246,0.104-0.143,0.342c0.117,0.264,0.197,0.098,0.311,0.069c0.039-0.01,0.08-0.029,0.121-0.048
			c-0.043,0.024-0.2,0.099-0.232,0.127c-0.105,0.094,0.127,0.406,0.336,0.379c0.127-0.016,0.43-0.199,0.502-0.18
			c0.08,0.022,0.177,0.021,0.26,0.029c0.256,0.024,0.523-0.045,0.758-0.151c0.105-0.048,0.314-0.13,0.418-0.186
			c0.261-0.14,0.548-0.36,0.625-0.425C58.614,43.944,58.337,43.86,58.372,43.484z"/>
		<path fill="#0DBAD0" d="M58.763,44.894l-0.906-1.795c0,0,4.494-2.877,6.138-4.535c1.644-1.657,3.42-5.03,4.673-5.243
			c1.252-0.212,2.514,0.479,1.788,2.223s-4.401,4.055-5.149,4.823S59.497,44.481,58.763,44.894z"/>
	</g>
	<g>
		<path fill="#EF4661" d="M71.237,2.412c-0.802-0.343-3.361-1.676-5.418,3.181c-1.959,4.625-4.031,10.895-4.031,10.895
			s5.096-4.198,8.701-7.695C74.274,5.119,71.985,2.893,71.237,2.412z"/>
		<path fill="#170F38" d="M66.863,6.121l-4.897,5.042c-1.477,1.52-2.813,3.17-3.994,4.93L37.965,45.9l22.667-24.541
			c2.558-2.769,4.655-5.928,6.214-9.358l1.914-4.211C68.017,7.382,67.374,6.81,66.863,6.121z"/>
		<path fill="#EF4661" d="M60.964,16.87c0,0-3.296-9.19-0.213-15.142c3.082-5.951,7.107,5.381,7.107,5.381L60.964,16.87z"/>
		<path fill="#EF4661" d="M60.938,16.815c0,0,9.764-0.017,14.316-4.935s-7.473-4.861-7.473-4.861L60.938,16.815z"/>
	</g>
	<path fill="#F58668" d="M53.647,29.02c-0.075-0.03-0.153,0.169-0.227,0.146c0-0.004,0.013-0.22,0.012-0.225
		c-0.027-0.198-0.78-0.248-0.947-0.335c-0.504-0.264-0.301-0.581-0.071-0.509c0.156,0.049,0.511,0.154,0.646,0.214
		c0.145,0.064,0.379,0.033,0.522,0.06c0.14,0.025,0.526,0.37,0.647,0.45C54.487,28.992,53.921,29.131,53.647,29.02z"/>
	<g>
		<path fill="#0DBAD0" d="M18.358,57.981c0,0-4.027,1.008-7.048,3.245c-3.021,2.237-6.153,9.173-6.769,14.04s-1.846,8.67,0,11.16
			c1.846,2.488,7.831,2.992,12.978,3.496c5.146,0.503,12.247-0.728,13.675-2.518c1.428-1.79,1.316-15.34-1.369-20.451
			C27.141,61.841,22.274,57.87,18.358,57.981z"/>
		<path fill="#00A7CC" d="M25.218,87.133c-1.035-0.344-2.099-0.72-2.953-1.424c-1.832-1.51-2.949-1.957-5.229-1.935
			c-2.086,0.021-4.102,0.015-5.893-1.169c-1.596-1.055-2.488-3.411-2.103-5.262c0.281-1.348,0.685-2.421,1.516-3.525
			c1.173-1.558,1.398-2.677,0.98-4.625c-0.499-2.327-0.574-4.315,0.109-6.622c0.353-1.191,1.185-2.058,2.12-2.837
			c-0.828,0.418-1.675,0.912-2.456,1.491c-3.021,2.237-6.153,9.173-6.769,14.04s-1.846,8.67,0,11.16
			c1.846,2.488,7.831,2.992,12.978,3.496c5.146,0.503,12.247-0.728,13.675-2.518c0.277-0.348,0.495-1.142,0.649-2.227
			C30.057,86.944,27.74,87.971,25.218,87.133z"/>
		<path fill="#0DBAD0" d="M17.799,58.989c0,0-4.321-1.049-4.908-4.322c-0.587-3.271,1.133-4.404,2.454-3.649
			c1.322,0.755,1.531,0.349,2.454-0.225c0.923-0.573,2.266,0.351,2.937,1.315s0.797-0.168,2.392-0.293
			c1.594-0.127,2.139,1.342,1.3,3.271S22.792,59.073,17.799,58.989z"/>
		<g>
			<path fill="#00A7CC" d="M22.482,57.148c-1.119,0.288-0.456-1.158-0.639-1.661c-0.292,0.015-0.402,0.5-0.499,0.711
				c-0.21,0.456-0.686,0.762-1.19,0.756c-0.698-0.009-0.794-0.77-1.092-1.238c-0.125-0.196-0.184-0.189-0.262,0.047
				c-0.086,0.26-0.003,0.564-0.246,0.768c-0.447,0.375-1.19-0.051-1.537-0.353c-0.378-0.329-0.536-0.87-0.94-1.188
				c-0.074,0.076-0.104,0.178-0.126,0.281c-0.1,0.471-0.071,1.366-0.838,1.202c-0.65-0.14-1.087-1.202-1.296-1.743
				c-0.241-0.623-0.468-1.365-0.466-2.038c0.001-0.293,0.019-0.575,0.059-0.86c0.022-0.164,0.079-0.523,0.159-0.66l-0.005-0.003
				c-0.623,0.548-0.998,1.7-0.674,3.499c0.5,2.783,3.7,3.959,4.646,4.248c0.165,0.05,0.337,0.076,0.51,0.076
				c3.933,0.01,5.155-1.359,5.926-2.904c-0.002,0.002-0.004,0.006-0.007,0.007C23.966,56.093,22.883,57.044,22.482,57.148z"/>
		</g>
		<g>
			<g>
				<path fill="#FFFFFF" d="M19.619,68.709c2.118,0.209,4.033,1.161,3.996,3.282l-3.537-0.063c-0.004-0.802-0.824-0.988-1.34-0.998
					c-0.325-0.006-1.376-0.023-1.388,0.625c-0.026,1.453,6.519,0.059,6.446,4.168c-0.043,2.466-1.99,3.35-4.363,3.479l0.106,2.623
					l-2.16-0.039l0.18-2.636c-2.194-0.269-4.221-1.337-4.182-3.554l3.536,0.063l-0.001,0.076C16.914,76.71,18,76.92,18.554,76.93
					c0.536,0.01,1.588-0.009,1.6-0.717c0.027-1.51-6.515-0.249-6.445-4.225c0.041-2.294,1.835-3.143,4.036-3.294l-0.086-2.64
					l2.16,0.037L19.619,68.709z"/>
			</g>
		</g>
		<path fill="#170F38" d="M14.652,57.432l-0.39,2.061c0,0,1.104,1.062,4.11,1.062s4.629-1.063,4.629-1.063l-0.196-1.86
			C22.806,57.631,18.693,58.674,14.652,57.432z"/>
	</g>
</g>
</svg>
