<?xml version="1.0" encoding="utf-8"?>
<!-- Generator: Adobe Illustrator 24.3.0, SVG Export Plug-In . SVG Version: 6.00 Build 0)  -->
<svg version="1.1" id="Layer_1" xmlns="http://www.w3.org/2000/svg" xmlns:xlink="http://www.w3.org/1999/xlink" x="0px" y="0px"
	 viewBox="0 0 92.6 81.4" style="enable-background:new 0 0 92.6 81.4;" xml:space="preserve">
<style type="text/css">
	.st0{fill:#575757;}
	.st1{fill:#FFFFFF;}
	.st2{fill:#B2B2B2;}
	.st3{fill:#F0F0F0;}
	.st4{fill:#489FC0;}
	.st5{fill:#B81F40;}
	.st6{fill:#F58668;}
	.st7{fill:#E7795D;}
</style>
<rect x="13.7" y="58.1" class="st0" width="65.1" height="9.6"/>
<path class="st0" d="M81.1,64.6H11.5c-2.2,0-4-1.8-4-4v-44c0-2.2,1.8-4,4-4h69.5c2.2,0,4,1.8,4,4v44C85.1,62.9,83.3,64.6,81.1,64.6z
	"/>
<rect x="11.1" y="16.1" class="st1" width="70.4" height="44.5"/>
<path class="st0" d="M0,78.5v1.4c0,0.8,0.9,1.4,1.9,1.4h88.8c1.1,0,1.9-0.6,1.9-1.4v-1.4H0z"/>
<path class="st0" d="M46.3,67.6h-38C8.2,67.7,2.2,73,0.4,77c-0.8,1.7-0.3,2.6,1.2,2.6h44.8h44.8c1.5,0,2-0.9,1.2-2.6
	c-1.8-4-7.8-9.3-7.9-9.5H46.3z"/>
<polygon class="st2" points="87.8,77.6 6.8,77.6 12.4,69.3 82.2,69.3 "/>
<g>
	<g>
		<g>
			<g>
				<path class="st3" d="M86.8,76.1l-0.2-0.3h-5.4l-1-2h5.1l-0.2-0.3h-5l-1-2h4.6l-0.2-0.3H79l-1-2h-0.5l1,2h-5.8l-0.8-2h-0.5l0.8,2
					h-5.8l-0.6-2h-0.5l0.6,2h-5.8l-0.4-2h-0.5l0.4,2h-5.8l-0.2-2h-0.5l0.2,2h-5.5v-2h-0.5v2h-5.7l0.2-2h-0.5l-0.2,2h-5.8l0.4-2h-0.5
					l-0.4,2h-5.8l0.6-2h-0.5l-0.6,2h-5.8l0.8-2h-0.5l-0.8,2h-5.8l1-2h-0.5l-1,2H11l-0.2,0.3H16l-1,2H9.5l-0.2,0.3h5.6l-1,2H8
					l-0.2,0.3h6L13,77.6h0.5l0.7-1.5h6.2l-0.6,1.5h0.5l0.6-1.5h6.2l-0.4,1.5h0.5l0.4-1.5H34l-0.3,1.5h0.5l0.3-1.5h6.2l-0.1,1.5h0.5
					l0.1-1.5h6.1v1.5h0.5v-1.5h5.9l0.1,1.5h0.5l-0.1-1.5h6.2l0.3,1.5h0.5l-0.3-1.5h6.2l0.4,1.5h0.5l-0.4-1.5h6.2l0.6,1.5h0.5
					l-0.6-1.5h6.2l0.7,1.5h0.5l-0.7-1.5H86.8z M22.8,71.6h5.8l-0.6,2h-6L22.8,71.6z M16.5,71.6h5.8l-0.8,2h-6L16.5,71.6z M20.6,75.9
					h-6.2l1-2h6L20.6,75.9z M27.3,75.9h-6.2l0.8-2h6L27.3,75.9z M34.1,75.9h-6.2l0.6-2h6L34.1,75.9z M34.5,73.6h-6l0.6-2h5.8
					L34.5,73.6z M40.8,75.9h-6.2l0.4-2h6L40.8,75.9z M41,73.6h-6l0.4-2h5.8L41,73.6z M47.4,75.9h-6.1l0.2-2h5.9
					C47.4,73.8,47.4,75.9,47.4,75.9z M47.4,73.6h-5.9l0.2-2h5.7V73.6z M47.9,71.6h5.5l0.2,2h-5.7V71.6z M47.9,75.9v-2h5.7l0.2,2
					H47.9z M78.6,71.6l1,2h-6l-0.8-2H78.6z M72.3,71.6l0.8,2h-6l-0.6-2H72.3z M53.9,71.6h5.8l0.4,2h-6L53.9,71.6z M54.3,75.9l-0.2-2
					h6l0.4,2H54.3z M60.2,71.6H66l0.6,2h-6L60.2,71.6z M61,75.9l-0.4-2h6l0.6,2H61z M67.8,75.9l-0.6-2h6l0.8,2H67.8z M74.5,75.9
					l-0.8-2h6l1,2H74.5z"/>
			</g>
		</g>
	</g>
</g>
<path class="st2" d="M46.3,79.6h-3.9c0,0,0,0.3,0.2,0.5c0.1,0.1,0.2,0.1,0.3,0.1h3.4h3.4c0.1,0,0.2,0,0.3-0.1
	c0.2-0.2,0.2-0.5,0.2-0.5H46.3z"/>
<rect x="11.1" y="16.1" class="st1" width="70.4" height="44.5"/>
<polygon class="st4" points="47.6,38.9 41.3,41.7 33.2,33.6 11.1,50.5 11.1,60.7 81.5,60.7 81.5,8.3 52.1,43.9 "/>
<rect x="25" y="47.1" class="st1" width="2.2" height="1.7"/>
<rect x="28.2" y="47.1" class="st1" width="2.2" height="1.7"/>
<rect x="31.3" y="47.1" class="st5" width="2.2" height="1.7"/>
<rect x="34.5" y="47.1" class="st1" width="2.2" height="1.7"/>
<rect x="37.7" y="47.1" class="st1" width="2.2" height="1.7"/>
<rect x="40.8" y="47.1" class="st5" width="2.2" height="1.7"/>
<rect x="25" y="50" class="st1" width="2.2" height="1.7"/>
<rect x="28.2" y="50" class="st1" width="2.2" height="1.7"/>
<rect x="31.3" y="50" class="st1" width="2.2" height="1.7"/>
<rect x="34.5" y="50" class="st1" width="2.2" height="1.7"/>
<rect x="37.7" y="50" class="st5" width="2.2" height="1.7"/>
<rect x="40.8" y="50" class="st1" width="2.2" height="1.7"/>
<rect x="25" y="52.9" class="st1" width="2.2" height="1.7"/>
<rect x="28.2" y="52.9" class="st5" width="2.2" height="1.7"/>
<rect x="31.3" y="52.9" class="st1" width="2.2" height="1.7"/>
<rect x="34.5" y="52.9" class="st1" width="2.2" height="1.7"/>
<rect x="37.7" y="52.9" class="st1" width="2.2" height="1.7"/>
<rect x="40.8" y="52.9" class="st1" width="2.2" height="1.7"/>
<rect x="25" y="55.8" class="st1" width="2.2" height="1.7"/>
<rect x="28.2" y="55.8" class="st1" width="2.2" height="1.7"/>
<rect x="31.3" y="55.8" class="st5" width="2.2" height="1.7"/>
<rect x="34.5" y="55.8" class="st1" width="2.2" height="1.7"/>
<g>
	<g>
		<polygon class="st1" points="48.4,42.3 48.1,42 47.9,42.2 47.7,41.7 48.2,41.5 48.7,41.9 		"/>
	</g>
	<g>
		<path class="st1" d="M43.3,44.1l-0.2-0.4l0.8-0.3l0.2,0.4L43.3,44.1z M44.8,43.4L44.6,43l0.8-0.3l0.2,0.4L44.8,43.4z M46.3,42.8
			l-0.2-0.4l0.8-0.3l0.2,0.4L46.3,42.8z"/>
	</g>
	<g>
		<polygon class="st1" points="41.9,44.7 41.5,44.2 41.8,43.9 42,44.1 42.3,44 42.5,44.4 		"/>
	</g>
	<g>
		<path class="st1" d="M40.8,43.7l-0.7-0.6l0.3-0.4l0.7,0.6L40.8,43.7z M39.4,42.5l-0.7-0.6l0.3-0.4l0.7,0.6L39.4,42.5z M38.1,41.3
			l-0.7-0.6l0.3-0.4l0.7,0.6L38.1,41.3z M36.7,40.1L36,39.5l0.3-0.4l0.7,0.6L36.7,40.1z M35.3,38.9l-0.7-0.6l0.3-0.4l0.7,0.6
			L35.3,38.9z"/>
	</g>
	<g>
		<polygon class="st1" points="34,37.7 33.7,37.5 33.5,37.7 33.2,37.3 33.8,36.9 34.3,37.3 		"/>
	</g>
	<g>
		<path class="st1" d="M12.7,52.3l-0.3-0.4l0.8-0.6l0.3,0.4L12.7,52.3z M14.3,51.1l-0.3-0.4l0.8-0.6l0.3,0.4L14.3,51.1z M16,50
			l-0.3-0.4l0.8-0.6l0.3,0.4L16,50z M17.6,48.9l-0.3-0.4l0.8-0.6l0.3,0.4L17.6,48.9z M19.2,47.7l-0.3-0.4l0.8-0.6l0.3,0.4L19.2,47.7
			z M20.8,46.6l-0.3-0.4l0.8-0.6l0.3,0.4L20.8,46.6z M22.4,45.5l-0.3-0.4l0.8-0.6l0.3,0.4L22.4,45.5z M24,44.3l-0.3-0.4l0.8-0.6
			l0.3,0.4L24,44.3z M25.6,43.2l-0.3-0.4l0.8-0.6l0.3,0.4L25.6,43.2z M27.2,42.1l-0.3-0.4l0.8-0.6l0.3,0.4L27.2,42.1z M28.8,41
			l-0.3-0.4l0.8-0.6l0.3,0.4L28.8,41z M30.4,39.9l-0.3-0.4l0.8-0.6l0.3,0.4L30.4,39.9z M31.9,38.8l-0.3-0.4l0.8-0.5l0.3,0.4
			L31.9,38.8z"/>
	</g>
	<g>
		<path class="st1" d="M53.8,45.4L53.5,45l0.6-0.7l0.3,0.3L53.8,45.4z M55,44l-0.3-0.3l0.6-0.7l0.3,0.3L55,44z M56.2,42.6l-0.3-0.3
			l0.6-0.7l0.3,0.3L56.2,42.6z M57.4,41.2l-0.3-0.3l0.6-0.7l0.3,0.3L57.4,41.2z M58.6,39.8l-0.3-0.3l0.6-0.7l0.3,0.3L58.6,39.8z
			 M59.8,38.4l-0.3-0.3l0.6-0.7l0.3,0.3L59.8,38.4z M61,37l-0.3-0.3l0.6-0.7l0.3,0.3L61,37z M62.2,35.6l-0.3-0.3l0.6-0.7l0.3,0.3
			L62.2,35.6z M63.4,34.3L63,33.9l0.6-0.7l0.3,0.3L63.4,34.3z M64.5,32.9l-0.3-0.3l0.6-0.7l0.3,0.3L64.5,32.9z M65.7,31.5l-0.3-0.3
			l0.6-0.7l0.3,0.3L65.7,31.5z M66.9,30.2l-0.3-0.3l0.6-0.7l0.3,0.3L66.9,30.2z M68,28.8l-0.3-0.3l0.6-0.7l0.3,0.3L68,28.8z
			 M69.2,27.5l-0.3-0.3l0.6-0.7l0.3,0.3L69.2,27.5z M70.3,26.1L70,25.8l0.6-0.7l0.3,0.3L70.3,26.1z M71.5,24.8l-0.3-0.3l0.6-0.7
			l0.3,0.3L71.5,24.8z M72.6,23.5l-0.3-0.3l0.6-0.7l0.3,0.3L72.6,23.5z M73.8,22.1l-0.3-0.3l0.6-0.7l0.3,0.3L73.8,22.1z M74.9,20.8
			l-0.3-0.3l0.6-0.7l0.3,0.3L74.9,20.8z M76,19.5l-0.3-0.3l0.6-0.7l0.3,0.3L76,19.5z M77.2,18.2l-0.3-0.3l0.6-0.7l0.3,0.3L77.2,18.2
			z M78.3,16.9l-0.3-0.3l0.6-0.7l0.3,0.3L78.3,16.9z M79.3,15.6L79,15.3l0.6-0.7l0.3,0.3L79.3,15.6z M80.4,14.4L80,14.1l0.6-0.7
			l0.3,0.3L80.4,14.4z"/>
	</g>
	<g>
		<polygon class="st1" points="52.8,46.6 52.3,46.1 52.6,45.8 52.7,45.9 52.9,45.7 53.2,46.1 		"/>
	</g>
	<g>
		<path class="st1" d="M51.5,45.3l-0.8-0.8l0.3-0.3l0.8,0.8L51.5,45.3z M49.9,43.8L49.1,43l0.3-0.3l0.8,0.8L49.9,43.8z"/>
	</g>
</g>
<g>
	<g>
		<path class="st5" d="M79.6,3.1L52.2,37.9l-4.4-5.4l-6.5,3.1L33,26.8L11.1,44.6v2.1L32.9,29l8.1,8.7l6.5-3.1l4.7,5.7L80.7,4.2
			C80.3,3.9,79.9,3.5,79.6,3.1z"/>
	</g>
	<polygon class="st5" points="83.9,0 77.4,2.2 81.7,6.5 	"/>
</g>
<g>
	<path class="st5" d="M19.6,21.8c1.5,0.1,2.8,0.7,2.8,2.2L20,24c0-0.6-0.6-0.7-0.9-0.7c-0.2,0-0.9,0-0.9,0.5c0,1,4.5-0.1,4.5,2.8
		c0,1.7-1.3,2.3-2.9,2.5l0.1,1.8l-1.5,0l0.1-1.8c-1.5-0.1-2.9-0.9-2.9-2.4l2.4,0l0,0.1c0,0.7,0.8,0.8,1.1,0.8c0.4,0,1.1,0,1.1-0.5
		c0-1-4.5-0.1-4.5-2.8c0-1.6,1.2-2.2,2.7-2.3L18.2,20l1.5,0L19.6,21.8z"/>
</g>
<path class="st0" d="M56.8,70.8c0,0,0.1,2-0.2,2.3s-4.2,0.7-4.6,0.4s-0.2-1,0.6-1.3c0.9-0.3,1.3-0.1,1.9-0.4
	c0.5-0.3,0.3-1.2,0.3-1.2L56.8,70.8z"/>
<path class="st0" d="M69.6,70.8c0,0-0.1,2,0.2,2.3s4.2,0.7,4.6,0.4c0.4-0.3,0.2-1-0.6-1.3c-0.9-0.3-1.3-0.1-1.9-0.4
	c-0.5-0.3-0.3-1.2-0.3-1.2L69.6,70.8z"/>
<path class="st5" d="M69.8,59.3c-0.4-2.2-2.7-8-3.6-10.1c-0.3-0.1-0.7-0.2-1.1-0.3c0.1-0.5,0.2-0.9,0.2-1.2
	c-0.7,0.2-1.4,0.3-2.1,0.5c-0.1,0-0.2,0.1-0.3,0.1c-0.1,0-0.2-0.1-0.3-0.1c-0.7-0.2-1.4-0.3-2.1-0.5c0.1,0.3,0.1,0.7,0.2,1.2
	c-0.4,0.1-0.8,0.2-1.1,0.3c-0.9,2-3.2,7.9-3.6,10.1c-0.6,3-1.6,11.8-1.6,11.8l2.5,0.3c0,0,2.5-11.9,2.9-12.5
	c0.6-1.2,1.3-2.2,1.9-3.2c0.5-0.8,1.6-0.8,2.1,0c0.6,0.9,1.3,2,1.9,3.2c0.4,0.7,2.9,12.5,2.9,12.5l2.5-0.3
	C71.4,71.2,70.4,62.3,69.8,59.3z"/>
<path class="st6" d="M70.5,22.5c-0.1-1-0.3-1.2-0.6-1.4c-0.2-0.1-0.3-0.2-0.4-0.3c-0.1-0.2-0.3-0.3-0.5-0.4
	c-0.1-0.1-0.3-0.3-0.4-0.5c-0.1-0.2,0.2-0.2,0.5-0.1c0.2,0.1,0.7,0.7,0.9,0.6c0.2-0.1-0.3-0.8-0.4-1c-0.3-0.3-0.6-0.3-1-0.4
	c-0.2-0.1-0.3-0.2-0.1-0.3c0.2-0.1,0.4,0,0.6,0c0.3,0.1,0.7,0.3,1,0.6c-0.2-0.2-0.6-0.5-0.8-0.7c-0.2-0.1-1-0.4-0.9-0.6
	c0.2-0.6,1.9,0.5,2.1,0.8c-0.2-0.3-0.5-0.5-0.8-0.7c-0.2-0.1-0.6-0.4-0.2-0.5c0.5-0.2,1.2,0.8,1.5,1.1c-0.1-0.3-0.4-0.5-0.6-0.8
	c-0.3-0.4,0.1-0.4,0.4-0.1c0.2,0.1,0.4,0.4,0.5,0.5c0.6,0.7,0.6,1.2,0.7,2.1c0,0.3,0,0.8,0.1,1.8C72,22.7,71,22.5,70.5,22.5z"/>
<path class="st7" d="M46,36.9c-1-0.4-1.1-0.8-1.2-1.1c-0.1-0.2-0.1-0.4-0.2-0.5c-0.1-0.1-0.2-0.4-0.3-0.5c-0.1-0.2-0.2-0.4-0.4-0.5
	c-0.2-0.1-0.2,0.2-0.2,0.4c0,0.2,0.6,0.8,0.4,1c-0.1,0.2-0.7-0.5-0.8-0.6c-0.3-0.3-0.2-0.6-0.2-1c0-0.2-0.1-0.3-0.3-0.1
	c-0.1,0.1-0.1,0.4-0.1,0.6c0,0.4,0.2,0.8,0.4,1.1c-0.2-0.2-0.4-0.7-0.5-1c-0.1-0.2-0.1-1.1-0.4-1c-0.6,0.1,0.1,2,0.4,2.2
	c-0.2-0.3-0.4-0.6-0.5-0.9c-0.1-0.2-0.3-0.7-0.5-0.4c-0.3,0.5,0.5,1.3,0.8,1.7c-0.3-0.2-0.4-0.5-0.7-0.8c-0.3-0.4-0.4,0-0.2,0.4
	c0.1,0.2,0.3,0.5,0.4,0.6c0.6,0.7,1.1,0.8,1.9,1.1c0.3,0.1,0.6,0.1,1.6,0.6C45.8,38.3,45.8,37.3,46,36.9z"/>
<path class="st7" d="M64.2,34.9c-0.5,0.1-1.1,0.1-1.7,0.1c-0.2,0-0.4-0.1-0.6-0.1c0,0.7,0,2.3-0.5,2.9c0,0,0.2,0.8,1.6,0.8
	c1.4,0,1.6-0.8,1.6-0.8S64.2,36.7,64.2,34.9z"/>
<path class="st2" d="M69.6,38.8c-0.4-0.5-2.2-1.6-3.4-1.8c-2-0.3-4-0.3-6,0c-1.2,0.2-2.5,0.5-2.8,1c-0.5,0.6,1,4,1.2,7.2
	c0.2,2.6,0.6,4.6,0.6,4.6c0.8,1.4,7,1.5,7.7,0c0,0,0.1-2.2,0.6-4.7C68,42.1,70.1,39.5,69.6,38.8z"/>
<path class="st2" d="M59.7,44.5c0-0.8,0.3-2.4,0-3.1c-0.4-1.1-1.5-1.5-2.4-2c0.3,1.4,1,3.7,1.2,5.9c0.2,2.6,0.6,4.6,0.6,4.6
	c0.1,0.3,0.5,0.5,0.9,0.7C59.1,48.9,59.7,46.2,59.7,44.5z"/>
<path class="st7" d="M66.1,31.1c0,0-2.9-1.7-3.4-1.3c-0.4,0.4-1.1,1.9-1.5,2.1c-0.3,0.2-0.9,0.4-0.8,0.7c0,0.3,0.2,0.3,0.2,0.5
	s-0.6,1.5-0.3,1.9s2.4,1.2,3.7,0.3C65.4,34.5,67.6,31.9,66.1,31.1z"/>
<path class="st0" d="M66.8,31.7l-2.5,0c0,0-0.5,1.2-1.5,2c0,0,0.1,0.4,0.3,0.3c0.3-0.1,0.4-0.1,0.6-0.4c0.2-0.3,0.7-1,1.1-0.4
	c0.4,0.6-0.4,0.8-0.7,0.8c0,0-1.1,1.4-0.2,1.6c0,0,1-0.1,2.4-1.7S67.4,31.6,66.8,31.7z"/>
<path class="st0" d="M62.1,28.9c0,0-1.2,0.7,0.2,2.2s4.6,0.7,4.6,0.7s0.3-0.9-0.8-1.9c-0.9-0.7-1.8-1.1-2.6-0.8
	C62.2,29.6,62.1,28.9,62.1,28.9z"/>
<path class="st2" d="M45.6,36.4l-1,1.7c0,0,2.7,2.6,5.8,4.6c1.8,1.2,7.9-0.7,8.9-1c1.4-0.4,2.4-3.3,0.1-4.3c-1.3-0.6-6.6,3.4-8,2.7
	C49.8,39.2,45.6,36.4,45.6,36.4z"/>
<path class="st2" d="M70.1,22.1l2.1-0.3c0,0,1.4,6,1.3,8.1c-0.1,2.2-3.5,10-4.3,10.6c-0.9,0.7-3.5-1.4-1.7-3.7
	c1.9-2.3,3.1-7,3.2-7.2C70.7,29.4,70.1,22.1,70.1,22.1z"/>
<rect x="27.3" y="18.7" class="st2" width="16.7" height="1.5"/>
<rect x="27.3" y="21.1" class="st2" width="16.7" height="1.5"/>
<rect x="27.3" y="23.5" class="st2" width="12.6" height="1.5"/>
</svg>
